<?xml version="1.0" encoding="UTF-8"?>
<svg xmlns="http://www.w3.org/2000/svg" xmlns:xlink="http://www.w3.org/1999/xlink" viewBox="0 0 1001.89 510">
   <defs>
      <style>.a,.h{fill:#b52179;}.b,.e{fill:#395294;}.c,.g{fill:#1d7691;}.d,.f{fill:#20d6f5;}.e,.f,.g,.h,.k{fill-rule:evenodd;}.i{fill:#fff;}.j,.k{fill:#370b61;}.l{fill:url(#a);}.m{fill:url(#b);}.n{fill:url(#c);}.o{fill:url(#d);}.p{fill:lime;}.q{fill:none;stroke:lime;stroke-miterlimit:10;stroke-width:2px;stroke-dasharray:6 6;}</style>
      <linearGradient id="a" x1="667.3" y1="440.92" x2="880.21" y2="440.92" gradientUnits="userSpaceOnUse">
         <stop offset="0.22" stop-color="#395294" />
         <stop offset="0.5" stop-color="#333f8f" />
         <stop offset="0.66" stop-color="#3a2a7e" />
         <stop offset="0.86" stop-color="#41156c" />
         <stop offset="1" stop-color="#430d66" />
      </linearGradient>
      <linearGradient id="b" x1="672.1" y1="350.8" x2="875.41" y2="350.8" gradientUnits="userSpaceOnUse">
         <stop offset="0.22" stop-color="#b52179" />
         <stop offset="0.33" stop-color="#9e1c71" />
         <stop offset="0.5" stop-color="#731361" />
         <stop offset="0.65" stop-color="#601163" />
         <stop offset="0.86" stop-color="#4b0e65" />
         <stop offset="1" stop-color="#430d66" />
      </linearGradient>
      <linearGradient id="c" x1="788.95" y1="135.85" x2="945.45" y2="135.85" xlink:href="#b" />
      <linearGradient id="d" x1="800.23" y1="100.23" x2="1001.89" y2="100.23" xlink:href="#a" />
   </defs>
   <title>all</title>
   <rect class="a" x="157.45" y="131.1" width="131.43" height="18.25" />
   <rect class="b" x="157.45" y="149.35" width="207.91" height="18.25" />
   <rect class="c" x="157.45" y="167.6" width="171.38" height="18.25" />
   <rect class="d" x="157.45" y="185.84" width="58.46" height="18.25" />
   <path class="e" d="M137,185.21a51.12,51.12,0,0,0-37.64-73.9h0l.37.06-7.93,50.21Z" />
   <path class="f" d="M43.19,176.65a50.47,50.47,0,0,1,3.39-38.73L91.8,161.56Z" />
   <path class="g" d="M91.8,161.56,43.19,176.65A51.1,51.1,0,0,0,137,185.21Z" />
   <path class="h" d="M99.77,111.37a50.84,50.84,0,0,0-53.19,26.55l45.26,23.66Z" />
   <path class="i" d="M373.22,154.59v2.21a10.36,10.36,0,0,1,1.32-.11,2.41,2.41,0,0,1,2.71,2.32,2.52,2.52,0,0,1-2.77,2.59,4.93,4.93,0,0,1-2.65-.85l.37-.76a3.83,3.83,0,0,0,2.19.78,1.68,1.68,0,0,0,1.9-1.7c0-.93-.73-1.52-1.88-1.52a13,13,0,0,0-2,.19v-4h4.55v.86Z" />
   <path class="i" d="M378.61,161.05l.36-.71a3.75,3.75,0,0,0,1.8.48c1.69,0,2.53-1.38,2.4-3.5a2.54,2.54,0,0,1-4.83-1,2.46,2.46,0,0,1,2.66-2.61c1.91,0,3.06,1.38,3.06,3.8s-1.23,4.13-3.23,4.13A5.07,5.07,0,0,1,378.61,161.05Zm4.36-4.82a1.77,1.77,0,0,0-1.92-1.72,1.71,1.71,0,0,0-1.87,1.79A1.63,1.63,0,0,0,381,158,1.82,1.82,0,0,0,383,156.23Z" />
   <path class="i" d="M390.54,155.67a1.81,1.81,0,0,1-1.28,1.72,2,2,0,0,1,1.65,2c0,1.4-1.11,2.25-2.88,2.25s-2.91-.85-2.91-2.23a2.08,2.08,0,0,1,1.7-2,1.86,1.86,0,0,1-1.32-1.74c0-1.22,1-2,2.52-2S390.54,154.44,390.54,155.67ZM386,159.3c0,1,.77,1.56,2.06,1.56s2-.57,2-1.56-.76-1.49-2.05-1.49S386,158.37,386,159.3Zm.31-3.57c0,.84.65,1.33,1.75,1.33s1.74-.49,1.74-1.33-.66-1.34-1.74-1.34S386.28,154.88,386.28,155.73Z" />
   <path class="i" d="M393.14,161.09a.55.55,0,1,1-.54-.59A.55.55,0,0,1,393.14,161.09Z" />
   <path class="i" d="M396.66,157.08c1.41.07,2.36.83,2.36,2.09a2.46,2.46,0,0,1-2.74,2.46,4.42,4.42,0,0,1-2.49-.8l.39-.75a3.27,3.27,0,0,0,2,.74c1.22,0,1.94-.66,1.94-1.62s-.73-1.49-1.95-1.49h-1v-.57l2.3-2.55h-3.4v-.85h4.52v.61l-2.43,2.7Z" />
   <path class="i" d="M405.1,155.63a4.28,4.28,0,0,1-1.39,2.54l-2.41,2.56h4.25v.85h-5.4v-.74l2.94-3.2a3.21,3.21,0,0,0,1.08-1.89c0-.76-.59-1.22-1.57-1.22a3.28,3.28,0,0,0-2.15,1l-.39-.72a4.06,4.06,0,0,1,2.65-1.08C404.16,153.7,405.1,154.45,405.1,155.63Z" />
   <path class="i" d="M299.44,139.52c1.42.07,2.37.83,2.37,2.09a2.47,2.47,0,0,1-2.75,2.45,4.41,4.41,0,0,1-2.49-.79l.39-.76a3.28,3.28,0,0,0,2,.75c1.23,0,1.94-.67,1.94-1.62s-.72-1.49-1.95-1.49h-1v-.57l2.3-2.55h-3.4v-.85h4.52v.6L299,139.49Z" />
   <path class="i" d="M308.44,136.69l-.35.72a3.79,3.79,0,0,0-1.81-.48c-1.68,0-2.52,1.38-2.4,3.5a2.54,2.54,0,0,1,4.83,1,2.45,2.45,0,0,1-2.65,2.6c-1.91,0-3.07-1.38-3.07-3.8s1.24-4.13,3.23-4.13A5.17,5.17,0,0,1,308.44,136.69Zm-4.35,4.83a1.76,1.76,0,0,0,1.91,1.71,1.71,1.71,0,0,0,1.87-1.78,1.62,1.62,0,0,0-1.8-1.69A1.81,1.81,0,0,0,304.09,141.52Z" />
   <path class="i" d="M315.15,138.11a1.79,1.79,0,0,1-1.28,1.71,2.06,2.06,0,0,1,1.65,2c0,1.4-1.11,2.24-2.89,2.24s-2.9-.84-2.9-2.22a2.09,2.09,0,0,1,1.69-2,1.84,1.84,0,0,1-1.31-1.73c0-1.23,1-2,2.51-2S315.15,136.87,315.15,138.11Zm-4.57,3.63c0,1,.77,1.56,2.05,1.56s2.05-.57,2.05-1.56-.77-1.49-2.06-1.49S310.58,140.81,310.58,141.74Zm.31-3.58c0,.84.65,1.34,1.74,1.34s1.74-.5,1.74-1.34-.65-1.33-1.74-1.33S310.89,137.32,310.89,138.16Z" />
   <path class="i" d="M317.74,143.52a.54.54,0,1,1-.53-.58A.55.55,0,0,1,317.74,143.52Z" />
   <path class="i" d="M321.27,139.52c1.41.07,2.36.83,2.36,2.09a2.46,2.46,0,0,1-2.75,2.45,4.44,4.44,0,0,1-2.49-.79l.4-.76a3.28,3.28,0,0,0,2,.75c1.22,0,1.94-.67,1.94-1.62s-.73-1.49-1.95-1.49h-1v-.57l2.3-2.55h-3.4v-.85h4.52v.6l-2.43,2.71Z" />
   <path class="i" d="M329.71,138.06a4.3,4.3,0,0,1-1.39,2.55l-2.42,2.56h4.25V144h-5.39v-.74l2.94-3.2a3.21,3.21,0,0,0,1.08-1.89c0-.77-.59-1.23-1.57-1.23a3.24,3.24,0,0,0-2.15,1l-.39-.72a4.07,4.07,0,0,1,2.65-1.09C328.76,136.13,329.71,136.88,329.71,138.06Z" />
   <path class="d" d="M174,136.25v1.49h-2.34V144h-1.75v-6.28h-2.34v-1.49Z" />
   <path class="d" d="M176.79,136.42a.91.91,0,0,1-.3.72,1,1,0,0,1-.7.26,1,1,0,0,1-.7-.26.9.9,0,0,1-.29-.72.89.89,0,0,1,.29-.72,1,1,0,0,1,.7-.27,1,1,0,0,1,.7.27A.89.89,0,0,1,176.79,136.42Zm-.16,7.6H175v-5.9h1.67Z" />
   <path class="d" d="M178.15,136.65l1.67-.27v1.74h2v1.39h-2v2.08a1.69,1.69,0,0,0,.18.84.82.82,0,0,0,.75.31,3.51,3.51,0,0,0,.55-.05,2.46,2.46,0,0,0,.52-.14l.24,1.3a5.29,5.29,0,0,1-.67.21,3.94,3.94,0,0,1-.91.09,3,3,0,0,1-1.13-.18,1.86,1.86,0,0,1-.72-.52,1.92,1.92,0,0,1-.38-.8,4.77,4.77,0,0,1-.1-1Z" />
   <path class="d" d="M185.53,144.13a4.15,4.15,0,0,1-1.18-.16,1.68,1.68,0,0,1-.72-.41,1.41,1.41,0,0,1-.36-.63,3.7,3.7,0,0,1-.09-.85v-6.49l1.67-.27v6.42a2.54,2.54,0,0,0,0,.41.83.83,0,0,0,.13.3.75.75,0,0,0,.28.2,1.44,1.44,0,0,0,.48.1Z" />
   <path class="d" d="M186.44,141.11a3.61,3.61,0,0,1,.24-1.37,2.83,2.83,0,0,1,.64-1,2.56,2.56,0,0,1,.9-.59,2.72,2.72,0,0,1,1.05-.2,2.61,2.61,0,0,1,2,.76A3.2,3.2,0,0,1,192,141c0,.1,0,.21,0,.32s0,.22,0,.31h-3.78a1.08,1.08,0,0,0,.48.82,1.93,1.93,0,0,0,1.14.3,5.29,5.29,0,0,0,.9-.08,3.85,3.85,0,0,0,.73-.21l.22,1.35a2.26,2.26,0,0,1-.36.14l-.5.12-.59.08c-.2,0-.41,0-.62,0a3.68,3.68,0,0,1-1.39-.24,2.78,2.78,0,0,1-1-.64,2.57,2.57,0,0,1-.57-1A3.71,3.71,0,0,1,186.44,141.11Zm3.92-.63a1.48,1.48,0,0,0-.07-.42,1,1,0,0,0-.19-.36,1.18,1.18,0,0,0-.32-.26,1.22,1.22,0,0,0-.49-.1,1.14,1.14,0,0,0-.48.1,1,1,0,0,0-.34.25,1.23,1.23,0,0,0-.21.37,1.84,1.84,0,0,0-.1.42Z" />
   <path class="d" d="M196,137.86l.68-.3.68-.38c.23-.14.44-.29.65-.44a5.31,5.31,0,0,0,.55-.49h1.17V144H198v-5.59a5.85,5.85,0,0,1-.75.4,8.47,8.47,0,0,1-.81.32Z" />
   <path class="d" d="M174,153.8v1.49h-2.34v6.27h-1.75v-6.27h-2.34V153.8Z" />
   <path class="d" d="M176.79,154a.93.93,0,0,1-.3.73,1,1,0,0,1-.7.26,1,1,0,0,1-.7-.26,1.05,1.05,0,0,1,0-1.45,1,1,0,0,1,.7-.26,1,1,0,0,1,.7.26A.92.92,0,0,1,176.79,154Zm-.16,7.6H175v-5.89h1.67Z" />
   <path class="d" d="M178.15,154.2l1.67-.27v1.74h2v1.39h-2v2.07a1.69,1.69,0,0,0,.18.84.8.8,0,0,0,.75.32,2.64,2.64,0,0,0,.55-.06,2.46,2.46,0,0,0,.52-.14l.24,1.3a4,4,0,0,1-.67.22,3.94,3.94,0,0,1-.91.09,2.8,2.8,0,0,1-1.13-.19,1.75,1.75,0,0,1-.72-.51,1.92,1.92,0,0,1-.38-.8,4.93,4.93,0,0,1-.1-1Z" />
   <path class="d" d="M185.53,161.68a4.54,4.54,0,0,1-1.18-.16,1.92,1.92,0,0,1-.72-.41,1.5,1.5,0,0,1-.36-.64,3.63,3.63,0,0,1-.09-.85v-6.49l1.67-.27v6.43a2.41,2.41,0,0,0,0,.4.83.83,0,0,0,.13.3.76.76,0,0,0,.28.21,1.74,1.74,0,0,0,.48.1Z" />
   <path class="d" d="M186.44,158.66a3.61,3.61,0,0,1,.24-1.37,2.74,2.74,0,0,1,.64-1,2.59,2.59,0,0,1,.9-.6,2.92,2.92,0,0,1,1.05-.2,2.62,2.62,0,0,1,2,.77,3.18,3.18,0,0,1,.73,2.26c0,.09,0,.2,0,.32s0,.21,0,.3h-3.78a1.06,1.06,0,0,0,.48.82,1.93,1.93,0,0,0,1.14.31,4.43,4.43,0,0,0,.9-.09,3.23,3.23,0,0,0,.73-.21l.22,1.36a2.37,2.37,0,0,1-.36.13,3.06,3.06,0,0,1-.5.12c-.18,0-.38.06-.59.09s-.41,0-.62,0a3.68,3.68,0,0,1-1.39-.24,2.65,2.65,0,0,1-1-.64,2.49,2.49,0,0,1-.57-1A3.65,3.65,0,0,1,186.44,158.66Zm3.92-.64a1.41,1.41,0,0,0-.07-.41.89.89,0,0,0-.19-.36,1,1,0,0,0-.32-.26,1.07,1.07,0,0,0-.49-.1,1.14,1.14,0,0,0-.48.09,1,1,0,0,0-.34.26,1.07,1.07,0,0,0-.21.36,2.13,2.13,0,0,0-.1.42Z" />
   <path class="d" d="M200.73,155.84a1.9,1.9,0,0,1-.17.81,3.37,3.37,0,0,1-.43.76,5.66,5.66,0,0,1-.61.7c-.22.22-.44.44-.66.64l-.36.35c-.14.13-.26.27-.38.4s-.23.26-.32.38a.9.9,0,0,0-.17.28H201v1.4h-5.18a1.37,1.37,0,0,1,0-.31V161a2.64,2.64,0,0,1,.17-1,4.15,4.15,0,0,1,.45-.83,4.85,4.85,0,0,1,.64-.72l.7-.68.5-.48q.24-.24.42-.45a2.15,2.15,0,0,0,.28-.44,1.17,1.17,0,0,0,.1-.44.83.83,0,0,0-.28-.7,1.2,1.2,0,0,0-.7-.2,1.47,1.47,0,0,0-.56.1,2.43,2.43,0,0,0-.49.22,3,3,0,0,0-.37.26,1.87,1.87,0,0,0-.24.21l-.83-1.17a4.34,4.34,0,0,1,1.15-.76,3.52,3.52,0,0,1,1.41-.29,4.08,4.08,0,0,1,1.18.15,2.11,2.11,0,0,1,.81.45,1.73,1.73,0,0,1,.47.69A2.67,2.67,0,0,1,200.73,155.84Z" />
   <path class="d" d="M174,172.54V174h-2.34v6.28h-1.75V174h-2.34v-1.49Z" />
   <path class="d" d="M176.79,172.71a.91.91,0,0,1-.3.72,1,1,0,0,1-.7.26,1,1,0,0,1-.7-.26.9.9,0,0,1-.29-.72.92.92,0,0,1,.29-.73,1,1,0,0,1,.7-.26,1,1,0,0,1,.7.26A.93.93,0,0,1,176.79,172.71Zm-.16,7.6H175v-5.9h1.67Z" />
   <path class="d" d="M178.15,172.94l1.67-.27v1.74h2v1.39h-2v2.07a1.7,1.7,0,0,0,.18.85.82.82,0,0,0,.75.31,3.51,3.51,0,0,0,.55-.05,3.25,3.25,0,0,0,.52-.14l.24,1.3a5.29,5.29,0,0,1-.67.21,3.94,3.94,0,0,1-.91.09,3,3,0,0,1-1.13-.18,1.86,1.86,0,0,1-.72-.52,1.92,1.92,0,0,1-.38-.8,4.77,4.77,0,0,1-.1-1Z" />
   <path class="d" d="M185.53,180.42a4.15,4.15,0,0,1-1.18-.16,1.68,1.68,0,0,1-.72-.41,1.45,1.45,0,0,1-.36-.64,3.61,3.61,0,0,1-.09-.84v-6.49l1.67-.27V178a2.33,2.33,0,0,0,0,.4.88.88,0,0,0,.13.31.75.75,0,0,0,.28.2,1.44,1.44,0,0,0,.48.1Z" />
   <path class="d" d="M186.44,177.4a3.61,3.61,0,0,1,.24-1.37,2.83,2.83,0,0,1,.64-1,2.56,2.56,0,0,1,.9-.59,2.73,2.73,0,0,1,1.05-.21,2.62,2.62,0,0,1,2,.77,3.2,3.2,0,0,1,.73,2.26c0,.1,0,.2,0,.32s0,.22,0,.31h-3.78a1.09,1.09,0,0,0,.48.82,1.93,1.93,0,0,0,1.14.3,4.43,4.43,0,0,0,.9-.09,3.27,3.27,0,0,0,.73-.2l.22,1.35a2.26,2.26,0,0,1-.36.14l-.5.12-.59.08c-.2,0-.41,0-.62,0a3.89,3.89,0,0,1-1.39-.23,2.67,2.67,0,0,1-1-.65,2.42,2.42,0,0,1-.57-1A3.61,3.61,0,0,1,186.44,177.4Zm3.92-.64a1.41,1.41,0,0,0-.07-.41,1,1,0,0,0-.19-.36,1.18,1.18,0,0,0-.32-.26,1.22,1.22,0,0,0-.49-.1,1,1,0,0,0-.48.1,1,1,0,0,0-.34.25,1.31,1.31,0,0,0-.21.36,2.13,2.13,0,0,0-.1.42Z" />
   <path class="d" d="M197.73,180.47l-.64,0-.65-.11a5.83,5.83,0,0,1-.57-.15l-.41-.14.33-1.39a7.51,7.51,0,0,0,.74.26,3.71,3.71,0,0,0,1.13.14,1.8,1.8,0,0,0,1.13-.29,1,1,0,0,0,.36-.78.88.88,0,0,0-.13-.51,1,1,0,0,0-.35-.34,1.44,1.44,0,0,0-.53-.18,4.65,4.65,0,0,0-.66,0h-.65v-1.35h.74a2.52,2.52,0,0,0,.48,0,1.34,1.34,0,0,0,.41-.15.78.78,0,0,0,.28-.29,1,1,0,0,0,.11-.47.75.75,0,0,0-.09-.37,1,1,0,0,0-.23-.26,1.26,1.26,0,0,0-.33-.15,1.5,1.5,0,0,0-.37,0,2.56,2.56,0,0,0-.89.15,3.24,3.24,0,0,0-.75.36l-.59-1.23.42-.23a5.27,5.27,0,0,1,.53-.23,5.61,5.61,0,0,1,.62-.16,3.2,3.2,0,0,1,.7-.07,3.85,3.85,0,0,1,1.19.16,2.25,2.25,0,0,1,.82.46,1.76,1.76,0,0,1,.48.7,2.2,2.2,0,0,1,.16.86,1.73,1.73,0,0,1-.26.89,1.69,1.69,0,0,1-.69.66,2,2,0,0,1,.93.73,2.06,2.06,0,0,1,.33,1.17,2.73,2.73,0,0,1-.18,1,2,2,0,0,1-.56.78,2.56,2.56,0,0,1-1,.52A4.74,4.74,0,0,1,197.73,180.47Z" />
   <path class="j" d="M174,190.35v1.49h-2.34v6.27h-1.75v-6.27h-2.34v-1.49Z" />
   <path class="j" d="M176.79,190.51a.93.93,0,0,1-.3.73,1,1,0,0,1-.7.26,1,1,0,0,1-.7-.26,1.05,1.05,0,0,1,0-1.45,1,1,0,0,1,.7-.26,1,1,0,0,1,.7.26A.92.92,0,0,1,176.79,190.51Zm-.16,7.6H175v-5.89h1.67Z" />
   <path class="j" d="M178.15,190.75l1.67-.27v1.74h2v1.39h-2v2.07a1.69,1.69,0,0,0,.18.84.8.8,0,0,0,.75.32,3.51,3.51,0,0,0,.55-.05,2.45,2.45,0,0,0,.52-.15l.24,1.31a5.29,5.29,0,0,1-.67.21,3.94,3.94,0,0,1-.91.09,2.8,2.8,0,0,1-1.13-.19,1.75,1.75,0,0,1-.72-.51,1.92,1.92,0,0,1-.38-.8,4.86,4.86,0,0,1-.1-1.05Z" />
   <path class="j" d="M185.53,198.23a4.15,4.15,0,0,1-1.18-.16,1.79,1.79,0,0,1-.72-.41,1.5,1.5,0,0,1-.36-.64,3.63,3.63,0,0,1-.09-.85v-6.49l1.67-.26v6.42a2.41,2.41,0,0,0,0,.4.83.83,0,0,0,.13.3.76.76,0,0,0,.28.21,1.74,1.74,0,0,0,.48.1Z" />
   <path class="j" d="M186.44,195.21a3.61,3.61,0,0,1,.24-1.37,2.83,2.83,0,0,1,.64-1,2.59,2.59,0,0,1,.9-.6,2.92,2.92,0,0,1,1.05-.2,2.62,2.62,0,0,1,2,.77,3.18,3.18,0,0,1,.73,2.26c0,.09,0,.2,0,.32s0,.22,0,.31h-3.78a1.06,1.06,0,0,0,.48.81,1.93,1.93,0,0,0,1.14.31,4.43,4.43,0,0,0,.9-.09,2.78,2.78,0,0,0,.73-.21l.22,1.36a2.26,2.26,0,0,1-.36.14,4.75,4.75,0,0,1-.5.11c-.18,0-.38.06-.59.09s-.41,0-.62,0a3.89,3.89,0,0,1-1.39-.23,2.8,2.8,0,0,1-1-.65,2.42,2.42,0,0,1-.57-1A3.65,3.65,0,0,1,186.44,195.21Zm3.92-.64a1.41,1.41,0,0,0-.07-.41.89.89,0,0,0-.19-.36,1,1,0,0,0-.32-.26,1.07,1.07,0,0,0-.49-.1,1.14,1.14,0,0,0-.48.09,1,1,0,0,0-.34.26,1.07,1.07,0,0,0-.21.36,2.13,2.13,0,0,0-.1.42Z" />
   <path class="j" d="M200.38,190.35V195h.83v1.37h-.83v1.73h-1.63v-1.73H195.4v-1.23c.16-.32.37-.7.61-1.11s.52-.84.83-1.28.62-.86,1-1.28a12.72,12.72,0,0,1,1-1.13Zm-1.63,2-.93,1.24A8.28,8.28,0,0,0,197,195h1.76Z" />
   <path class="i" d="M231.78,193.1a4.25,4.25,0,0,1-1.39,2.54L228,198.2h4.25v.85h-5.39v-.74l2.94-3.2a3.19,3.19,0,0,0,1.07-1.89c0-.76-.58-1.22-1.57-1.22a3.27,3.27,0,0,0-2.14,1l-.39-.72a4,4,0,0,1,2.65-1.08C230.84,191.17,231.78,191.92,231.78,193.1Z" />
   <path class="i" d="M238.3,193.1a4.25,4.25,0,0,1-1.39,2.54l-2.42,2.56h4.26v.85h-5.4v-.74l2.94-3.2a3.21,3.21,0,0,0,1.08-1.89c0-.76-.59-1.22-1.57-1.22a3.28,3.28,0,0,0-2.15,1l-.39-.72a4.06,4.06,0,0,1,2.65-1.08C237.35,191.17,238.3,191.92,238.3,193.1Z" />
   <path class="i" d="M245.3,193.14a1.81,1.81,0,0,1-1.28,1.72,2.05,2.05,0,0,1,1.65,2c0,1.41-1.11,2.25-2.88,2.25s-2.9-.84-2.9-2.22a2.09,2.09,0,0,1,1.69-2,1.85,1.85,0,0,1-1.31-1.74c0-1.22,1-2,2.51-2S245.3,191.91,245.3,193.14Zm-4.56,3.63c0,1,.76,1.56,2,1.56s2-.57,2-1.56-.76-1.49-2.05-1.49S240.74,195.84,240.74,196.77Zm.3-3.57c0,.84.65,1.33,1.75,1.33s1.74-.49,1.74-1.33-.65-1.34-1.74-1.34S241,192.36,241,193.2Z" />
   <path class="i" d="M247.9,198.56a.55.55,0,1,1-.54-.59A.55.55,0,0,1,247.9,198.56Z" />
   <path class="i" d="M251.42,194.55c1.41.07,2.37.83,2.37,2.09A2.47,2.47,0,0,1,251,199.1a4.42,4.42,0,0,1-2.49-.8l.39-.75a3.27,3.27,0,0,0,2,.74c1.22,0,1.94-.66,1.94-1.62s-.73-1.49-1.95-1.49h-1v-.57l2.29-2.55H248.9v-.85h4.52v.61l-2.44,2.7Z" />
   <path class="i" d="M259.86,193.1a4.25,4.25,0,0,1-1.39,2.54l-2.41,2.56h4.25v.85h-5.39v-.74l2.93-3.2a3.16,3.16,0,0,0,1.08-1.89c0-.76-.58-1.22-1.57-1.22a3.25,3.25,0,0,0-2.14,1l-.39-.72a4,4,0,0,1,2.64-1.08C258.92,191.17,259.86,191.92,259.86,193.1Z" />
   <path class="i" d="M341.19,177.38V175.3H342v2.08h1.18v.86H342v2.07h-.85v-2.07h-3.76v-.74l2.81-5h.89l-2.74,4.92Z" />
   <path class="i" d="M349.59,173l-.36.72a3.75,3.75,0,0,0-1.8-.48c-1.69,0-2.53,1.38-2.4,3.5a2.54,2.54,0,0,1,4.83,1,2.45,2.45,0,0,1-2.66,2.6c-1.9,0-3.06-1.38-3.06-3.8s1.23-4.13,3.23-4.13A5.21,5.21,0,0,1,349.59,173Zm-4.35,4.83a1.75,1.75,0,0,0,1.91,1.71,1.71,1.71,0,0,0,1.87-1.78,1.63,1.63,0,0,0-1.81-1.69A1.8,1.8,0,0,0,345.24,177.81Z" />
   <path class="i" d="M356.29,174.4a1.81,1.81,0,0,1-1.27,1.71,2.05,2.05,0,0,1,1.64,2c0,1.4-1.11,2.24-2.88,2.24s-2.9-.84-2.9-2.22a2.09,2.09,0,0,1,1.69-2,1.84,1.84,0,0,1-1.31-1.74c0-1.22,1-2,2.51-2S356.29,173.16,356.29,174.4ZM351.73,178c0,1,.76,1.56,2,1.56s2-.57,2-1.56-.76-1.49-2.05-1.49S351.73,177.1,351.73,178Zm.3-3.58c0,.84.65,1.34,1.75,1.34s1.74-.5,1.74-1.34-.65-1.33-1.74-1.33S352,173.61,352,174.45Z" />
   <path class="i" d="M358.89,179.81a.55.55,0,0,1-.54.59.59.59,0,0,1,0-1.17A.55.55,0,0,1,358.89,179.81Z" />
   <path class="i" d="M362.41,175.81c1.41.07,2.37.83,2.37,2.09a2.47,2.47,0,0,1-2.75,2.45,4.41,4.41,0,0,1-2.49-.79l.39-.76a3.27,3.27,0,0,0,2,.74c1.23,0,1.94-.66,1.94-1.61s-.73-1.49-1.95-1.49h-1v-.57l2.3-2.55h-3.4v-.85h4.52v.6L362,175.78Z" />
   <path class="i" d="M370.85,174.35a4.3,4.3,0,0,1-1.39,2.55l-2.41,2.55h4.25v.86h-5.39v-.74l2.94-3.2a3.18,3.18,0,0,0,1.07-1.9c0-.76-.58-1.22-1.57-1.22a3.22,3.22,0,0,0-2.14,1l-.39-.72a4,4,0,0,1,2.64-1.09C369.91,172.42,370.85,173.17,370.85,174.35Z" />
   <path class="d" d="M226.25,459.24A226.25,226.25,0,0,1,66.27,73a226.25,226.25,0,1,1,320,320A224.78,224.78,0,0,1,226.25,459.24Zm0-450.5C102.6,8.74,2,109.33,2,233S102.6,457.24,226.25,457.24,450.5,356.64,450.5,233,349.9,8.74,226.25,8.74Z" />
   <path class="d" d="M173.72,70.83a12.16,12.16,0,0,1-.86,4.79A9.09,9.09,0,0,1,170.43,79a10.07,10.07,0,0,1-3.79,2,17.2,17.2,0,0,1-4.91.66c-.86,0-1.83,0-2.91-.11a20,20,0,0,1-3.09-.44V60.55a17.92,17.92,0,0,1,3.12-.43c1.1-.07,2.08-.1,2.94-.1a17.65,17.65,0,0,1,4.86.63,10,10,0,0,1,3.78,2A8.78,8.78,0,0,1,172.86,66,12.26,12.26,0,0,1,173.72,70.83Zm-14.14,7.43c.23,0,.52,0,.89,0H162c2.59,0,4.52-.65,5.8-2a7.64,7.64,0,0,0,1.91-5.52,7.65,7.65,0,0,0-1.86-5.54q-1.87-1.94-5.79-1.93a23,23,0,0,0-2.45.09Z" />
   <path class="d" d="M182.72,65a9.23,9.23,0,0,1,3.09.46,5,5,0,0,1,2,1.29,4.77,4.77,0,0,1,1.07,2,9.62,9.62,0,0,1,.32,2.59v9.7c-.57.12-1.43.27-2.58.44a26.82,26.82,0,0,1-3.9.26,11.88,11.88,0,0,1-2.63-.27,5.59,5.59,0,0,1-2-.89A4.27,4.27,0,0,1,176.73,79a5.64,5.64,0,0,1-.47-2.42,4.67,4.67,0,0,1,.54-2.33,4.36,4.36,0,0,1,1.45-1.54,6.35,6.35,0,0,1,2.13-.86,12.09,12.09,0,0,1,2.52-.26,11.74,11.74,0,0,1,1.29.08,12.49,12.49,0,0,1,1.43.26v-.61a4.93,4.93,0,0,0-.15-1.23,2.56,2.56,0,0,0-.53-1,2.53,2.53,0,0,0-1-.69,4.47,4.47,0,0,0-1.58-.25,14.28,14.28,0,0,0-2.36.19,9.58,9.58,0,0,0-1.74.43l-.46-3a13.23,13.23,0,0,1,2.05-.49A15.52,15.52,0,0,1,182.72,65Zm.3,13.8a14,14,0,0,0,2.6-.18v-4.1a8.82,8.82,0,0,0-2.17-.28,7.49,7.49,0,0,0-1.24.1,3.92,3.92,0,0,0-1.13.33,2.11,2.11,0,0,0-.81.69,1.9,1.9,0,0,0-.31,1.12,2,2,0,0,0,.83,1.82A4.21,4.21,0,0,0,183,78.84Z" />
   <path class="d" d="M197.74,78.78a4.79,4.79,0,0,0,2.14-.35,1.25,1.25,0,0,0,.68-1.21,1.55,1.55,0,0,0-.72-1.31,10.48,10.48,0,0,0-2.37-1.14,16.09,16.09,0,0,1-1.85-.78,6,6,0,0,1-1.46-1,3.88,3.88,0,0,1-1-1.33,4.56,4.56,0,0,1-.35-1.91,4.19,4.19,0,0,1,1.62-3.48,7,7,0,0,1,4.4-1.27,13.89,13.89,0,0,1,2.7.26,12.75,12.75,0,0,1,1.92.51l-.67,3a9.21,9.21,0,0,0-1.56-.51,9.59,9.59,0,0,0-2.2-.23,3.78,3.78,0,0,0-1.84.39,1.24,1.24,0,0,0-.7,1.17,1.61,1.61,0,0,0,.14.71,1.52,1.52,0,0,0,.47.56,4.18,4.18,0,0,0,.89.52,12.74,12.74,0,0,0,1.34.54,22.38,22.38,0,0,1,2.24,1A6.41,6.41,0,0,1,203.11,74a3.68,3.68,0,0,1,.87,1.36,5.35,5.35,0,0,1,.28,1.84,4,4,0,0,1-1.7,3.47,8.41,8.41,0,0,1-4.85,1.18,13.53,13.53,0,0,1-3.4-.35,15.3,15.3,0,0,1-1.8-.57l.64-3.09a16.45,16.45,0,0,0,2,.65A10.29,10.29,0,0,0,197.74,78.78Z" />
   <path class="d" d="M207.72,81.44V58.31l3.7-.61v7.92a10.09,10.09,0,0,1,1.42-.36,8.87,8.87,0,0,1,1.61-.16,8.25,8.25,0,0,1,3.2.54,5.12,5.12,0,0,1,2,1.5,5.89,5.89,0,0,1,1.09,2.31,13.21,13.21,0,0,1,.32,3v9h-3.7V73a12.33,12.33,0,0,0-.17-2.19,4,4,0,0,0-.55-1.47,2.25,2.25,0,0,0-1-.82,4.14,4.14,0,0,0-1.59-.26,7.78,7.78,0,0,0-1.5.15,8,8,0,0,0-1.13.28V81.44Z" />
   <path class="d" d="M239.94,73.46a10,10,0,0,1-.57,3.47,7.66,7.66,0,0,1-1.62,2.65,7.09,7.09,0,0,1-2.55,1.68,9.33,9.33,0,0,1-3.4.58,22,22,0,0,1-3.51-.27,23.73,23.73,0,0,1-2.76-.61V58.31l3.7-.61V66a8.89,8.89,0,0,1,1.57-.61,7.45,7.45,0,0,1,2.07-.28,7.22,7.22,0,0,1,3,.6,5.85,5.85,0,0,1,2.22,1.7,7.72,7.72,0,0,1,1.36,2.65A11.42,11.42,0,0,1,239.94,73.46Zm-3.8-.06a6.61,6.61,0,0,0-.93-3.74,3.33,3.33,0,0,0-3-1.37,5.45,5.45,0,0,0-1.73.27,5.67,5.67,0,0,0-1.3.61v9.21a7.65,7.65,0,0,0,1,.17,13,13,0,0,0,1.52.08A4,4,0,0,0,235,77.24,5.79,5.79,0,0,0,236.14,73.4Z" />
   <path class="d" d="M258.24,73.43a10.49,10.49,0,0,1-.55,3.45,7.74,7.74,0,0,1-1.56,2.67,7.17,7.17,0,0,1-2.44,1.71,7.8,7.8,0,0,1-3.13.61,7.65,7.65,0,0,1-3.12-.61A7.09,7.09,0,0,1,245,79.55a7.78,7.78,0,0,1-1.58-2.67,10.91,10.91,0,0,1,0-6.9A7.86,7.86,0,0,1,245,67.34a7.07,7.07,0,0,1,2.44-1.7,7.74,7.74,0,0,1,3.09-.6,7.9,7.9,0,0,1,3.1.6,6.76,6.76,0,0,1,2.43,1.7A7.84,7.84,0,0,1,257.67,70,9.91,9.91,0,0,1,258.24,73.43Zm-3.8,0a6.28,6.28,0,0,0-1-3.78,3.65,3.65,0,0,0-5.73,0,6.28,6.28,0,0,0-1,3.78,6.39,6.39,0,0,0,1,3.82,3.62,3.62,0,0,0,5.73,0A6.39,6.39,0,0,0,254.44,73.43Z" />
   <path class="d" d="M267.39,65a9.23,9.23,0,0,1,3.09.46,5,5,0,0,1,2,1.29,4.77,4.77,0,0,1,1.07,2,9.62,9.62,0,0,1,.32,2.59v9.7c-.57.12-1.43.27-2.58.44a27,27,0,0,1-3.9.26,12,12,0,0,1-2.64-.27,5.62,5.62,0,0,1-2-.89A4.27,4.27,0,0,1,261.4,79a5.64,5.64,0,0,1-.47-2.42,4.78,4.78,0,0,1,.53-2.33,4.48,4.48,0,0,1,1.46-1.54,6.38,6.38,0,0,1,2.12-.86,12.26,12.26,0,0,1,2.53-.26,11.42,11.42,0,0,1,1.28.08,12.25,12.25,0,0,1,1.44.26v-.61a4.93,4.93,0,0,0-.15-1.23,2.45,2.45,0,0,0-.54-1,2.39,2.39,0,0,0-1-.69,4.37,4.37,0,0,0-1.57-.25,14.28,14.28,0,0,0-2.36.19,9.58,9.58,0,0,0-1.74.43l-.46-3a13.23,13.23,0,0,1,2.05-.49A15.52,15.52,0,0,1,267.39,65Zm.3,13.8a14,14,0,0,0,2.6-.18v-4.1a8.82,8.82,0,0,0-2.17-.28,7.49,7.49,0,0,0-1.24.1,3.83,3.83,0,0,0-1.13.33,2.11,2.11,0,0,0-.81.69,1.9,1.9,0,0,0-.31,1.12,2,2,0,0,0,.83,1.82A4.21,4.21,0,0,0,267.69,78.84Z" />
   <path class="d" d="M287.52,68.78a10,10,0,0,0-1.27-.32,8.8,8.8,0,0,0-1.88-.17,7.57,7.57,0,0,0-1.3.12,8.39,8.39,0,0,0-1,.21V81.44h-3.7V66.21a19.31,19.31,0,0,1,2.68-.75,16.31,16.31,0,0,1,3.56-.36c.25,0,.53,0,.86.05s.65.07,1,.12a9.39,9.39,0,0,1,.95.19c.3.07.55.13.73.19Z" />
   <path class="d" d="M304.26,81a24.44,24.44,0,0,1-2.77.61,21.88,21.88,0,0,1-3.5.27,9.29,9.29,0,0,1-3.4-.58A7.11,7.11,0,0,1,292,79.59,7.39,7.39,0,0,1,290.41,77a10,10,0,0,1-.56-3.47,11.54,11.54,0,0,1,.47-3.44,7.6,7.6,0,0,1,1.39-2.65A6.15,6.15,0,0,1,294,65.7a7.19,7.19,0,0,1,3-.6,7.11,7.11,0,0,1,2,.28,9.36,9.36,0,0,1,1.53.61V58.31l3.7-.61ZM293.64,73.4a5.85,5.85,0,0,0,1.16,3.84A4,4,0,0,0,298,78.63a12.86,12.86,0,0,0,1.51-.08,8.15,8.15,0,0,0,1-.17V69.2a5.86,5.86,0,0,0-1.3-.62,5,5,0,0,0-1.73-.29,3.34,3.34,0,0,0-3,1.37A6.61,6.61,0,0,0,293.64,73.4Z" />
   <path class="k" d="M119.75,347.46V243.36H356v104.1H119.75Zm.71-103.39v10.78h11.07V244.07Zm11.77,0v10.78H143.3V244.07Zm11.78,0v10.78h11.07V244.07Zm11.78,0v10.78h11.07V244.07Zm11.78,0v10.78h11.07V244.07Zm11.78,0v10.78h11.07V244.07Zm11.78,0v10.78H202.2V244.07Zm11.78,0v10.78H214V244.07Zm11.78,0v10.78h11.06V244.07Zm11.78,0v10.78h11.07V244.07Zm11.78,0v10.78h11.07V244.07Zm11.78,0v10.78H261.1V244.07Zm11.77,0v10.78h11.07V244.07Zm11.78,0v10.78h11.08V244.07Zm11.78,0v10.78h11.07V244.07Zm11.78,0v10.78h11.07V244.07Zm11.78,0v10.78H320V244.07Zm11.78,0v10.78h11.07V244.07Zm11.78,0v10.78h11.07V244.07Zm11.78,0v10.78h11.07V244.07Zm-223.8,11.48v10.79h11.07V255.55Zm11.77,0v10.79H143.3V255.55Zm11.78,0v10.79h11.07V255.55Zm11.78,0v10.79h11.07V255.55Zm11.78,0v10.79h11.07V255.55Zm11.78,0v10.79h11.07V255.55Zm11.78,0v10.79H202.2V255.55Zm11.78,0v10.79H214V255.55Zm11.78,0v10.79h11.06V255.55Zm11.78,0v10.79h11.07V255.55Zm11.78,0v10.79h11.07V255.55Zm11.78,0v10.79H261.1V255.55Zm11.77,0v10.79h11.07V255.55Zm11.78,0v10.79h11.08V255.55Zm11.78,0v10.79h11.07V255.55Zm11.78,0v10.79h11.07V255.55Zm11.78,0v10.79H320V255.55Zm11.78,0v10.79h11.07V255.55Zm11.78,0v10.79h11.07V255.55Zm11.78,0v10.79h11.07V255.55ZM120.46,267v10.78h11.07V267Zm11.77,0v10.78H143.3V267ZM144,267v10.78h11.07V267Zm11.78,0v10.78h11.07V267Zm11.78,0v10.78h11.07V267Zm11.78,0v10.78h11.07V267Zm11.78,0v10.78H202.2V267Zm11.78,0v10.78H214V267Zm11.78,0v10.78h11.06V267Zm11.78,0v10.78h11.07V267Zm11.78,0v10.78h11.07V267ZM250,267v10.78H261.1V267Zm11.77,0v10.78h11.07V267Zm11.78,0v10.78h11.08V267Zm11.78,0v10.78h11.07V267Zm11.78,0v10.78h11.07V267Zm11.78,0v10.78H320V267Zm11.78,0v10.78h11.07V267Zm11.78,0v10.78h11.07V267Zm11.78,0v10.78h11.07V267Zm-223.8,11.49v10.79h11.07V278.53Zm11.77,0v10.79H143.3V278.53Zm11.78,0v10.79h11.07V278.53Zm11.78,0v10.79h11.07V278.53Zm11.78,0v10.79h11.07V278.53Zm11.78,0v10.79h11.07V278.53Zm11.78,0v10.79H202.2V278.53Zm11.78,0v10.79H214V278.53Zm11.78,0v10.79h11.06V278.53Zm11.78,0v10.79h11.07V278.53Zm11.78,0v10.79h11.07V278.53Zm11.78,0v10.79H261.1V278.53Zm11.77,0v10.79h11.07V278.53Zm11.78,0v10.79h11.08V278.53Zm11.78,0v10.79h11.07V278.53Zm11.78,0v10.79h11.07V278.53Zm11.78,0v10.79H320V278.53Zm11.78,0v10.79h11.07V278.53Zm11.78,0v10.79h11.07V278.53Zm11.78,0v10.79h11.07V278.53ZM120.46,290v10.79h11.07V290Zm11.77,0v10.79H143.3V290ZM144,290v10.79h11.07V290Zm11.78,0v10.79h11.07V290Zm11.78,0v10.79h11.07V290Zm11.78,0v10.79h11.07V290Zm11.78,0v10.79H202.2V290Zm11.78,0v10.79H214V290Zm11.78,0v10.79h11.06V290Zm11.78,0v10.79h11.07V290Zm11.78,0v10.79h11.07V290ZM250,290v10.79H261.1V290Zm11.77,0v10.79h11.07V290Zm11.78,0v10.79h11.08V290Zm11.78,0v10.79h11.07V290Zm11.78,0v10.79h11.07V290Zm11.78,0v10.79H320V290Zm11.78,0v10.79h11.07V290Zm11.78,0v10.79h11.07V290Zm11.78,0v10.79h11.07V290Zm-223.8,11.49v10.78h11.07V301.51Zm11.77,0v10.78H143.3V301.51Zm11.78,0v10.78h11.07V301.51Zm11.78,0v10.78h11.07V301.51Zm11.78,0v10.78h11.07V301.51Zm11.78,0v10.78h11.07V301.51Zm11.78,0v10.78H202.2V301.51Zm11.78,0v10.78H214V301.51Zm11.78,0v10.78h11.06V301.51Zm11.78,0v10.78h11.07V301.51Zm11.78,0v10.78h11.07V301.51Zm11.78,0v10.78H261.1V301.51Zm11.77,0v10.78h11.07V301.51Zm11.78,0v10.78h11.08V301.51Zm11.78,0v10.78h11.07V301.51Zm11.78,0v10.78h11.07V301.51Zm11.78,0v10.78H320V301.51Zm11.78,0v10.78h11.07V301.51Zm11.78,0v10.78h11.07V301.51Zm11.78,0v10.78h11.07V301.51ZM120.46,313v10.78h11.07V313Zm11.77,0v10.78H143.3V313ZM144,313v10.78h11.07V313Zm11.78,0v10.78h11.07V313Zm11.78,0v10.78h11.07V313Zm11.78,0v10.78h11.07V313Zm11.78,0v10.78H202.2V313Zm11.78,0v10.78H214V313Zm11.78,0v10.78h11.06V313Zm11.78,0v10.78h11.07V313Zm11.78,0v10.78h11.07V313ZM250,313v10.78H261.1V313Zm11.77,0v10.78h11.07V313Zm11.78,0v10.78h11.08V313Zm11.78,0v10.78h11.07V313Zm11.78,0v10.78h11.07V313Zm11.78,0v10.78H320V313Zm11.78,0v10.78h11.07V313Zm11.78,0v10.78h11.07V313Zm11.78,0v10.78h11.07V313Zm-223.8,11.49v10.78h11.07V324.49Zm11.77,0v10.78H143.3V324.49Zm11.78,0v10.78h11.07V324.49Zm11.78,0v10.78h11.07V324.49Zm11.78,0v10.78h11.07V324.49Zm11.78,0v10.78h11.07V324.49Zm11.78,0v10.78H202.2V324.49Zm11.78,0v10.78H214V324.49Zm11.78,0v10.78h11.06V324.49Zm11.78,0v10.78h11.07V324.49Zm11.78,0v10.78h11.07V324.49Zm11.78,0v10.78H261.1V324.49Zm11.77,0v10.78h11.07V324.49Zm11.78,0v10.78h11.08V324.49Zm11.78,0v10.78h11.07V324.49Zm11.78,0v10.78h11.07V324.49Zm11.78,0v10.78H320V324.49Zm11.78,0v10.78h11.07V324.49Zm11.78,0v10.78h11.07V324.49Zm11.78,0v10.78h11.07V324.49ZM120.46,336v10.78h11.07V336Zm11.77,0v10.78H143.3V336ZM144,336v10.78h11.07V336Zm11.78,0v10.78h11.07V336Zm11.78,0v10.78h11.07V336Zm11.78,0v10.78h11.07V336Zm11.78,0v10.78H202.2V336Zm11.78,0v10.78H214V336Zm11.78,0v10.78h11.06V336Zm11.78,0v10.78h11.07V336Zm11.78,0v10.78h11.07V336ZM250,336v10.78H261.1V336Zm11.77,0v10.78h11.07V336Zm11.78,0v10.78h11.08V336Zm11.78,0v10.78h11.07V336Zm11.78,0v10.78h11.07V336Zm11.78,0v10.78H320V336Zm11.78,0v10.78h11.07V336Zm11.78,0v10.78h11.07V336Zm11.78,0v10.78h11.07V336Z" />
   <rect class="d" x="120.3" y="346.47" width="242.24" height="1.25" />
   <rect class="d" x="131.52" y="347.05" width="1.3" height="4.31" />
   <rect class="d" x="142.76" y="347.05" width="1.28" height="4.31" />
   <rect class="d" x="154.68" y="347.05" width="1.28" height="4.31" />
   <rect class="d" x="166.59" y="347.05" width="1.28" height="4.31" />
   <rect class="d" x="178.43" y="347.05" width="1.29" height="4.31" />
   <rect class="d" x="189.71" y="347.05" width="1.28" height="4.31" />
   <rect class="d" x="201.62" y="347.05" width="1.28" height="4.31" />
   <rect class="d" x="213.54" y="347.05" width="1.28" height="4.31" />
   <rect class="d" x="225.45" y="347.05" width="1.28" height="4.31" />
   <rect class="d" x="237.05" y="347.05" width="1.29" height="4.31" />
   <rect class="d" x="248.97" y="347.05" width="1.29" height="4.31" />
   <rect class="d" x="260.88" y="347.05" width="1.29" height="4.31" />
   <rect class="d" x="272.8" y="347.05" width="1.29" height="4.31" />
   <rect class="d" x="284.19" y="347.05" width="1.28" height="4.31" />
   <rect class="d" x="296.1" y="347.05" width="1.28" height="4.31" />
   <rect class="d" x="308.02" y="347.05" width="1.28" height="4.31" />
   <rect class="d" x="319.93" y="347.05" width="1.28" height="4.31" />
   <rect class="d" x="331.62" y="347.05" width="1.29" height="4.31" />
   <rect class="d" x="343.19" y="347.05" width="1.28" height="4.31" />
   <rect class="d" x="355.1" y="347.05" width="1.29" height="4.31" />
   <rect class="d" x="115.24" y="335.58" width="4.44" height="1.24" />
   <rect class="d" x="115.24" y="324.04" width="4.44" height="1.24" />
   <rect class="d" x="115.24" y="312.49" width="4.44" height="1.24" />
   <rect class="d" x="115.24" y="300.94" width="4.44" height="1.25" />
   <rect class="d" x="115.24" y="289.38" width="4.44" height="1.25" />
   <rect class="d" x="115.24" y="277.85" width="4.44" height="1.23" />
   <rect class="d" x="115.24" y="266.3" width="4.44" height="1.25" />
   <rect class="d" x="115.24" y="254.74" width="4.44" height="1.25" />
   <rect class="d" x="115.24" y="243.21" width="4.44" height="1.23" />
   <rect class="d" x="119.37" y="237.39" width="1.29" height="110.17" />
   <path class="f" d="M343.55,252a3.52,3.52,0,0,0-3.52,3.52,3.7,3.7,0,0,0,.05.59l-63.74,25.45a3.46,3.46,0,0,0-2.62-1.19,3.46,3.46,0,0,0-3.46,4.1l-30.15,17.82a3.45,3.45,0,0,0-2.22-.81,3.53,3.53,0,0,0-3.38,2.58l-40.91,1.19a3.52,3.52,0,0,0-6.7,1.48l-28.84,12a3.51,3.51,0,0,0-6.21,1.62l-17.21,2a3.53,3.53,0,1,0,.38,2l17.07-2a3.52,3.52,0,0,0,6.75-1.41c0-.12,0-.23,0-.34l28.65-11.93a3.51,3.51,0,0,0,6.44-1.42l40.65-1.18a3.51,3.51,0,0,0,6.87-1.06,3.61,3.61,0,0,0-.18-1l29.89-17.68a3.52,3.52,0,0,0,6.12-2.37,3.07,3.07,0,0,0-.06-.53L341,257.94a3.52,3.52,0,1,0,2.58-5.91Z" />
   <path class="e" d="M343.55,286.14a3.52,3.52,0,0,0-3.52,3.53,3.42,3.42,0,0,0,.52,1.82l-41.23,30.16a3.49,3.49,0,0,0-2.58-1.14A3.58,3.58,0,0,0,295,321l-18.16-17.71a3.42,3.42,0,0,0,.42-1.62,3.53,3.53,0,1,0-7.05,0,2.33,2.33,0,0,0,0,.37l-41.18,20.08a3.48,3.48,0,0,0-4.72-.42L182.43,291a3.39,3.39,0,0,0,.17-1,3.53,3.53,0,1,0-6.54,1.81l-20.46,20-19.9-9.7a3.68,3.68,0,0,0,.06-.58,3.53,3.53,0,1,0-3.53,3.52,3.47,3.47,0,0,0,2.59-1.15L156,314.21l21.55-21a3.44,3.44,0,0,0,1.53.36,3.5,3.5,0,0,0,2.26-.83l41.83,30.6a3.52,3.52,0,1,0,6.83,1.18,3.68,3.68,0,0,0-.05-.58l41.07-20a3.47,3.47,0,0,0,2.71,1.3,3.56,3.56,0,0,0,1.72-.46l18.17,17.72a3.57,3.57,0,0,0-.39,1.6,3.52,3.52,0,0,0,7,0,3.43,3.43,0,0,0-.05-.56l41.86-30.62a3.64,3.64,0,0,0,1.48.33,3.53,3.53,0,0,0,0-7.05Z" />
   <path class="h" d="M343.83,240.3a3.53,3.53,0,0,0-3.44,2.77H300a3.52,3.52,0,0,0-6.77,1.37,3.47,3.47,0,0,0,.42,1.64l-30.13,29.39a3.41,3.41,0,0,0-3.42,0l-18.88-18.42a3.72,3.72,0,0,0,.21-1.16,3.53,3.53,0,1,0-6.63,1.64L204.63,287a3.38,3.38,0,0,0-3.44,0l-30.65-29.89a3.52,3.52,0,1,0-6.83-1.17,3.39,3.39,0,0,0,.42,1.62L134,286.85a3.49,3.49,0,0,0-2.51-1.06,3.53,3.53,0,1,0,3.52,3.53,3,3,0,0,0-.06-.6L165.52,259a3.45,3.45,0,0,0,3.83-.26l30.45,29.69a3.46,3.46,0,0,0-.42,1.63,3.53,3.53,0,0,0,7.05,0,3.58,3.58,0,0,0-.41-1.63L236.19,259a3.46,3.46,0,0,0,3.83-.28L258.7,276.9a3.46,3.46,0,0,0-.42,1.63,3.53,3.53,0,1,0,7.05,0,3.46,3.46,0,0,0-.42-1.63L295,247.51a3.48,3.48,0,0,0,5.16-2.44h40.34a3.52,3.52,0,1,0,3.29-4.77Z" />
   <path class="i" d="M133.49,363.36a4.28,4.28,0,0,1-1.39,2.54l-2.41,2.56h4.25v.85h-5.4v-.74l2.94-3.2a3.21,3.21,0,0,0,1.08-1.89c0-.76-.58-1.22-1.57-1.22a3.23,3.23,0,0,0-2.14,1l-.4-.72a4.08,4.08,0,0,1,2.65-1.08C132.55,361.43,133.49,362.18,133.49,363.36Z" />
   <path class="i" d="M141.59,365.38c0,2.54-1.15,3.95-3.24,3.95s-3.24-1.41-3.24-3.95,1.16-3.94,3.24-3.94S141.59,362.85,141.59,365.38Zm-5.57,0c0,2.13.81,3.19,2.33,3.19s2.34-1.06,2.34-3.19-.81-3.18-2.34-3.18S136,363.25,136,365.38Z" />
   <path class="i" d="M144,369.31v-7h-1.6v-.85h2.48v7.85Z" />
   <path class="i" d="M152.39,362l-.36.72a3.69,3.69,0,0,0-1.81-.49c-1.68,0-2.52,1.38-2.4,3.5a2.55,2.55,0,0,1,4.84,1,2.46,2.46,0,0,1-2.66,2.61c-1.91,0-3.06-1.38-3.06-3.81s1.23-4.12,3.23-4.12A5.1,5.1,0,0,1,152.39,362ZM148,366.81a1.75,1.75,0,0,0,1.9,1.72,1.72,1.72,0,0,0,1.87-1.79,1.62,1.62,0,0,0-1.8-1.69A1.79,1.79,0,0,0,148,366.81Z" />
   <path class="i" d="M321.31,363.36a4.28,4.28,0,0,1-1.39,2.54l-2.42,2.56h4.26v.85h-5.4v-.74l2.94-3.2a3.21,3.21,0,0,0,1.08-1.89c0-.76-.59-1.22-1.57-1.22a3.28,3.28,0,0,0-2.15,1l-.39-.72a4.06,4.06,0,0,1,2.65-1.08C320.36,361.43,321.31,362.18,321.31,363.36Z" />
   <path class="i" d="M329.41,365.38c0,2.54-1.15,3.95-3.24,3.95s-3.24-1.41-3.24-3.95,1.15-3.94,3.24-3.94S329.41,362.85,329.41,365.38Zm-5.57,0c0,2.13.81,3.19,2.33,3.19s2.33-1.06,2.33-3.19-.8-3.18-2.33-3.18S323.84,363.25,323.84,365.38Z" />
   <path class="i" d="M331.78,369.31v-7h-1.59v-.85h2.48v7.85Z" />
   <path class="i" d="M340.14,363.4a1.81,1.81,0,0,1-1.28,1.72,2.05,2.05,0,0,1,1.65,2c0,1.4-1.11,2.25-2.88,2.25s-2.91-.85-2.91-2.23a2.08,2.08,0,0,1,1.69-2,1.86,1.86,0,0,1-1.31-1.74c0-1.22,1-1.95,2.51-1.95S340.14,362.17,340.14,363.4ZM335.57,367c0,1,.77,1.56,2.06,1.56s2-.57,2-1.56-.77-1.49-2.06-1.49S335.57,366.1,335.57,367Zm.31-3.57c0,.84.65,1.33,1.75,1.33s1.73-.49,1.73-1.33-.65-1.34-1.73-1.34S335.88,362.62,335.88,363.46Z" />
   <path class="i" d="M228.43,363.36A4.28,4.28,0,0,1,227,365.9l-2.41,2.56h4.25v.85h-5.4v-.74l2.94-3.2a3.21,3.21,0,0,0,1.08-1.89c0-.76-.58-1.22-1.57-1.22a3.25,3.25,0,0,0-2.14,1l-.4-.72a4.08,4.08,0,0,1,2.65-1.08C227.49,361.43,228.43,362.18,228.43,363.36Z" />
   <path class="i" d="M236.53,365.38c0,2.54-1.15,3.95-3.24,3.95s-3.24-1.41-3.24-3.95,1.16-3.94,3.24-3.94S236.53,362.85,236.53,365.38Zm-5.57,0c0,2.13.81,3.19,2.33,3.19s2.34-1.06,2.34-3.19-.81-3.18-2.34-3.18S231,363.25,231,365.38Z" />
   <path class="i" d="M238.91,369.31v-7h-1.6v-.85h2.48v7.85Z" />
   <path class="i" d="M243.91,369.31h-1l3.23-7h-3.65v1.15h-.81v-2h5.45v.75Z" />
   <path class="i" d="M89.3,327.56v-7H87.7v-.85h2.48v7.85Z" />
   <path class="i" d="M98.75,323.63c0,2.54-1.16,3.95-3.24,3.95s-3.24-1.41-3.24-3.95,1.15-3.94,3.24-3.94S98.75,321.1,98.75,323.63Zm-5.58,0c0,2.12.81,3.19,2.34,3.19s2.33-1.07,2.33-3.19-.81-3.18-2.33-3.18S93.17,321.5,93.17,323.63Z" />
   <path class="i" d="M106.41,323.63c0,2.54-1.15,3.95-3.24,3.95s-3.24-1.41-3.24-3.95,1.16-3.94,3.24-3.94S106.41,321.1,106.41,323.63Zm-5.57,0c0,2.12.81,3.19,2.33,3.19s2.34-1.07,2.34-3.19-.81-3.18-2.34-3.18S100.84,321.5,100.84,323.63Z" />
   <path class="i" d="M83.35,259.41v-7h-1.6v-.85h2.48v7.85Z" />
   <path class="i" d="M92.8,255.49c0,2.53-1.16,3.94-3.24,3.94s-3.25-1.41-3.25-3.94,1.16-4,3.25-4S92.8,253,92.8,255.49Zm-5.58,0c0,2.12.81,3.18,2.34,3.18s2.33-1.06,2.33-3.18-.81-3.19-2.33-3.19S87.22,253.36,87.22,255.49Z" />
   <path class="i" d="M100.46,255.49c0,2.53-1.15,3.94-3.24,3.94S94,258,94,255.49s1.16-4,3.24-4S100.46,253,100.46,255.49Zm-5.57,0c0,2.12.81,3.18,2.33,3.18s2.34-1.06,2.34-3.18-.81-3.19-2.34-3.19S94.89,253.36,94.89,255.49Z" />
   <path class="i" d="M108.13,255.49c0,2.53-1.15,3.94-3.24,3.94s-3.24-1.41-3.24-3.94,1.15-4,3.24-4S108.13,253,108.13,255.49Zm-5.57,0c0,2.12.8,3.18,2.33,3.18s2.33-1.06,2.33-3.18-.81-3.19-2.33-3.19S102.56,253.36,102.56,255.49Z" />
   <path class="d" d="M140.68,393.53V395h-2.34v6.28h-1.75V395h-2.34v-1.49Z" />
   <path class="d" d="M143.52,393.7a.89.89,0,0,1-.3.72,1.07,1.07,0,0,1-1.4,0,1,1,0,0,1,0-1.44,1,1,0,0,1,1.4,0A.89.89,0,0,1,143.52,393.7Zm-.16,7.6h-1.67v-5.9h1.67Z" />
   <path class="d" d="M144.88,393.93l1.66-.26v1.73h2v1.39h-2v2.08a1.68,1.68,0,0,0,.19.84.79.79,0,0,0,.75.31,3.62,3.62,0,0,0,.55,0,2.63,2.63,0,0,0,.52-.14l.24,1.3a5.46,5.46,0,0,1-.68.21,3.85,3.85,0,0,1-.9.09,3.1,3.1,0,0,1-1.14-.18,1.8,1.8,0,0,1-1.09-1.32,4.77,4.77,0,0,1-.1-1Z" />
   <path class="d" d="M152.26,401.41a4.15,4.15,0,0,1-1.18-.16,1.68,1.68,0,0,1-.72-.41,1.41,1.41,0,0,1-.36-.63,3.7,3.7,0,0,1-.09-.85v-6.49l1.67-.27V399a2.54,2.54,0,0,0,0,.41.69.69,0,0,0,.13.3.71.71,0,0,0,.27.2,1.45,1.45,0,0,0,.49.1Z" />
   <path class="d" d="M153.17,398.39a3.61,3.61,0,0,1,.24-1.37,3,3,0,0,1,.63-1,2.8,2.8,0,0,1,2-.79,2.62,2.62,0,0,1,2,.76,3.2,3.2,0,0,1,.73,2.26c0,.1,0,.21,0,.32s0,.22,0,.31h-3.79a1.12,1.12,0,0,0,.49.82,1.93,1.93,0,0,0,1.14.3,5.29,5.29,0,0,0,.9-.08,3.52,3.52,0,0,0,.72-.21l.23,1.36a2.37,2.37,0,0,1-.36.13l-.5.12-.59.08c-.21,0-.42,0-.62,0a3.64,3.64,0,0,1-1.39-.24,2.69,2.69,0,0,1-1-.64,2.73,2.73,0,0,1-.58-1A4,4,0,0,1,153.17,398.39Zm3.92-.63a1.94,1.94,0,0,0-.07-.42,1,1,0,0,0-.19-.36,1.23,1.23,0,0,0-.33-.26,1.14,1.14,0,0,0-.48-.1,1.22,1.22,0,0,0-.49.1,1,1,0,0,0-.33.25,1.23,1.23,0,0,0-.21.37,2.58,2.58,0,0,0-.11.42Z" />
   <path class="d" d="M162.69,395.14l.67-.3c.24-.12.47-.25.69-.38s.44-.29.65-.44a5.31,5.31,0,0,0,.55-.49h1.17v7.77h-1.67v-5.59a6.61,6.61,0,0,1-.75.4,8.47,8.47,0,0,1-.81.32Z" />
   <path class="a" d="M218,393.53V395h-2.34v6.28h-1.75V395h-2.34v-1.49Z" />
   <path class="a" d="M220.8,393.7a.89.89,0,0,1-.3.72,1,1,0,0,1-.7.26,1,1,0,0,1-.7-.26,1,1,0,0,1,0-1.44,1,1,0,0,1,.7-.27,1,1,0,0,1,.7.27A.89.89,0,0,1,220.8,393.7Zm-.16,7.6H219v-5.9h1.67Z" />
   <path class="a" d="M222.16,393.93l1.67-.26v1.73h2v1.39h-2v2.08a1.69,1.69,0,0,0,.18.84.79.79,0,0,0,.75.31,3.51,3.51,0,0,0,.55,0,2.46,2.46,0,0,0,.52-.14l.24,1.3a5.29,5.29,0,0,1-.67.21,3.94,3.94,0,0,1-.91.09,3,3,0,0,1-1.13-.18,1.86,1.86,0,0,1-.72-.52,1.92,1.92,0,0,1-.38-.8,4.77,4.77,0,0,1-.1-1Z" />
   <path class="a" d="M229.54,401.41a4.15,4.15,0,0,1-1.18-.16,1.68,1.68,0,0,1-.72-.41,1.41,1.41,0,0,1-.36-.63,3.7,3.7,0,0,1-.09-.85v-6.49l1.67-.27V399a2.54,2.54,0,0,0,0,.41.83.83,0,0,0,.13.3.67.67,0,0,0,.28.2,1.44,1.44,0,0,0,.48.1Z" />
   <path class="a" d="M230.45,398.39a3.61,3.61,0,0,1,.24-1.37,2.83,2.83,0,0,1,.64-1,2.56,2.56,0,0,1,.9-.59,2.72,2.72,0,0,1,1.05-.2,2.61,2.61,0,0,1,2,.76,3.2,3.2,0,0,1,.73,2.26c0,.1,0,.21,0,.32s0,.22,0,.31h-3.78a1.08,1.08,0,0,0,.48.82,1.93,1.93,0,0,0,1.14.3,5.29,5.29,0,0,0,.9-.08,3.85,3.85,0,0,0,.73-.21l.22,1.36a2.37,2.37,0,0,1-.36.13l-.5.12-.59.08c-.21,0-.41,0-.62,0a3.68,3.68,0,0,1-1.39-.24,2.69,2.69,0,0,1-1-.64,2.57,2.57,0,0,1-.57-1A3.71,3.71,0,0,1,230.45,398.39Zm3.92-.63a1.48,1.48,0,0,0-.07-.42,1,1,0,0,0-.19-.36,1.18,1.18,0,0,0-.32-.26,1.22,1.22,0,0,0-.49-.1,1.14,1.14,0,0,0-.48.1,1,1,0,0,0-.34.25,1.23,1.23,0,0,0-.21.37,1.84,1.84,0,0,0-.1.42Z" />
   <path class="a" d="M244.74,395.57a2,2,0,0,1-.17.82,3.87,3.87,0,0,1-.43.76,6.5,6.5,0,0,1-.61.7l-.66.63-.36.36a4.75,4.75,0,0,0-.38.4l-.32.37a.92.92,0,0,0-.17.29H245v1.4H239.8a1.47,1.47,0,0,1,0-.32v-.26a2.64,2.64,0,0,1,.17-1,4.23,4.23,0,0,1,.45-.84,5.41,5.41,0,0,1,.64-.72l.7-.67.5-.49a4.32,4.32,0,0,0,.42-.45,2.1,2.1,0,0,0,.28-.43,1.22,1.22,0,0,0,.1-.45.8.8,0,0,0-.28-.69,1.14,1.14,0,0,0-.7-.2,1.69,1.69,0,0,0-.56.09,2.45,2.45,0,0,0-.49.23,3,3,0,0,0-.37.25l-.24.21-.83-1.17a4.57,4.57,0,0,1,1.15-.75,3.37,3.37,0,0,1,1.41-.3,3.74,3.74,0,0,1,1.18.16,2.1,2.1,0,0,1,.81.44,1.7,1.7,0,0,1,.47.7A2.65,2.65,0,0,1,244.74,395.57Z" />
   <path class="b" d="M292.56,393.53V395h-2.35v6.28h-1.75V395h-2.34v-1.49Z" />
   <path class="b" d="M295.39,393.7a.89.89,0,0,1-.3.72,1,1,0,0,1-.7.26,1,1,0,0,1-.7-.26,1,1,0,0,1,0-1.44,1,1,0,0,1,.7-.27,1,1,0,0,1,.7.27A.89.89,0,0,1,295.39,393.7Zm-.16,7.6h-1.67v-5.9h1.67Z" />
   <path class="b" d="M296.75,393.93l1.67-.26v1.73h2v1.39h-2v2.08a1.69,1.69,0,0,0,.18.84.8.8,0,0,0,.75.31,3.51,3.51,0,0,0,.55,0,2.46,2.46,0,0,0,.52-.14l.24,1.3a5.29,5.29,0,0,1-.67.21,3.94,3.94,0,0,1-.91.09,3,3,0,0,1-1.13-.18,1.86,1.86,0,0,1-.72-.52,1.92,1.92,0,0,1-.38-.8,4.77,4.77,0,0,1-.1-1Z" />
   <path class="b" d="M304.13,401.41a4.15,4.15,0,0,1-1.18-.16,1.68,1.68,0,0,1-.72-.41,1.31,1.31,0,0,1-.35-.63,3.2,3.2,0,0,1-.1-.85v-6.49l1.67-.27V399a2.54,2.54,0,0,0,0,.41.83.83,0,0,0,.13.3.75.75,0,0,0,.28.2,1.44,1.44,0,0,0,.48.1Z" />
   <path class="b" d="M305,398.39a3.61,3.61,0,0,1,.24-1.37,2.83,2.83,0,0,1,.64-1,2.56,2.56,0,0,1,.9-.59,2.72,2.72,0,0,1,1.05-.2,2.61,2.61,0,0,1,2,.76,3.15,3.15,0,0,1,.73,2.26c0,.1,0,.21,0,.32s0,.22,0,.31h-3.79a1.08,1.08,0,0,0,.48.82,1.93,1.93,0,0,0,1.14.3,5.29,5.29,0,0,0,.9-.08,3.85,3.85,0,0,0,.73-.21l.22,1.36a2.37,2.37,0,0,1-.36.13l-.5.12-.58.08c-.21,0-.42,0-.63,0a3.71,3.71,0,0,1-1.39-.24,2.78,2.78,0,0,1-1-.64,2.57,2.57,0,0,1-.57-1A3.71,3.71,0,0,1,305,398.39Zm3.92-.63a1.48,1.48,0,0,0-.07-.42,1,1,0,0,0-.51-.62,1.19,1.19,0,0,0-.49-.1,1.14,1.14,0,0,0-.48.1,1,1,0,0,0-.34.25,1.23,1.23,0,0,0-.21.37,1.84,1.84,0,0,0-.1.42Z" />
   <path class="b" d="M316.33,401.47c-.2,0-.42,0-.64,0s-.44-.06-.65-.11-.4-.09-.57-.14l-.41-.15.33-1.39a7,7,0,0,0,.75.26,3.6,3.6,0,0,0,1.12.14,1.74,1.74,0,0,0,1.13-.29.94.94,0,0,0,.36-.78.88.88,0,0,0-.13-.51,1,1,0,0,0-.35-.34,1.44,1.44,0,0,0-.53-.18,4.65,4.65,0,0,0-.66-.05h-.65v-1.34h.74a2.44,2.44,0,0,0,.48-.05,1.34,1.34,0,0,0,.41-.15.78.78,0,0,0,.28-.29,1,1,0,0,0,.11-.47.75.75,0,0,0-.09-.37.79.79,0,0,0-.23-.25,1.07,1.07,0,0,0-.32-.16,1.65,1.65,0,0,0-.38-.05,2.56,2.56,0,0,0-.89.15,4.33,4.33,0,0,0-.75.36l-.59-1.22a3.92,3.92,0,0,1,.42-.24,3.67,3.67,0,0,1,.53-.22,4,4,0,0,1,.62-.17,3.2,3.2,0,0,1,.7-.07,4.18,4.18,0,0,1,1.19.16,2.25,2.25,0,0,1,.82.46,1.76,1.76,0,0,1,.48.7,2.2,2.2,0,0,1,.16.86,1.82,1.82,0,0,1-.95,1.55,2,2,0,0,1,.93.73,2.07,2.07,0,0,1,.33,1.18,2.68,2.68,0,0,1-.18,1,2,2,0,0,1-.56.78,2.43,2.43,0,0,1-1,.52A4.72,4.72,0,0,1,316.33,401.47Z" />
   <circle class="j" cx="773.76" cy="231.15" r="174.39" transform="translate(63.18 614.83) rotate(-45)" />
   <path class="i" d="M626.86,121.82l-10-7.69,4.64-6,1.2.92-3.56,4.65,3,2.32,3.16-4.13,1.19.91-3.16,4.13,4.62,3.54Z" />
   <path class="i" d="M632.79,106.08c.31,0,.71,0,1.2.07s1,.08,1.6.16,1.16.16,1.76.27A14,14,0,0,1,639,107l-1.26,1.47c-.51-.12-1-.22-1.58-.32s-1.08-.17-1.6-.23-1-.1-1.49-.13l-1.25-.06a3.57,3.57,0,0,1-.3.38l-.33.38-1,1.2,3.74,3.23-1.15,1.34-9.45-8.13a10.85,10.85,0,0,1,.91-1.43q.56-.73,1-1.32a6.91,6.91,0,0,1,3.41-2.42,3.45,3.45,0,0,1,3.18.89,3.49,3.49,0,0,1,1.2,1.92A3.94,3.94,0,0,1,632.79,106.08Zm-6.25-1.84c-.49.57-.85,1-1.09,1.35l3.61,3.11.82-1a14.11,14.11,0,0,0,1-1.31,3.64,3.64,0,0,0,.54-1.16,1.87,1.87,0,0,0,0-1,2.45,2.45,0,0,0-.76-1,2.36,2.36,0,0,0-1.07-.56,2,2,0,0,0-1,.07,3.25,3.25,0,0,0-1,.58A7.69,7.69,0,0,0,626.54,104.24Z" />
   <path class="i" d="M635.17,101.77a7.84,7.84,0,0,1-1.7-2.36,5.88,5.88,0,0,1-.55-2.39,5.36,5.36,0,0,1,.47-2.26,6.61,6.61,0,0,1,1.35-2,6.44,6.44,0,0,1,1.92-1.35,5.51,5.51,0,0,1,2.23-.47,6,6,0,0,1,2.39.52,8.85,8.85,0,0,1,4.08,4,6.05,6.05,0,0,1,.55,2.39,5.33,5.33,0,0,1-.45,2.23,6.3,6.3,0,0,1-1.32,1.94,6.51,6.51,0,0,1-1.95,1.37,5.5,5.5,0,0,1-2.25.5,6.08,6.08,0,0,1-2.4-.52A7.87,7.87,0,0,1,635.17,101.77Zm1.31-1.33a7,7,0,0,0,1.69,1.27,4.81,4.81,0,0,0,1.72.53,3.54,3.54,0,0,0,1.64-.23,4.2,4.2,0,0,0,1.48-1,4.13,4.13,0,0,0,1-1.49,3.64,3.64,0,0,0,.2-1.64,4.67,4.67,0,0,0-.55-1.71,7.21,7.21,0,0,0-1.28-1.68,7.07,7.07,0,0,0-1.69-1.26,4.73,4.73,0,0,0-1.72-.53,3.79,3.79,0,0,0-1.64.21,4.46,4.46,0,0,0-2.44,2.48,3.53,3.53,0,0,0-.21,1.64,4.86,4.86,0,0,0,.55,1.72A7,7,0,0,0,636.48,100.44Z" />
   <path class="i" d="M656.48,90.31c-.5-.17-1.06-.34-1.69-.54s-1.29-.39-2-.57l-2.15-.57-2.15-.51c-.7-.15-1.37-.29-2-.41s-1.21-.22-1.72-.29l6.48,7.44L650,96l-8.31-9.53,1.05-.92c.84.08,1.76.21,2.78.39s2.06.39,3.1.62,2.06.46,3,.72,1.81.49,2.53.72L648,80.94l1.3-1.14,8.31,9.54Z" />
   <path class="i" d="M658.94,72.32l.93,1.22L656.71,76l6.76,8.82-1.41,1.08L655.31,77l-3.16,2.42-.93-1.22Z" />
   <path class="i" d="M668,81.41,660.89,71l6.38-4.34.86,1.25-4.92,3.35,2.11,3.11,4.38-3,.83,1.22-4.37,3,2.46,3.62,5.3-3.6.85,1.25Z" />
   <path class="i" d="M684,71.27l-1.57-.83c-.58-.31-1.2-.61-1.85-.93s-1.32-.63-2-.94-1.36-.61-2-.89-1.3-.54-1.9-.78L673,66.3l5,8.5-1.49.89L670.07,64.8l1.21-.72c.8.24,1.69.54,2.66.9s1.95.76,2.94,1.17,1.93.83,2.84,1.26,1.69.81,2.36,1.17l-4.77-8.06,1.49-.89,6.44,10.89Z" />
   <path class="i" d="M694.27,58.82a7.39,7.39,0,0,1,.82,2.78A5.21,5.21,0,0,1,694.7,64a6,6,0,0,1-1.47,2.06,9.51,9.51,0,0,1-2.37,1.62c-.45.23-1,.47-1.54.7a10,10,0,0,1-1.6.53l-5.48-11a9.79,9.79,0,0,1,1.38-1c.53-.31,1-.58,1.48-.81a9.89,9.89,0,0,1,2.73-.92,6.25,6.25,0,0,1,2.52.06,5.39,5.39,0,0,1,2.19,1.15A7.53,7.53,0,0,1,694.27,58.82Zm-4,7.45a4.91,4.91,0,1,0-4.37-8.75c-.45.22-.79.4-1,.54l-.5.29L688.73,67l.53-.23C689.51,66.66,689.85,66.5,690.3,66.27Z" />
   <path class="i" d="M734.91,67.32l.8-.18.88-.15c.29,0,.59-.09.88-.12a5.86,5.86,0,0,1,.81-.05l2.88,11.84a5.12,5.12,0,0,1-.74.33l-.83.3-.84.26-.79.21a11.88,11.88,0,0,1-2,.32,5.11,5.11,0,0,1-1.74-.14,3,3,0,0,1-1.31-.74,2.81,2.81,0,0,1-.75-1.42,2.74,2.74,0,0,1,.07-1.76,2.94,2.94,0,0,1,1-1.27,3.87,3.87,0,0,1-2-.59,2.9,2.9,0,0,1-1.11-1.78,3.23,3.23,0,0,1,.68-3.09A8,8,0,0,1,734.91,67.32Zm3,5.41-1-4.3-.47.08a4.51,4.51,0,0,0-.54.1l-.72.17a10.61,10.61,0,0,0-1.41.44,4.2,4.2,0,0,0-1.11.64,2.07,2.07,0,0,0-.65.88,2,2,0,0,0,0,1.19,2.08,2.08,0,0,0,.48.95,1.69,1.69,0,0,0,.82.5,3.31,3.31,0,0,0,1.12.11,8.31,8.31,0,0,0,1.36-.22Zm.33,1.37-1.8.44a7.64,7.64,0,0,0-1.17.38,3,3,0,0,0-.91.56,1.9,1.9,0,0,0-.5.76,1.74,1.74,0,0,0,0,1,1.57,1.57,0,0,0,.46.83,1.82,1.82,0,0,0,.82.41,3.48,3.48,0,0,0,1.09.08,7.12,7.12,0,0,0,1.26-.19l1-.27.66-.21Z" />
   <path class="i" d="M718.4,72.23c.36.45.71.9,1,1.35l1,1.35,5.42-1.75.1-3.41,1.74-.56c-.05,1.41-.1,2.72-.16,3.93s-.12,2.35-.19,3.44-.15,2.14-.25,3.15-.21,2-.34,3l-1.54.49c-.69-.73-1.37-1.47-2-2.23s-1.34-1.55-2-2.39-1.42-1.74-2.17-2.68-1.56-2-2.44-3.1Zm3,3.93q1,1.32,2,2.55c.66.82,1.33,1.6,2,2.34.13-1,.22-2,.28-3.08s.1-2.14.13-3.25Z" />
   <path class="i" d="M709.7,75.3a6.41,6.41,0,0,1,2.4-.5,5.2,5.2,0,0,1,2.21.48,5.71,5.71,0,0,1,1.89,1.45,8.46,8.46,0,0,1,1.44,2.44,7.54,7.54,0,0,1,.6,2.78,6,6,0,0,1-.43,2.4,5.31,5.31,0,0,1-1.29,1.89,6.22,6.22,0,0,1-2,1.27,8.93,8.93,0,0,1-1.34.43c-.42.08-.78.14-1.11.17a5.47,5.47,0,0,1-.8,0c-.22,0-.37,0-.46-.05l-.07-1.54a2.53,2.53,0,0,0,.53,0c.22,0,.47,0,.74,0a5.92,5.92,0,0,0,.87-.13,4.67,4.67,0,0,0,.9-.27,4.5,4.5,0,0,0,1.53-1,3.74,3.74,0,0,0,.89-1.44,4.53,4.53,0,0,0,.21-1.79,6.9,6.9,0,0,0-.51-2.06,7.74,7.74,0,0,0-1-1.8,4.58,4.58,0,0,0-1.33-1.18,3.52,3.52,0,0,0-1.6-.45,4.39,4.39,0,0,0-1.85.35,6.56,6.56,0,0,0-1.77,1,7.86,7.86,0,0,0-.94.87l-1-1.18a2.66,2.66,0,0,1,.33-.38,7.34,7.34,0,0,1,.66-.55,10.57,10.57,0,0,1,1-.63A10.18,10.18,0,0,1,709.7,75.3Z" />
   <path class="i" d="M701.1,93.44c.15-.53.33-1.13.53-1.79s.43-1.33.65-2l.7-2.07c.23-.68.46-1.31.67-1.9a17.29,17.29,0,0,1-2.08-.48q-1.12-.33-2.28-.78c-.76-.3-1.5-.63-2.22-1a14.79,14.79,0,0,1-1.89-1.08l1.86-.91a18.17,18.17,0,0,0,1.87,1c.68.31,1.37.58,2.07.83s1.4.44,2.08.61a15,15,0,0,0,1.91.33l-2.62-5.36,1.58-.77,5.52,11.29-1.58.77-2.44-5q-.3.81-.66,1.83c-.23.67-.46,1.34-.68,2s-.43,1.31-.62,1.93-.35,1.14-.47,1.59Z" />
   <path class="i" d="M693.28,83.43l6.29,10.88-6.65,3.84-.75-1.3,5.12-3-1.87-3.24-4.55,2.63L690.13,92l4.56-2.63-2.18-3.77L687,88.8l-.76-1.31Z" />
   <path class="i" d="M676.74,93.82l1.6.73c.6.26,1.23.53,1.9.8l2.06.81c.7.27,1.39.52,2.06.75s1.32.46,1.93.65,1.17.36,1.67.49l-5.52-8.11,1.42-1,7.08,10.39-1.16.78c-.8-.18-1.7-.42-2.69-.72s-2-.62-3-1-2-.7-2.9-1.06-1.73-.7-2.41-1l5.24,7.68-1.43,1-7.07-10.39Z" />
   <path class="i" d="M668.44,108.29a7.34,7.34,0,0,1-1.39-2.53,5.26,5.26,0,0,1-.14-2.45,6,6,0,0,1,1-2.31,9.74,9.74,0,0,1,2-2.09c.4-.31.85-.65,1.35-1a10.29,10.29,0,0,1,1.44-.86l7.67,9.48a9.78,9.78,0,0,1-1.14,1.23q-.66.63-1.26,1.11a10,10,0,0,1-2.44,1.48,6.29,6.29,0,0,1-2.47.47,5.28,5.28,0,0,1-2.37-.65A7.36,7.36,0,0,1,668.44,108.29Zm2.26-8.09a4.88,4.88,0,1,0,6.12,7.56c.38-.31.68-.56.88-.74s.35-.31.42-.39l-6-7.47-.46.33C671.39,99.66,671.08,99.89,670.7,100.2Z" />
   <path class="l" d="M773.76,404.52A173.58,173.58,0,0,1,672.1,371.83a106.46,106.46,0,1,0,203.31,0A173.57,173.57,0,0,1,773.76,404.52Z" />
   <path class="m" d="M773.76,404.52a173.57,173.57,0,0,0,101.65-32.69,106.5,106.5,0,0,0-203.31,0A173.58,173.58,0,0,0,773.76,404.52Z" />
   <path class="d" d="M773.76,440a36.49,36.49,0,1,1,36.48-36.49A36.53,36.53,0,0,1,773.76,440Zm0-71a34.49,34.49,0,1,0,34.48,34.49A34.53,34.53,0,0,0,773.76,369.05Z" />
   <path class="d" d="M758.16,411.58c-.29.08-.61.16-1,.24s-.76.15-1.16.2-.82.11-1.24.14-.82.06-1.2.06a7,7,0,0,1-2.47-.41,5.07,5.07,0,0,1-1.83-1.16,4.9,4.9,0,0,1-1.14-1.83,7.06,7.06,0,0,1-.39-2.42,8.22,8.22,0,0,1,.34-2.46,5.16,5.16,0,0,1,1-1.86,4.12,4.12,0,0,1,1.56-1.17,5.83,5.83,0,0,1,3.3-.28A7.8,7.8,0,0,1,755,401v-5.06l3.17-.51ZM751,406.25a3.91,3.91,0,0,0,.66,2.37,2.3,2.3,0,0,0,2,.89c.29,0,.55,0,.79,0a5.91,5.91,0,0,0,.6-.08v-5.77a2.88,2.88,0,0,0-.78-.31,3.54,3.54,0,0,0-1-.13C751.73,403.19,751,404.21,751,406.25Z" />
   <path class="d" d="M771.25,411.94c-.16-.51-.34-1-.53-1.58s-.38-1.08-.56-1.61h-5.77c-.18.53-.37,1.07-.56,1.61s-.36,1.07-.52,1.58h-3.45c.56-1.59,1.08-3.06,1.58-4.41s1-2.62,1.46-3.81,1-2.32,1.41-3.4,1-2.11,1.45-3.14h3.14c.49,1,1,2.07,1.44,3.14s.94,2.21,1.42,3.4,1,2.46,1.47,3.81,1,2.82,1.58,4.41Zm-4-11.41c-.07.21-.18.5-.32.87s-.31.8-.49,1.28l-.61,1.6c-.23.58-.46,1.19-.69,1.82h4.22c-.23-.63-.44-1.25-.66-1.83s-.41-1.12-.6-1.6-.36-.91-.5-1.28S767.35,400.74,767.26,400.53Z" />
   <path class="d" d="M786.9,406.34a7.93,7.93,0,0,1-.32,2.36,5.27,5.27,0,0,1-.93,1.83,4.43,4.43,0,0,1-1.54,1.2,5,5,0,0,1-2.1.42,5.36,5.36,0,0,1-1.24-.13,5.53,5.53,0,0,1-1.11-.36v4.22h-3.17V401.12c.28-.08.61-.16,1-.24s.76-.15,1.16-.2.82-.11,1.24-.14.82-.06,1.2-.06a6.84,6.84,0,0,1,2.47.42,5.23,5.23,0,0,1,1.83,1.17,4.94,4.94,0,0,1,1.14,1.84A7.16,7.16,0,0,1,786.9,406.34Zm-3.23.08a3.83,3.83,0,0,0-.66-2.35,2.29,2.29,0,0,0-2-.88c-.29,0-.55,0-.79,0l-.6.07V409a2.58,2.58,0,0,0,.78.32,3.54,3.54,0,0,0,1,.13C782.91,409.47,783.67,408.45,783.67,406.42Z" />
   <path class="d" d="M799.76,406.34a7.93,7.93,0,0,1-.32,2.36,5.27,5.27,0,0,1-.93,1.83,4.34,4.34,0,0,1-1.54,1.2,5,5,0,0,1-2.1.42,5.42,5.42,0,0,1-1.24-.13,5.53,5.53,0,0,1-1.11-.36v4.22h-3.17V401.12c.29-.08.61-.16,1-.24s.76-.15,1.16-.2.82-.11,1.24-.14.82-.06,1.2-.06a6.8,6.8,0,0,1,2.47.42,5.23,5.23,0,0,1,1.83,1.17,4.94,4.94,0,0,1,1.14,1.84A7.16,7.16,0,0,1,799.76,406.34Zm-3.23.08a3.83,3.83,0,0,0-.66-2.35,2.29,2.29,0,0,0-2-.88c-.29,0-.55,0-.79,0l-.6.07V409a2.58,2.58,0,0,0,.78.32,3.54,3.54,0,0,0,1,.13C795.77,409.47,796.53,408.45,796.53,406.42Z" />
   <path class="d" d="M778.56,470.34a3.21,3.21,0,0,1-.28,1.33,5.85,5.85,0,0,1-.71,1.23,9.53,9.53,0,0,1-1,1.14c-.37.37-.73.72-1.08,1l-.59.58c-.22.21-.42.43-.61.65s-.37.42-.52.61a1.5,1.5,0,0,0-.29.46h5.44v2.28h-8.43a3.29,3.29,0,0,1,0-.51v-.43a4.39,4.39,0,0,1,.29-1.61,5.44,5.44,0,0,1,.74-1.36,8.14,8.14,0,0,1,1-1.18l1.14-1.09.82-.8a8.74,8.74,0,0,0,.67-.73,3,3,0,0,0,.46-.71,1.68,1.68,0,0,0,.16-.72,1.31,1.31,0,0,0-.45-1.13,1.89,1.89,0,0,0-1.13-.33,2.6,2.6,0,0,0-.93.16,4.69,4.69,0,0,0-1.39.78,3.73,3.73,0,0,0-.38.34l-1.35-1.9a6.6,6.6,0,0,1,1.87-1.23,5.5,5.5,0,0,1,2.29-.49,6.3,6.3,0,0,1,1.91.26,3.6,3.6,0,0,1,1.33.72,2.83,2.83,0,0,1,.76,1.13A4.23,4.23,0,0,1,778.56,470.34Z" />
   <path class="d" d="M774.55,490.84a17.23,17.23,0,1,1,17.22-17.23A17.25,17.25,0,0,1,774.55,490.84Zm0-32.45a15.23,15.23,0,1,0,15.22,15.22A15.24,15.24,0,0,0,774.55,458.39Z" />
   <path class="d" d="M711.85,454.42a17.23,17.23,0,1,1,17.22-17.23A17.25,17.25,0,0,1,711.85,454.42Zm0-32.45a15.23,15.23,0,1,0,15.22,15.22A15.24,15.24,0,0,0,711.85,422Z" />
   <path class="d" d="M706.93,433.29c.35-.15.72-.32,1.1-.51a10.23,10.23,0,0,0,1.12-.62,11.34,11.34,0,0,0,1.05-.71,7.07,7.07,0,0,0,.91-.79H713v12.65h-2.71V434.2a10.12,10.12,0,0,1-1.23.67c-.45.2-.89.37-1.31.51Z" />
   <path class="d" d="M834.65,457a17.22,17.22,0,1,1,17.22-17.22A17.23,17.23,0,0,1,834.65,457Zm0-32.44a15.22,15.22,0,1,0,15.22,15.22A15.24,15.24,0,0,0,834.65,424.57Z" />
   <path class="d" d="M834.64,446.62a9.61,9.61,0,0,1-1-.06c-.36-.05-.72-.1-1.06-.18s-.65-.15-.93-.23a6,6,0,0,1-.65-.24l.53-2.26c.31.13.72.27,1.21.43a6.36,6.36,0,0,0,1.83.22,2.91,2.91,0,0,0,1.85-.47,1.72,1.72,0,0,0,.37-2.11,1.67,1.67,0,0,0-.57-.55,2.78,2.78,0,0,0-.87-.29,7.27,7.27,0,0,0-1.07-.08h-1.06v-2.19h1.21a3.94,3.94,0,0,0,.77-.07,2.07,2.07,0,0,0,.67-.25,1.22,1.22,0,0,0,.46-.47,1.47,1.47,0,0,0,.18-.76,1.16,1.16,0,0,0-.15-.6A1.37,1.37,0,0,0,836,436a1.53,1.53,0,0,0-.53-.25,2.55,2.55,0,0,0-.61-.08,4.2,4.2,0,0,0-1.45.24,5.72,5.72,0,0,0-1.22.58l-1-2c.19-.12.42-.25.68-.38a5.83,5.83,0,0,1,.87-.37,7.07,7.07,0,0,1,1-.27,6,6,0,0,1,1.14-.11,6.53,6.53,0,0,1,1.93.26,3.77,3.77,0,0,1,1.34.75,3,3,0,0,1,.78,1.13,3.8,3.8,0,0,1,.26,1.41,2.79,2.79,0,0,1-.42,1.45,2.83,2.83,0,0,1-1.13,1.07,3.25,3.25,0,0,1,1.52,1.19,3.33,3.33,0,0,1,.54,1.91,4.45,4.45,0,0,1-.29,1.62,3.3,3.3,0,0,1-.92,1.28,4.35,4.35,0,0,1-1.57.84A7.68,7.68,0,0,1,834.64,446.62Z" />
   <path class="d" d="M825.14,344.22v7.59h1.35V354h-1.35v2.83h-2.67V354H817v-2c.26-.53.6-1.14,1-1.81s.85-1.37,1.34-2.09,1-1.4,1.56-2.08a23.85,23.85,0,0,1,1.64-1.85Zm-2.67,3.32c-.47.62-1,1.3-1.51,2a13.47,13.47,0,0,0-1.35,2.24h2.86Z" />
   <path class="d" d="M822.44,367.71a17.23,17.23,0,1,1,17.23-17.22A17.25,17.25,0,0,1,822.44,367.71Zm0-32.45a15.23,15.23,0,1,0,15.23,15.23A15.24,15.24,0,0,0,822.44,335.26Z" />
   <path class="d" d="M727.31,352.31a1.67,1.67,0,0,0-1.06-1.63,5.94,5.94,0,0,0-1.57-.42,18.8,18.8,0,0,0-2.48-.14q.19-1.69.33-3.45c.08-1.17.15-2.26.2-3.29h6.84v2.28H725c0,.44,0,.87-.08,1.27s-.07.77-.1,1.07a6.79,6.79,0,0,1,3.93,1.25,3.68,3.68,0,0,1,1.27,3,4.33,4.33,0,0,1-.31,1.62,3.62,3.62,0,0,1-.93,1.3,4.49,4.49,0,0,1-1.56.85,7,7,0,0,1-2.2.31,9.16,9.16,0,0,1-1-.06c-.36,0-.71-.1-1-.16l-.91-.21a4.62,4.62,0,0,1-.62-.22l.49-2.25a7.76,7.76,0,0,0,1.21.4,7.67,7.67,0,0,0,1.79.19,2.67,2.67,0,0,0,1.82-.51A1.5,1.5,0,0,0,727.31,352.31Z" />
   <path class="d" d="M725.92,366.13a17.23,17.23,0,1,1,17.22-17.23A17.24,17.24,0,0,1,725.92,366.13Zm0-32.45a15.23,15.23,0,1,0,15.22,15.22A15.24,15.24,0,0,0,725.92,333.68Z" />
   <path class="n" d="M800.23,58.75a106.48,106.48,0,0,0,145.22,141.7A174.54,174.54,0,0,0,800.23,58.75Z" />
   <path class="o" d="M908.88.87A106.49,106.49,0,0,0,800.23,58.75a174.54,174.54,0,0,1,145.22,141.7A106.46,106.46,0,0,0,908.88.87Z" />
   <path class="d" d="M895.45,143a36.49,36.49,0,1,1,36.16-31.88h0A36.53,36.53,0,0,1,895.45,143Zm-.05-71a34.48,34.48,0,1,0,34.23,38.84h0a34.54,34.54,0,0,0-29.85-38.57A36,36,0,0,0,895.4,72Z" />
   <path class="d" d="M879.83,112c-.29.08-.61.16-1,.24s-.76.15-1.16.21-.82.1-1.24.13-.82.06-1.2.06a7,7,0,0,1-2.47-.41,4.86,4.86,0,0,1-3-3,7.06,7.06,0,0,1-.39-2.42,8.15,8.15,0,0,1,.34-2.45,5.12,5.12,0,0,1,1-1.87,4.12,4.12,0,0,1,1.56-1.17,5.83,5.83,0,0,1,3.3-.28,6.27,6.27,0,0,1,1,.37V96.32l3.18-.51Zm-7.18-5.32a3.88,3.88,0,0,0,.66,2.36,2.29,2.29,0,0,0,2,.89c.28,0,.55,0,.79,0a5.66,5.66,0,0,0,.59-.07V104a2.41,2.41,0,0,0-.77-.32,3.6,3.6,0,0,0-1-.13C873.4,103.58,872.65,104.6,872.65,106.65Z" />
   <path class="d" d="M892.92,112.33c-.16-.51-.34-1-.53-1.58s-.38-1.08-.56-1.61h-5.77c-.18.54-.37,1.07-.56,1.62s-.36,1.06-.52,1.57h-3.45c.56-1.59,1.08-3.06,1.58-4.41s1-2.62,1.46-3.81.95-2.32,1.41-3.39.95-2.12,1.45-3.14h3.14c.49,1,1,2.06,1.44,3.14s.94,2.2,1.42,3.39,1,2.46,1.47,3.81,1,2.82,1.58,4.41Zm-4-11.41q-.1.31-.33.87l-.48,1.28-.61,1.6q-.35.87-.69,1.83H891l-.66-1.84c-.21-.58-.41-1.11-.6-1.6s-.36-.91-.5-1.28S889,101.13,888.93,100.92Z" />
   <path class="d" d="M908.57,106.73a7.93,7.93,0,0,1-.32,2.36,5.25,5.25,0,0,1-.94,1.84,4.28,4.28,0,0,1-1.53,1.19,5,5,0,0,1-2.11.42,6,6,0,0,1-1.23-.12,6.29,6.29,0,0,1-1.11-.37v4.22h-3.17V101.51c.28-.08.61-.16,1-.24s.76-.15,1.16-.2.82-.11,1.23-.14.82-.05,1.21-.05a6.84,6.84,0,0,1,2.47.41,5.23,5.23,0,0,1,1.83,1.17,5.16,5.16,0,0,1,1.14,1.84A7.2,7.2,0,0,1,908.57,106.73Zm-3.23.09a3.93,3.93,0,0,0-.66-2.36,2.31,2.31,0,0,0-2-.88c-.29,0-.55,0-.79,0a5.91,5.91,0,0,0-.6.08v5.72a2.58,2.58,0,0,0,.78.32,3.54,3.54,0,0,0,1,.13C904.58,109.86,905.34,108.85,905.34,106.82Z" />
   <path class="d" d="M921.43,106.73a7.93,7.93,0,0,1-.32,2.36,5.41,5.41,0,0,1-.93,1.84,4.4,4.4,0,0,1-1.54,1.19,5,5,0,0,1-2.11.42,6,6,0,0,1-1.23-.12,6.29,6.29,0,0,1-1.11-.37v4.22H911V101.51c.28-.08.61-.16,1-.24s.76-.15,1.16-.2.82-.11,1.24-.14.81-.05,1.2-.05a6.84,6.84,0,0,1,2.47.41,5.23,5.23,0,0,1,1.83,1.17A5.16,5.16,0,0,1,921,104.3,7.2,7.2,0,0,1,921.43,106.73Zm-3.23.09a3.86,3.86,0,0,0-.66-2.36,2.29,2.29,0,0,0-2-.88c-.29,0-.55,0-.79,0a5.91,5.91,0,0,0-.6.08v5.72a2.58,2.58,0,0,0,.78.32,3.54,3.54,0,0,0,1,.13C917.44,109.86,918.2,108.85,918.2,106.82Z" />
   <path class="d" d="M892.07,196a17.21,17.21,0,1,1,12.45-5.3A17.15,17.15,0,0,1,892.07,196Zm0-32.43h-.35a15.12,15.12,0,0,0-10.66,4.7h0a15.22,15.22,0,1,0,22,21,15.21,15.21,0,0,0-11-25.74Z" />
   <path class="d" d="M823.43,128.12A17.22,17.22,0,0,1,811,99h0a17.22,17.22,0,1,1,12.82,29.13ZM811.72,99.68l.72.69a15.24,15.24,0,1,0,10.67-4.69,15.14,15.14,0,0,0-10.67,4.69Z" />
   <path class="d" d="M943.17,72.29a17.23,17.23,0,0,1-12.44-29.13h0a17.22,17.22,0,1,1,12.82,29.12Zm0-32.45h-.35a15.12,15.12,0,0,0-10.66,4.7h0a15.22,15.22,0,1,0,11-4.7Z" />
   <path class="d" d="M963.28,142a17.22,17.22,0,0,1-12.43-29.13h0a17.22,17.22,0,1,1,12.82,29.12Zm-11-27.75a15.22,15.22,0,0,0,11.33,25.74,15.22,15.22,0,1,0-11.33-25.74Z" />
   <path class="d" d="M876.36,55.16A17.22,17.22,0,0,1,863.93,26h0a17.22,17.22,0,1,1,12.82,29.13Zm0-32.44H876a15.12,15.12,0,0,0-10.66,4.7h0a15.22,15.22,0,1,0,11-4.7Z" />
   <path class="d" d="M947,51.28a3.36,3.36,0,0,1-.27,1.33,5.85,5.85,0,0,1-.71,1.23,9.58,9.58,0,0,1-1,1.15c-.36.36-.72.71-1.07,1-.19.17-.38.36-.6.57s-.41.43-.61.65-.37.42-.52.61a1.54,1.54,0,0,0-.28.47h5.44v2.28H939a2.51,2.51,0,0,1,0-.51v-.44a4.39,4.39,0,0,1,.28-1.61,6.4,6.4,0,0,1,.74-1.36,9.57,9.57,0,0,1,1-1.18c.39-.36.77-.72,1.14-1.09l.83-.79c.25-.25.48-.5.67-.73a3.62,3.62,0,0,0,.46-.72,1.64,1.64,0,0,0,.16-.72,1.29,1.29,0,0,0-.46-1.13,1.87,1.87,0,0,0-1.13-.33,2.54,2.54,0,0,0-.92.16,4.3,4.3,0,0,0-.78.36,5.55,5.55,0,0,0-.62.42c-.17.14-.29.26-.38.34l-1.35-1.9a6.89,6.89,0,0,1,1.87-1.23,5.53,5.53,0,0,1,2.29-.48,6.43,6.43,0,0,1,1.92.25,3.55,3.55,0,0,1,1.32.72,2.82,2.82,0,0,1,.77,1.14A4.37,4.37,0,0,1,947,51.28Z" />
   <path class="d" d="M872,33.35c.35-.14.72-.31,1.1-.5s.76-.4,1.13-.62.71-.46,1.05-.71a7.77,7.77,0,0,0,.9-.8H878V43.37h-2.72V34.26a8.34,8.34,0,0,1-1.22.67c-.45.2-.89.37-1.32.52Z" />
   <path class="d" d="M963.28,131.92a9.61,9.61,0,0,1-1-.06c-.36,0-.72-.1-1.06-.17l-.93-.24a6,6,0,0,1-.65-.24l.53-2.26c.31.13.72.28,1.21.43a6.33,6.33,0,0,0,1.83.23,2.91,2.91,0,0,0,1.85-.48,1.72,1.72,0,0,0,.37-2.11,1.64,1.64,0,0,0-.57-.54,2.79,2.79,0,0,0-.87-.3,7.27,7.27,0,0,0-1.07-.08h-1.06v-2.19H963a3.94,3.94,0,0,0,.77-.07,2.07,2.07,0,0,0,.67-.25,1.22,1.22,0,0,0,.46-.47,1.47,1.47,0,0,0,.18-.76,1.16,1.16,0,0,0-.15-.6,1.37,1.37,0,0,0-.37-.42,1.73,1.73,0,0,0-.53-.25,2.55,2.55,0,0,0-.61-.08,4.2,4.2,0,0,0-1.45.24,6.25,6.25,0,0,0-1.22.58l-1-2c.2-.12.43-.25.69-.38a5.83,5.83,0,0,1,.87-.37,7.07,7.07,0,0,1,1-.27,6,6,0,0,1,1.14-.11,6.41,6.41,0,0,1,1.92.26,3.74,3.74,0,0,1,1.35.75,3,3,0,0,1,.78,1.13,3.8,3.8,0,0,1,.26,1.41,2.92,2.92,0,0,1-1.55,2.52,3.33,3.33,0,0,1,1.52,1.2,3.29,3.29,0,0,1,.54,1.9,4.45,4.45,0,0,1-.29,1.62,3.23,3.23,0,0,1-.92,1.28,4.35,4.35,0,0,1-1.57.84A7.68,7.68,0,0,1,963.28,131.92Z" />
   <path class="d" d="M895.38,172.48v7.59h1.35v2.23h-1.35v2.83h-2.66V182.3h-5.46v-2c.27-.54.6-1.14,1-1.82s.85-1.36,1.34-2.08,1-1.4,1.56-2.09a23.46,23.46,0,0,1,1.65-1.84Zm-2.66,3.32c-.48.62-1,1.3-1.52,2a15,15,0,0,0-1.35,2.24h2.87Z" />
 <!-- Outer Gears 211-220 -->
   <path class="d" d="M824.83,114.75a1.8,1.8,0,0,0-.24-.94,1.74,1.74,0,0,0-.82-.69,6.05,6.05,0,0,0-1.57-.42,18.8,18.8,0,0,0-2.48-.14c.13-1.13.24-2.28.32-3.45s.16-2.27.2-3.29h6.85v2.28h-4.56c0,.44-.06.87-.09,1.27s-.06.77-.1,1.07a6.8,6.8,0,0,1,3.94,1.25,3.68,3.68,0,0,1,1.26,3,4.14,4.14,0,0,1-.31,1.62,3.39,3.39,0,0,1-.93,1.3,4.32,4.32,0,0,1-1.56.85,6.91,6.91,0,0,1-2.2.31,9.43,9.43,0,0,1-1-.06c-.36,0-.7-.1-1-.16l-.9-.21a4.62,4.62,0,0,1-.62-.22l.49-2.25a6.91,6.91,0,0,0,1.21.39,7.13,7.13,0,0,0,1.79.2,2.69,2.69,0,0,0,1.82-.51A1.5,1.5,0,0,0,824.83,114.75Z" />
   <path class="p" d="M917,221.61q-.09-1.49-.21-3l2-.16c.07,1,.14,2,.2,3Z" />
   <path class="p" d="M877.13,332.49l-1.42-1.41c1.4-1.41,2.8-2.88,4.15-4.36l1.48,1.34C880,329.57,878.55,331.06,877.13,332.49Zm8.23-9-1.54-1.28c1.29-1.54,2.56-3.12,3.77-4.7l1.59,1.22C888,320.3,886.66,321.9,885.36,323.46Zm7.44-9.68-1.64-1.15c1.16-1.65,2.29-3.33,3.37-5l1.68,1.08C895.12,310.41,894,312.11,892.8,313.78Zm6.6-10.28-1.72-1c1-1.72,2-3.49,2.93-5.26l1.77.94C901.43,300,900.43,301.76,899.4,303.5Zm5.73-10.79-1.81-.86c.86-1.81,1.7-3.66,2.48-5.49l1.84.78C906.85,289,906,290.88,905.13,292.71Zm4.79-11.24-1.87-.7c.7-1.87,1.38-3.78,2-5.69l1.9.63C911.32,277.64,910.63,279.58,909.92,281.47Zm3.82-11.6-1.92-.55c.55-1.93,1.06-3.89,1.52-5.83l1.94.46C914.82,265.92,914.3,267.91,913.74,269.87ZM916.57,258l-2-.38c.38-2,.73-4,1-5.94l2,.3C917.31,254,917,256,916.57,258Zm1.82-12.08-2-.22c.22-2,.39-4,.52-6l2,.13C918.79,241.84,918.61,243.89,918.39,245.9Zm.8-12.19-2-.05c0-1.18,0-2.35,0-3.53,0-.83,0-1.67,0-2.5l2,0c0,.84,0,1.68,0,2.53C919.24,231.33,919.22,232.52,919.19,233.71Z" />
   <path class="p" d="M870.52,338.76l-1.33-1.49c.74-.66,1.48-1.33,2.2-2l1.37,1.46C872,337.42,871.27,338.09,870.52,338.76Z" />
   <polygon class="p" points="912.39 223.27 915.3 201.01 923.91 221.74 912.39 223.27" />
   <polygon class="p" points="869.22 330.88 855.93 348.98 876.49 339.95 869.22 330.88" />
   <path class="p" d="M774.76,381.36h-2v-.85h2Zm0-6.85h-2v-6h2Zm0-12h-2v-6h2Zm0-12h-2v-6h2Zm0-12h-2v-6h2Zm0-12h-2v-6h2Z" />
   <polygon class="p" points="767.77 322.26 773.76 311.9 779.74 322.26 767.77 322.26" />
   <polygon class="p" points="767.77 379.61 773.76 389.97 779.74 379.61 767.77 379.61" />
   <path class="p" d="M684.6,232.12h-3.73v-2h3.73Zm-9.73,0h-6v-2h6Zm-12,0h-6v-2h6Zm-12,0h-6v-2h6Zm-12,0h-6v-2h6Zm-12,0h-6v-2h6Zm-12,0h-6v-2h6Zm-12,0h-6v-2h6Zm-12,0h-6v-2h6Zm-12,0h-6v-2h6Zm-12,0h-6v-2h6Zm-12,0h-6v-2h6Zm-12,0h-6v-2h6Zm-12,0h-6v-2h6Zm-12,0h-6v-2h6Zm-12,0h-6v-2h6Zm-12,0h-6v-2h6Zm-12,0h-6v-2h6Zm-12,0h-6v-2h6Zm-12,0h-6v-2h6Zm-12,0h-6v-2h6Zm-12,0h-6v-2h6Z" />
   <polygon class="p" points="430.62 237.1 420.26 231.12 430.62 225.13 430.62 237.1" />
   <polygon class="p" points="682.85 237.1 693.22 231.12 682.85 225.13 682.85 237.1" />
   <line class="q" x1="877.67" y1="127" x2="837.64" y2="166.91" />
   <polygon class="p" points="834.66 161.44 831.55 172.99 843.11 169.91 834.66 161.44" />
   <polygon class="p" points="872.2 124 883.76 120.92 880.65 132.47 872.2 124" />

   <!-- Begins the main cog -->
   <g>
      <path class="p" d="M689.77,219.75l-2-.24c.08-.67.18-1.34.27-2l2,.29C689.94,218.44,689.85,219.1,689.77,219.75Zm.57-3.91-2-.34c.11-.66.23-1.33.36-2l2,.38C690.57,214.54,690.45,215.19,690.34,215.84Zm.75-3.88-2-.43c.14-.66.3-1.32.46-2l1.94.47C691.38,210.67,691.24,211.31,691.09,212Zm.94-3.85-1.93-.52c.18-.65.36-1.3.55-2l1.92.57C692.38,206.84,692.2,207.47,692,208.11Zm1.12-3.79-1.91-.61c.21-.64.42-1.28.64-1.92l1.89.65C693.56,203.07,693.35,203.69,693.15,204.32Zm1.29-3.74-1.87-.7c.23-.63.48-1.26.73-1.88l1.85.74C694.91,199.35,694.67,200,694.44,200.58Zm1.47-3.67-1.84-.79c.27-.62.54-1.23.82-1.85l1.82.83C696.44,195.7,696.17,196.3,695.91,196.91Zm1.64-3.6-1.8-.87c.29-.61.59-1.21.9-1.81l1.78.91C698.13,192.13,697.83,192.72,697.55,193.31Zm1.8-3.52-1.75-.95c.32-.59.65-1.18,1-1.77l1.74,1C700,188.64,699.67,189.22,699.35,189.79Zm2-3.42-1.71-1c.35-.58.71-1.15,1.07-1.72l1.68,1.08C702,185.24,701.66,185.8,701.32,186.37Zm2.13-3.34-1.66-1.11c.37-.56.75-1.12,1.14-1.67l1.64,1.15C704.19,181.94,703.81,182.48,703.45,183Zm2.28-3.23-1.61-1.19c.29-.4.59-.79.89-1.18l1.59,1.22C706.3,179,706,179.42,705.73,179.8Z" />
      <polygon class="j" points="706.08 218.55 672.08 218.55 672.08 192.03 706.08 206.49 706.08 218.55" />
      <path class="p" d="M857.74,219.76A84.28,84.28,0,0,0,841.17,179l1.6-1.21a86.45,86.45,0,0,1,17,41.74Z" />
      <path class="p" d="M826.31,163.81a84.42,84.42,0,0,0-41.53-17.59l.26-2a86.36,86.36,0,0,1,42.51,18Z" />
      <path class="p" d="M721.47,163.6,720.23,162a86.47,86.47,0,0,1,42.24-17.79l.26,2A84.36,84.36,0,0,0,721.47,163.6Z" />
      <path class="p" d="M705.38,283.31A86.34,86.34,0,0,1,688,242.07l2-.27a84.34,84.34,0,0,0,17,40.28Z" />
      <path class="p" d="M762.47,316a86.42,86.42,0,0,1-41.76-17.41l1.23-1.58a84.43,84.43,0,0,0,40.79,17Z" />
      <path class="p" d="M785,316l-.26-2a84.35,84.35,0,0,0,40.46-16.75l1.22,1.59A86.37,86.37,0,0,1,785,316Z" />
      <path class="p" d="M841.86,283.66l-1.57-1.24a84.48,84.48,0,0,0,17.29-40.62l2,.27A86.43,86.43,0,0,1,841.86,283.66Z" />
      <path class="p" d="M786.13,156.65H762V133.4h24.11Zm-22.11-2h20.11V135.4H764Z" />
      <path class="p" d="M786.13,328.35H762V305.1h24.11Zm-22.11-2h20.11V307.1H764Z" />
      <path class="p" d="M871.13,243.35H847.88V218.4h23.25Zm-21.25-2h19.25V220.4H849.88Z" />
      <path class="p" d="M699.43,243.35H676.18V218.4h23.25Zm-21.25-2h19.25V220.4H678.18Z" />
      <path class="p" d="M712.91,186.56,696.36,170l16.55-16.55L729.46,170ZM699.19,170l13.72,13.72L726.63,170l-13.72-13.72Z" />
      <path class="p" d="M834,307.64l-16.55-16.55L834,274.54l16.55,16.55Zm-13.72-16.55L834,304.82l13.73-13.73L834,277.37Z" />
      <path class="p" d="M835.2,186.56,818.66,170l16.54-16.55L851.76,170ZM821.48,170l13.72,13.72L848.93,170,835.2,156.29Z" />
      <path class="p" d="M712.91,307.64l-16.55-16.55,16.55-16.55,16.55,16.55Zm-13.72-16.55,13.72,13.73,13.72-13.73-13.72-13.72Z" />
   </g>
   <!-- Blockchain Text -->
   <path class="p" d="M734.38,238.59l-.83,0-.89-.06c-.3,0-.6,0-.89-.09a5.7,5.7,0,0,1-.8-.15V226a5.76,5.76,0,0,1,.8-.14l.89-.1.88-.05.82,0a12.09,12.09,0,0,1,2.06.17,5,5,0,0,1,1.66.55,3,3,0,0,1,1.1,1,2.89,2.89,0,0,1,.4,1.57,2.79,2.79,0,0,1-.49,1.71,3,3,0,0,1-1.31,1,3.88,3.88,0,0,1,1.77,1,2.86,2.86,0,0,1,.65,2,3.24,3.24,0,0,1-1.39,2.86A8,8,0,0,1,734.38,238.59Zm-1.66-7.43h1.86a8,8,0,0,0,1.24-.09,3.06,3.06,0,0,0,1-.33,1.91,1.91,0,0,0,.67-.62,1.73,1.73,0,0,0,.25-1,1.61,1.61,0,0,0-.26-.92,1.79,1.79,0,0,0-.7-.6,3.5,3.5,0,0,0-1-.34,7.44,7.44,0,0,0-1.28-.11l-1.05,0-.7.05Zm0,1.42V237l.48,0,.55,0h.74A11.64,11.64,0,0,0,736,237a4.24,4.24,0,0,0,1.23-.36,2.19,2.19,0,0,0,.85-.71,2,2,0,0,0,.32-1.15,2.14,2.14,0,0,0-.24-1,1.71,1.71,0,0,0-.68-.68,3.07,3.07,0,0,0-1.07-.37,8.25,8.25,0,0,0-1.39-.11Z" />
   <path class="p" d="M745.44,238.66a3.24,3.24,0,0,1-2.22-.68,2.65,2.65,0,0,1-.66-2V224.61l1.7-.3v11.41a2.66,2.66,0,0,0,.07.69.93.93,0,0,0,.24.44,1.06,1.06,0,0,0,.43.25,4.59,4.59,0,0,0,.68.13Z" />
   <path class="p" d="M756,233.73a5.9,5.9,0,0,1-.32,2,4.54,4.54,0,0,1-.93,1.57,4,4,0,0,1-1.41,1,4.75,4.75,0,0,1-3.58,0,4.09,4.09,0,0,1-1.41-1,4.52,4.52,0,0,1-.92-1.57,5.9,5.9,0,0,1-.33-2,6,6,0,0,1,.33-2,4.48,4.48,0,0,1,.92-1.58,4.09,4.09,0,0,1,1.41-1,4.75,4.75,0,0,1,3.58,0,4,4,0,0,1,1.41,1,4.5,4.5,0,0,1,.93,1.58A6,6,0,0,1,756,233.73Zm-1.77,0a4.11,4.11,0,0,0-.72-2.55,2.53,2.53,0,0,0-3.92,0,4.88,4.88,0,0,0,0,5.1,2.51,2.51,0,0,0,3.92,0A4.11,4.11,0,0,0,754.18,233.73Z" />
   <path class="p" d="M762.47,238.69a5.24,5.24,0,0,1-2-.36,4.09,4.09,0,0,1-1.46-1,4.28,4.28,0,0,1-.88-1.56,6.36,6.36,0,0,1-.29-2,5.89,5.89,0,0,1,.32-2,4.72,4.72,0,0,1,.9-1.58,4.16,4.16,0,0,1,1.43-1,4.65,4.65,0,0,1,1.89-.37,7.9,7.9,0,0,1,1.28.11,6.3,6.3,0,0,1,1.22.34l-.38,1.45a4,4,0,0,0-.89-.3,5.19,5.19,0,0,0-1.07-.1,2.7,2.7,0,0,0-2.18.89,4,4,0,0,0-.75,2.61,5.12,5.12,0,0,0,.17,1.4,2.92,2.92,0,0,0,.55,1.1,2.44,2.44,0,0,0,1,.7,3.51,3.51,0,0,0,1.42.25,5.07,5.07,0,0,0,1.22-.13,4.65,4.65,0,0,0,.86-.27l.24,1.42a1.73,1.73,0,0,1-.42.17,4.7,4.7,0,0,1-.62.15l-.74.11A6.68,6.68,0,0,1,762.47,238.69Z" />
   <path class="p" d="M770.26,233.26a10.41,10.41,0,0,1,1.16,1c.41.41.81.86,1.21,1.34s.77,1,1.12,1.46a15,15,0,0,1,.89,1.38h-2a15,15,0,0,0-.88-1.31c-.34-.44-.69-.87-1-1.28s-.74-.78-1.11-1.12a10.37,10.37,0,0,0-1.08-.86v4.57h-1.7V224.61l1.7-.3V233l1-1c.35-.36.7-.71,1-1.08s.66-.71,1-1,.57-.63.79-.88h2c-.28.3-.59.63-.92,1s-.66.73-1,1.1-.71.75-1.06,1.12Z" />
   <path class="p" d="M780,238.69a5.24,5.24,0,0,1-2-.36,4,4,0,0,1-1.46-1,4.28,4.28,0,0,1-.88-1.56,6.36,6.36,0,0,1-.3-2,6.14,6.14,0,0,1,.32-2,4.92,4.92,0,0,1,.91-1.58,4.06,4.06,0,0,1,1.43-1,4.62,4.62,0,0,1,1.89-.37,8,8,0,0,1,1.28.11,6.3,6.3,0,0,1,1.22.34l-.38,1.45a4.22,4.22,0,0,0-.89-.3,5.19,5.19,0,0,0-1.07-.1,2.69,2.69,0,0,0-2.18.89,4,4,0,0,0-.76,2.61,5.11,5.11,0,0,0,.18,1.4,2.78,2.78,0,0,0,.55,1.1,2.34,2.34,0,0,0,.95.7,3.59,3.59,0,0,0,1.43.25,5.13,5.13,0,0,0,1.22-.13,4.91,4.91,0,0,0,.86-.27l.23,1.42a1.44,1.44,0,0,1-.42.17,4.34,4.34,0,0,1-.62.15l-.73.11A6.8,6.8,0,0,1,780,238.69Z" />
   <path class="p" d="M784.37,238.48V224.61l1.7-.3v4.86a6,6,0,0,1,1-.29,6.44,6.44,0,0,1,1.07-.09,4.9,4.9,0,0,1,1.88.31,3,3,0,0,1,1.19.9,3.37,3.37,0,0,1,.63,1.38,8,8,0,0,1,.18,1.77v5.33h-1.69v-5a8.13,8.13,0,0,0-.12-1.5,2.62,2.62,0,0,0-.39-1,1.6,1.6,0,0,0-.73-.55,3.15,3.15,0,0,0-1.13-.18,3.64,3.64,0,0,0-.57,0l-.56.08a4.8,4.8,0,0,0-.47.1l-.3.09v7.89Z" />
   <path class="p" d="M797.86,228.75a5.06,5.06,0,0,1,1.72.26,2.7,2.7,0,0,1,1.74,1.9,5.23,5.23,0,0,1,.19,1.47v5.93l-.61.1-.89.12-1.07.1c-.38,0-.76.05-1.14.05a6.26,6.26,0,0,1-1.48-.17,3.16,3.16,0,0,1-1.16-.52,2.3,2.3,0,0,1-.77-.94,3.33,3.33,0,0,1-.27-1.4,2.58,2.58,0,0,1,1.18-2.27,4.08,4.08,0,0,1,1.28-.51,7,7,0,0,1,1.53-.16l.53,0a4.08,4.08,0,0,1,.52.07l.43.08.26.06v-.48a3.92,3.92,0,0,0-.1-.83,2,2,0,0,0-.32-.73,1.76,1.76,0,0,0-.65-.51,2.53,2.53,0,0,0-1.07-.19,7.94,7.94,0,0,0-1.47.12,5.9,5.9,0,0,0-.94.24l-.2-1.4a5.65,5.65,0,0,1,1.1-.29A9.56,9.56,0,0,1,797.86,228.75Zm.14,8.5,1.07,0a6.28,6.28,0,0,0,.78-.1V234.3a2.17,2.17,0,0,0-.6-.16,6.9,6.9,0,0,0-1-.06,7.65,7.65,0,0,0-.81,0,2.79,2.79,0,0,0-.79.23,1.63,1.63,0,0,0-.59.48,1.22,1.22,0,0,0-.24.79,1.36,1.36,0,0,0,.58,1.27A3.12,3.12,0,0,0,798,237.25Z" />
   <path class="p" d="M805.16,227.27a1.09,1.09,0,0,1-.78-.3,1.07,1.07,0,0,1-.32-.81,1.11,1.11,0,0,1,.32-.82,1.15,1.15,0,0,1,1.55,0,1.07,1.07,0,0,1,.32.82,1,1,0,0,1-.32.81A1.08,1.08,0,0,1,805.16,227.27Zm.85,11.21h-1.69V229H806Z" />
   <path class="p" d="M808.93,229.26c.39-.1.91-.2,1.56-.31a13.28,13.28,0,0,1,2.22-.16,4.86,4.86,0,0,1,1.88.31,3.07,3.07,0,0,1,1.2.9,3.51,3.51,0,0,1,.63,1.38,8,8,0,0,1,.18,1.77v5.33h-1.7v-5a8.13,8.13,0,0,0-.12-1.5,2.62,2.62,0,0,0-.39-1,1.5,1.5,0,0,0-.73-.55,3.08,3.08,0,0,0-1.13-.18l-.57,0-.55,0-.48.07-.3.05v8h-1.7Z" />
</svg>
