<?xml version="1.0" encoding="UTF-8" standalone="no"?>
<svg
   xmlns:dc="http://purl.org/dc/elements/1.1/"
   xmlns:cc="http://creativecommons.org/ns#"
   xmlns:rdf="http://www.w3.org/1999/02/22-rdf-syntax-ns#"
   xmlns:svg="http://www.w3.org/2000/svg"
   xmlns="http://www.w3.org/2000/svg"
   xmlns:xlink="http://www.w3.org/1999/xlink"
   id="svg2967"
   viewBox="0 0 23234.024 17800.647"
   style="clip-rule:evenodd;fill-rule:evenodd;image-rendering:optimizeQuality;shape-rendering:geometricPrecision;text-rendering:geometricPrecision"
   version="1.1"
   height="178.00647mm"
   width="232.34024mm"
   xml:space="preserve"><metadata
   id="metadata2971"><rdf:RDF><cc:Work
       rdf:about=""><dc:format>image/svg+xml</dc:format><dc:type
         rdf:resource="http://purl.org/dc/dcmitype/StillImage" /><dc:title></dc:title></cc:Work></rdf:RDF></metadata>
 <defs
   id="defs2021">
  <style
   id="style1961"
   type="text/css">
   <![CDATA[
    .str1 {stroke:#00B1EB;stroke-width:50}
    .str2 {stroke:#57C4EF;stroke-width:50}
    .str0 {stroke:#57C4EF;stroke-width:25}
    .str4 {stroke:#2155FF;stroke-width:35.28}
    .str3 {stroke:#204BD9;stroke-width:7.62}
    .fil46 {fill:none}
    .fil5 {fill:#EBECEC}
    .fil10 {fill:#C5C6C6}
    .fil9 {fill:#2DBDEF}
    .fil6 {fill:#23BCEE}
    .fil1 {fill:#00B1EB}
    .fil15 {fill:#00ADE9}
    .fil12 {fill:#393185}
    .fil51 {fill:#0040FF}
    .fil0 {fill:#0C017B}
    .fil4 {fill:#0F50D0}
    .fil7 {fill:#1039C2}
    .fil13 {fill:#140694}
    .fil40 {fill:#FEFEFE;fill-rule:nonzero}
    .fil42 {fill:#EBECEC;fill-rule:nonzero}
    .fil11 {fill:#23BCEE;fill-rule:nonzero}
    .fil43 {fill:#2396D3;fill-rule:nonzero}
    .fil3 {fill:#008DD2;fill-rule:nonzero}
    .fil39 {fill:#0092D7;fill-rule:nonzero}
    .fil8 {fill:#00B1EB;fill-rule:nonzero}
    .fil45 {fill:#140694;fill-rule:nonzero}
    .fil44 {fill:#2155FF;fill-rule:nonzero}
    .fil2 {fill:#57C4EF;fill-rule:nonzero}
    .fil41 {fill:#FEFEFE;fill-rule:nonzero}
    .fil14 {fill:url(#id4)}
    .fil17 {fill:url(#id5)}
    .fil16 {fill:url(#id6)}
    .fil25 {fill:url(#id7)}
    .fil26 {fill:url(#id8)}
    .fil24 {fill:url(#id9)}
    .fil38 {fill:url(#id10)}
    .fil36 {fill:url(#id11)}
    .fil37 {fill:url(#id12)}
    .fil52 {fill:url(#id13)}
    .fil47 {fill:url(#id14)}
    .fil48 {fill:url(#id15)}
    .fil49 {fill:url(#id16)}
    .fil53 {fill:url(#id17)}
    .fil50 {fill:url(#id18)}
    .fil32 {fill:url(#id19)}
    .fil31 {fill:url(#id20)}
    .fil30 {fill:url(#id21)}
    .fil34 {fill:url(#id22)}
    .fil33 {fill:url(#id23)}
    .fil35 {fill:url(#id24)}
    .fil20 {fill:url(#id25)}
    .fil18 {fill:url(#id26)}
    .fil19 {fill:url(#id27)}
    .fil29 {fill:url(#id28)}
    .fil28 {fill:url(#id29)}
    .fil27 {fill:url(#id30)}
    .fil23 {fill:url(#id31)}
    .fil21 {fill:url(#id32)}
    .fil22 {fill:url(#id33)}
   ]]>
  </style>
   <mask
   id="id0">
  <linearGradient
   y2="6866.1699"
   x2="21946"
   y1="8817.3496"
   x1="21946"
   gradientUnits="userSpaceOnUse"
   id="id1">
   <stop
   id="stop1963"
   style="stop-opacity:1; stop-color:white"
   offset="0" />
   <stop
   id="stop1965"
   style="stop-opacity:0; stop-color:white"
   offset="1" />
  </linearGradient>
    <rect
   id="rect1968"
   height="2787"
   width="4847"
   y="6448"
   x="19522"
   style="fill:url(#id1)" />
   </mask>
   <mask
   id="id2">
  <linearGradient
   y2="2183.3899"
   x2="21946"
   y1="5280.73"
   x1="21946"
   gradientUnits="userSpaceOnUse"
   id="id3">
   <stop
   id="stop1971"
   style="stop-opacity:1; stop-color:white"
   offset="0" />
   <stop
   id="stop1973"
   style="stop-opacity:0; stop-color:white"
   offset="1" />
  </linearGradient>
    <rect
   id="rect1976"
   height="5736"
   width="3603"
   y="864"
   x="20145"
   style="fill:url(#id3)" />
   </mask>
  <linearGradient
   y2="10557.3"
   x2="19473.1"
   y1="10557.3"
   x1="18017.5"
   gradientUnits="userSpaceOnUse"
   id="id4">
   <stop
   id="stop1979"
   style="stop-opacity:1; stop-color:#1CBBEE"
   offset="0" />
   <stop
   id="stop1981"
   style="stop-opacity:1; stop-color:#FEFEFE"
   offset="1" />
  </linearGradient>
  <linearGradient
   y2="9737.2803"
   x2="19473.1"
   y1="9737.2803"
   x1="18017.5"
   xlink:href="#id4"
   gradientUnits="userSpaceOnUse"
   id="id5">
  </linearGradient>
  <linearGradient
   y2="10148.1"
   x2="19473.1"
   y1="10148.1"
   x1="18017.5"
   xlink:href="#id4"
   gradientUnits="userSpaceOnUse"
   id="id6">
  </linearGradient>
  <linearGradient
   y2="11857.4"
   x2="19473.199"
   y1="11857.4"
   x1="18017.5"
   xlink:href="#id4"
   gradientUnits="userSpaceOnUse"
   id="id7">
  </linearGradient>
  <linearGradient
   y2="11446.5"
   x2="19473.199"
   y1="11446.5"
   x1="18017.5"
   xlink:href="#id4"
   gradientUnits="userSpaceOnUse"
   id="id8">
  </linearGradient>
  <linearGradient
   y2="12266.6"
   x2="19473.199"
   y1="12266.6"
   x1="18017.5"
   xlink:href="#id4"
   gradientUnits="userSpaceOnUse"
   id="id9">
  </linearGradient>
  <linearGradient
   y2="12391.6"
   x2="17830.699"
   y1="12391.6"
   x1="16375.1"
   xlink:href="#id4"
   gradientUnits="userSpaceOnUse"
   id="id10">
  </linearGradient>
  <linearGradient
   y2="13211.6"
   x2="17830.699"
   y1="13211.6"
   x1="16375.1"
   xlink:href="#id4"
   gradientUnits="userSpaceOnUse"
   id="id11">
  </linearGradient>
  <linearGradient
   y2="12802.4"
   x2="17830.699"
   y1="12802.4"
   x1="16375.1"
   xlink:href="#id4"
   gradientUnits="userSpaceOnUse"
   id="id12">
  </linearGradient>
  <linearGradient
   y2="5717.5098"
   x2="23746.801"
   y1="5717.5098"
   x1="20145.199"
   gradientUnits="userSpaceOnUse"
   id="id13">
   <stop
   id="stop1992"
   style="stop-opacity:1; stop-color:#1CBBEE"
   offset="0" />
   <stop
   id="stop1994"
   style="stop-opacity:1; stop-color:#83D0F4"
   offset="0.501961" />
   <stop
   id="stop1996"
   style="stop-opacity:1; stop-color:#E9F6FD"
   offset="0.541176" />
   <stop
   id="stop1998"
   style="stop-opacity:1; stop-color:#E9F6FD"
   offset="1" />
  </linearGradient>
  <linearGradient
   y2="8011.5"
   x2="23746.801"
   y1="8011.5"
   x1="20145.199"
   xlink:href="#id13"
   gradientUnits="userSpaceOnUse"
   id="id14">
  </linearGradient>
  <linearGradient
   y2="7448.7202"
   x2="23746.801"
   y1="7448.7202"
   x1="20145.199"
   xlink:href="#id13"
   gradientUnits="userSpaceOnUse"
   id="id15">
  </linearGradient>
  <linearGradient
   y2="6860.9702"
   x2="23746.801"
   y1="6860.9702"
   x1="20145.199"
   xlink:href="#id13"
   gradientUnits="userSpaceOnUse"
   id="id16">
  </linearGradient>
  <linearGradient
   y2="5129.7598"
   x2="23746.801"
   y1="5129.7598"
   x1="20145.199"
   xlink:href="#id13"
   gradientUnits="userSpaceOnUse"
   id="id17">
  </linearGradient>
  <linearGradient
   y2="6280.29"
   x2="23746.801"
   y1="6280.29"
   x1="20145.199"
   xlink:href="#id13"
   gradientUnits="userSpaceOnUse"
   id="id18">
  </linearGradient>
  <linearGradient
   y2="11379.7"
   x2="13451.3"
   y1="11379.7"
   x1="11995.7"
   xlink:href="#id4"
   gradientUnits="userSpaceOnUse"
   id="id19">
  </linearGradient>
  <linearGradient
   y2="11790.6"
   x2="13451.3"
   y1="11790.6"
   x1="11995.7"
   xlink:href="#id4"
   gradientUnits="userSpaceOnUse"
   id="id20">
  </linearGradient>
  <linearGradient
   y2="12199.8"
   x2="13451.3"
   y1="12199.8"
   x1="11995.7"
   xlink:href="#id4"
   gradientUnits="userSpaceOnUse"
   id="id21">
  </linearGradient>
  <linearGradient
   y2="12909.9"
   x2="15308.4"
   y1="12909.9"
   x1="13852.8"
   xlink:href="#id4"
   gradientUnits="userSpaceOnUse"
   id="id22">
  </linearGradient>
  <linearGradient
   y2="13319.1"
   x2="15308.4"
   y1="13319.1"
   x1="13852.8"
   xlink:href="#id4"
   gradientUnits="userSpaceOnUse"
   id="id23">
  </linearGradient>
  <linearGradient
   y2="12499.1"
   x2="15308.4"
   y1="12499.1"
   x1="13852.8"
   xlink:href="#id4"
   gradientUnits="userSpaceOnUse"
   id="id24">
  </linearGradient>
  <linearGradient
   y2="8851.6504"
   x2="15308.4"
   y1="8851.6504"
   x1="13852.8"
   xlink:href="#id4"
   gradientUnits="userSpaceOnUse"
   id="id25">
  </linearGradient>
  <linearGradient
   y2="9671.6797"
   x2="15308.4"
   y1="9671.6797"
   x1="13852.8"
   xlink:href="#id4"
   gradientUnits="userSpaceOnUse"
   id="id26">
  </linearGradient>
  <linearGradient
   y2="9262.4902"
   x2="15308.4"
   y1="9262.4902"
   x1="13852.8"
   xlink:href="#id4"
   gradientUnits="userSpaceOnUse"
   id="id27">
  </linearGradient>
  <linearGradient
   y2="8745.1904"
   x2="17830.699"
   y1="8745.1904"
   x1="16375.1"
   xlink:href="#id4"
   gradientUnits="userSpaceOnUse"
   id="id28">
  </linearGradient>
  <linearGradient
   y2="9156.0303"
   x2="17830.699"
   y1="9156.0303"
   x1="16375.1"
   xlink:href="#id4"
   gradientUnits="userSpaceOnUse"
   id="id29">
  </linearGradient>
  <linearGradient
   y2="9565.2197"
   x2="17830.699"
   y1="9565.2197"
   x1="16375.1"
   xlink:href="#id4"
   gradientUnits="userSpaceOnUse"
   id="id30">
  </linearGradient>
  <linearGradient
   y2="9635.4199"
   x2="13451.3"
   y1="9635.4199"
   x1="11995.7"
   xlink:href="#id4"
   gradientUnits="userSpaceOnUse"
   id="id31">
  </linearGradient>
  <linearGradient
   y2="10455.5"
   x2="13451.3"
   y1="10455.5"
   x1="11995.7"
   xlink:href="#id4"
   gradientUnits="userSpaceOnUse"
   id="id32">
  </linearGradient>
  <linearGradient
   y2="10046.3"
   x2="13451.3"
   y1="10046.3"
   x1="11995.7"
   xlink:href="#id4"
   gradientUnits="userSpaceOnUse"
   id="id33">
  </linearGradient>
 <linearGradient
   y2="10557.3"
   x2="19473.1"
   y1="10557.3"
   x1="18017.5"
   gradientUnits="userSpaceOnUse"
   id="linearGradient2973"
   xlink:href="#id4" /><linearGradient
   y2="5717.5098"
   x2="23746.801"
   y1="5717.5098"
   x1="20145.199"
   gradientUnits="userSpaceOnUse"
   id="linearGradient2975"
   xlink:href="#id13" /></defs>
 <g
   transform="translate(-3214.9758,-864)"
   id="Vrstva_x0020_1">
  <metadata
   id="CorelCorpID_0Corel-Layer" />
  
  <polygon
   style="fill:#00b1eb;stroke:#57c4ef;stroke-width:25"
   id="polygon2026"
   points="18301,9805 23586,6754 23609,6794 18324,9845 "
   class="fil1 str0" />
  <polygon
   style="fill:#00b1eb;stroke:#57c4ef;stroke-width:25"
   id="polygon2028"
   points="5418,17247 13421,12627 13444,12667 5441,17288 "
   class="fil1 str0" />
  <g
   id="_1109427312">
   <g
   id="g2038">
    <path
   style="fill:#57c4ef;fill-rule:nonzero"
   id="path2030"
   d="m 11201,14013 c -1,-11 -2,-21 -4,-30 -6,-42 -15,-82 -26,-119 l -230,40 c -27,-51 -61,-94 -101,-128 l 61,-264 c -42,-24 -89,-41 -138,-52 l -190,222 c -45,0 -92,6 -140,19 l -109,-183 c -28,13 -57,27 -86,43 -30,17 -58,35 -87,55 l -40,267 c -44,39 -85,83 -123,129 l -222,11 c -38,61 -73,124 -102,189 l 125,159 c -23,69 -40,140 -48,209 l -206,206 c 1,44 5,87 11,129 2,10 3,20 5,30 l 217,-37 c 24,72 61,133 107,180 l -65,279 c 30,19 63,36 97,49 l 183,-214 c 77,14 161,7 249,-21 l 110,185 c 18,-9 37,-19 56,-30 19,-10 37,-21 55,-33 l 41,-269 c 82,-68 156,-151 217,-242 l 214,-11 c 25,-46 47,-93 67,-140 l -131,-167 c 26,-89 40,-180 40,-268 z"
   class="fil2" />
    <path
   style="fill:#008dd2;fill-rule:nonzero"
   id="path2032"
   d="m 10843,14179 c 42,280 -135,626 -395,773 -261,147 -506,40 -549,-240 -42,-280 135,-627 396,-774 260,-147 506,-39 548,241 z"
   class="fil3" />
    <path
   style="fill:#008dd2;fill-rule:nonzero"
   id="path2034"
   d="m 10764,14223 c 36,234 -112,522 -329,645 -217,122 -422,33 -457,-201 -35,-233 112,-522 330,-644 217,-123 421,-33 456,200 z"
   class="fil3" />
    <path
   style="fill:#008dd2;fill-rule:nonzero"
   id="path2036"
   d="m 10646,14290 c 25,163 -78,365 -230,451 -152,86 -295,23 -320,-140 -25,-164 79,-366 231,-452 152,-85 295,-23 319,141 z"
   class="fil3" />
   </g>
   <g
   id="g2048">
    <path
   style="fill:#57c4ef;fill-rule:nonzero"
   id="path2040"
   d="m 9897,13756 -166,-42 c -10,-63 -31,-117 -60,-161 l 73,-220 c -28,-26 -58,-48 -92,-65 l -174,153 c -41,-8 -85,-9 -131,-1 l -85,-157 c -23,8 -46,18 -69,30 -22,11 -44,23 -66,37 l -49,225 c -43,36 -82,78 -118,125 l -188,28 c -27,47 -51,95 -71,144 l 107,132 c -18,68 -27,137 -25,205 l -144,197 c 8,39 20,75 34,108 l 186,-60 c 34,47 78,82 129,103 l 6,210 c 34,5 70,6 106,3 l 121,-206 c 29,-9 59,-20 90,-36 30,-15 60,-33 88,-53 l 146,72 c 34,-33 67,-68 97,-105 l -33,-196 c 43,-68 76,-141 99,-216 l 177,-121 c 8,-45 11,-89 12,-133 z"
   class="fil2" />
    <path
   style="fill:#008dd2;fill-rule:nonzero"
   id="path2042"
   d="m 9617,13814 c 20,215 -122,470 -319,569 -197,98 -374,3 -394,-213 -21,-216 122,-471 319,-569 197,-98 373,-3 394,213 z"
   class="fil3" />
    <path
   style="fill:#008dd2;fill-rule:nonzero"
   id="path2044"
   d="m 9498,13873 c 14,144 -81,314 -213,379 -131,66 -249,3 -262,-141 -14,-144 81,-314 212,-380 132,-65 249,-2 263,142 z"
   class="fil3" />
    <path
   style="fill:#008dd2;fill-rule:nonzero"
   id="path2046"
   d="m 9378,13933 c 7,72 -41,157 -106,190 -66,32 -125,1 -132,-71 -7,-72 41,-157 107,-190 65,-33 124,-1 131,71 z"
   class="fil3" />
   </g>
   <g
   id="g2060">
    <g
   id="g2056">
     <path
   style="fill:#57c4ef;fill-rule:nonzero"
   id="path2050"
   d="m 10917,12100 c -2,-28 -5,-56 -9,-84 -5,-30 -10,-59 -18,-87 l -171,49 c -10,-27 -22,-53 -36,-77 l 103,-194 c -31,-40 -65,-75 -104,-103 l -154,141 c -22,-13 -46,-23 -70,-31 l 20,-199 c -49,-9 -100,-12 -153,-8 l -96,195 c -29,5 -58,13 -87,23 l -66,-151 c -27,12 -54,26 -82,41 -27,15 -54,32 -80,50 l -14,196 c -27,22 -54,46 -79,71 l -136,-63 c -46,51 -88,106 -126,165 l 72,146 c -19,33 -36,66 -51,100 l -169,41 c -24,64 -44,130 -58,195 l 140,57 c -5,35 -8,68 -9,102 l -158,137 c 2,31 5,62 9,92 4,28 10,54 16,80 l 172,-49 c 10,28 22,53 36,77 l -104,198 c 30,40 64,74 101,103 l 158,-144 c 22,12 46,22 70,31 l -20,205 c 47,9 97,12 149,8 l 101,-202 c 28,-5 57,-12 86,-23 l 69,157 c 27,-11 53,-25 80,-40 27,-15 53,-31 78,-49 l 15,-204 c 28,-22 54,-46 79,-71 l 141,66 c 45,-51 86,-105 124,-163 l -75,-151 c 19,-33 36,-66 51,-100 l 173,-42 c 24,-64 43,-128 57,-193 l -143,-58 c 5,-34 8,-68 9,-102 z"
   class="fil2" />
     <path
   style="fill:#008dd2;fill-rule:nonzero"
   id="path2052"
   d="m 10625,12176 c 45,299 -144,668 -422,825 -278,157 -540,42 -585,-257 -45,-299 144,-668 422,-825 278,-157 540,-42 585,257 z"
   class="fil3" />
     <path
   style="fill:#008dd2;fill-rule:nonzero"
   id="path2054"
   d="m 10562,12211 c 39,262 -126,585 -369,722 -243,138 -472,37 -512,-224 -39,-262 126,-585 369,-722 244,-138 473,-37 512,224 z"
   class="fil3" />
    </g>
    <path
   style="fill:#008dd2;fill-rule:nonzero"
   id="path2058"
   d="m 10436,12282 c 28,187 -90,418 -263,516 -174,98 -338,26 -366,-160 -28,-187 90,-418 264,-516 173,-98 337,-26 365,160 z"
   class="fil3" />
   </g>
  </g>
  <path
   id="path2063"
   mask="url(#id0)"
   d="m 19648,7646 1958,-1126 c 187,-107 517,-93 733,31 l 1851,1065 c 217,124 241,314 54,421 l -1958,1126 c -187,108 -517,94 -733,-31 L 19702,8068 c -217,-125 -241,-314 -54,-422 z"
   style="fill:#0f50d0"
   class="fil4" />
  <g
   id="_1109425488">
   <path
   style="fill:#ebecec"
   id="path2065"
   d="m 6494,13478 948,532 c 72,40 131,151 131,246 v 2179 c 0,58 -22,97 -55,109 l -85,49 c -27,16 -62,7 -78,-20 v 0 c -15,-27 -7,-61 19,-77 l -880,-494 c -72,-40 -131,-151 -131,-246 v -2139 c -24,9 -51,0 -64,-22 v 0 c -14,-25 -6,-57 19,-71 l 88,-51 c 2,-1 4,-2 7,-3 22,-11 50,-9 81,8 z"
   class="fil5" />
   <path
   style="fill:#23bcee"
   id="path2067"
   d="m 6396,13532 949,532 c 72,40 131,151 131,245 v 2180 c 0,94 -59,139 -131,98 l -949,-531 c -72,-41 -131,-151 -131,-246 v -2180 c 0,-94 59,-139 131,-98 z"
   class="fil6" />
   <path
   style="fill:#1039c2"
   id="path2069"
   d="m 7310,14184 -891,-509 c -41,-24 -75,1 -75,57 v 1877 c 0,55 34,120 75,144 l 891,510 c 41,24 75,-2 75,-57 v -1877 c 0,-56 -34,-121 -75,-145 z"
   class="fil7" />
   <rect
   style="fill:#ebecec"
   y="0"
   x="0"
   id="rect2071"
   ry="81"
   rx="81"
   height="329"
   width="984"
   transform="matrix(0.519329,0.297744,0,0.519329,6563.26,15906.9)"
   class="fil5" />
  </g>
  <path
   style="fill:#00b1eb;fill-rule:nonzero"
   id="path2074"
   d="m 18305,13959 112,-64 c 54,-31 62,-66 10,-94 l -1,-1 c -39,-21 -78,-20 -117,-10 6,-16 5,-36 -30,-54 l -1,-1 c -19,-10 -40,-15 -64,-16 -30,-1 -61,7 -88,22 l -108,63 z m -124,-114 -77,-41 61,-35 c 27,-16 56,-17 79,-5 l 1,1 c 26,14 21,31 -7,47 z m 121,66 -79,-42 67,-39 c 34,-20 64,-21 89,-8 v 0 c 26,14 22,32 -7,49 z"
   class="fil8" />
  <polygon
   style="fill:#00b1eb;fill-rule:nonzero"
   points="18309,13636 18266,13660 18554,13816 18723,13718 18677,13693 18550,13766 "
   class="fil8"
   id="1" />
  <path
   style="fill:#00b1eb;fill-rule:nonzero"
   d="m 18874,13637 c 74,-43 58,-110 -23,-154 h -1 c -80,-44 -199,-50 -273,-7 -74,42 -59,109 22,153 h 1 c 81,44 199,51 274,8 z m -46,-26 c -48,28 -129,23 -185,-8 v 0 c -56,-30 -68,-74 -20,-102 47,-28 128,-22 184,8 h 1 c 56,31 68,75 20,102 z"
   class="fil8"
   id="2" />
  <path
   style="fill:#00b1eb;fill-rule:nonzero"
   d="m 19163,13470 c 45,-27 53,-53 47,-85 l -60,-2 c 3,25 -2,44 -32,61 -46,26 -125,21 -182,-10 v 0 c -57,-31 -68,-74 -22,-101 27,-16 62,-20 103,-20 l -10,-36 c -50,-1 -95,5 -139,31 -73,42 -58,108 24,152 h 1 c 82,45 200,50 270,10 z"
   class="fil8"
   id="3" />
  <polygon
   style="fill:#00b1eb;fill-rule:nonzero"
   points="19463,13291 19514,13261 19246,13233 19222,13108 19170,13138 19200,13283 19056,13205 19013,13229 19301,13385 19343,13360 19260,13315 19251,13269 "
   class="fil8"
   id="4" />
  <path
   style="fill:#00b1eb;fill-rule:nonzero"
   d="m 19649,13189 c 45,-26 53,-53 47,-84 l -60,-2 c 2,24 -2,43 -32,60 -46,27 -125,21 -182,-9 l -1,-1 c -56,-30 -68,-74 -21,-101 27,-16 62,-20 103,-19 l -10,-36 c -50,-1 -95,4 -139,30 -74,42 -58,108 24,152 l 1,1 c 82,44 200,50 270,9 z"
   class="fil8"
   id="5" />
  <polygon
   style="fill:#00b1eb;fill-rule:nonzero"
   points="19944,13013 19986,12989 19699,12833 19657,12858 19776,12922 19661,12989 19541,12924 19499,12949 19787,13104 19829,13080 19708,13014 19823,12948 "
   class="fil8"
   id="6" />
  <path
   style="fill:#00b1eb;fill-rule:nonzero"
   d="m 20028,12965 43,-25 -44,-52 114,-66 94,24 44,-26 -395,-96 -40,23 z m -31,-110 -73,-86 156,38 z"
   class="fil8"
   id="7" />
  <polygon
   style="fill:#00b1eb;fill-rule:nonzero"
   points="20323,12794 20366,12770 20078,12614 20036,12639 "
   class="fil8"
   id="8" />
  <polygon
   style="fill:#00b1eb;fill-rule:nonzero"
   points="20640,12611 20353,12456 20311,12480 20510,12587 20182,12554 20142,12577 20430,12733 20472,12709 20267,12598 20605,12632 "
   class="fil8"
   id="9" />
  <g
   id="_1109423088">
   <path
   style="fill:#2dbdef"
   id="path2085"
   d="m 7522,17271 v -100 h -64 c -7,-6 -15,-11 -24,-16 l -1594,-918 c -106,-61 -268,-67 -359,-15 l -2161,1243 h -105 v 112 0 c -1,42 29,86 88,120 l 1594,917 c 106,61 268,68 359,15 l 2204,-1267 c 43,-25 63,-57 62,-91 z"
   class="fil9" />
   <path
   style="fill:#ebecec"
   id="path2087"
   d="m 3280,17397 2204,-1268 c 92,-53 254,-46 360,15 l 1590,908 c 106,61 118,154 26,206 l -2204,1268 c -91,53 -253,46 -359,-15 l -1591,-908 c -106,-60 -118,-154 -26,-206 z"
   class="fil5" />
   <path
   style="fill:#1039c2"
   id="path2089"
   d="m 3690,17274 1725,-992 c 77,-44 213,-39 302,12 l 1457,839 c 88,51 98,129 21,173 l -1724,992 c -77,44 -213,39 -302,-12 l -1457,-839 c -89,-51 -98,-129 -22,-173 z"
   class="fil7" />
   <ellipse
   style="fill:#c5c6c6"
   id="ellipse2091"
   ry="86"
   rx="169"
   cy="17970"
   cx="4316"
   class="fil10" />
   <rect
   style="fill:#c5c6c6"
   y="0"
   x="0"
   id="rect2093"
   ry="51"
   rx="51"
   height="102"
   width="432"
   transform="matrix(-0.699944,-0.404113,-0.812323,0.464263,6620.96,16656)"
   class="fil10" />
  </g>
  <path
   style="fill:#23bcee;fill-rule:nonzero"
   id="path2096"
   d="m 4652,17335 32,21 69,-26 85,54 -33,49 33,21 135,-206 -29,-18 z m 146,-21 115,-43 -54,82 z"
   class="fil11" />
  <path
   style="fill:#23bcee;fill-rule:nonzero"
   d="m 4868,17473 32,20 68,-49 35,22 c 40,25 97,28 144,-7 h 1 c 43,-32 44,-69 3,-95 l -70,-45 z m 134,-54 76,-55 36,23 c 24,15 26,34 1,52 h -1 c -22,16 -52,19 -76,3 z"
   class="fil11"
   id="path2098" />
  <path
   style="fill:#23bcee;fill-rule:nonzero"
   d="m 5039,17582 31,20 68,-50 36,23 c 39,25 96,27 143,-8 h 1 c 43,-31 45,-68 3,-95 l -70,-45 z m 133,-54 76,-56 37,23 c 23,15 25,34 0,52 v 1 c -22,16 -53,18 -77,3 z"
   class="fil11"
   id="path2100" />
  <path
   style="fill:#23bcee;fill-rule:nonzero"
   d="m 5268,17732 c 38,24 88,24 127,-5 l 1,-1 c 35,-25 32,-50 5,-82 -25,-28 -26,-39 -9,-51 v 0 c 14,-10 36,-12 55,0 16,10 24,26 26,47 l 45,-10 c -1,-24 -12,-44 -38,-61 -35,-22 -86,-20 -122,6 l -1,1 c -39,28 -31,52 -4,84 24,27 23,38 8,49 h -1 c -16,12 -39,12 -58,0 -22,-15 -29,-33 -29,-56 l -45,7 c -2,30 13,55 40,72 z"
   class="fil11"
   id="path2102" />
  <polygon
   style="fill:#00b1eb;stroke:#57c4ef;stroke-width:25"
   id="polygon2104"
   points="17298,9593 18646,10360 18623,10400 17255,9622 "
   class="fil1 str0" />
  <g
   id="_1085813808">
   <g
   id="g2110">
    <ellipse
   style="fill:#393185;stroke:#00b1eb;stroke-width:50"
   id="ellipse2106"
   ry="64"
   rx="126"
   cy="9978"
   cx="17906"
   class="fil12 str1" />
    <ellipse
   style="fill:#140694;stroke:#57c4ef;stroke-width:50"
   id="ellipse2108"
   ry="156"
   rx="308"
   cy="9978"
   cx="17906"
   class="fil13 str2" />
   </g>
   <ellipse
   style="fill:#00b1eb;stroke:#00b1eb;stroke-width:50"
   id="ellipse2112"
   ry="64"
   rx="126"
   cy="9978"
   cx="17906"
   class="fil1 str1" />
  </g>
  <polygon
   style="fill:#00b1eb;stroke:#57c4ef;stroke-width:25"
   id="polygon2115"
   points="12943,12329 14292,13096 14269,13136 12901,12358 "
   class="fil1 str0" />
  <polygon
   style="fill:#00b1eb;stroke:#57c4ef;stroke-width:25"
   id="polygon2117"
   points="14831,12874 18697,10611 18744,10637 14876,12900 "
   class="fil1 str0" />
  <polygon
   style="fill:#00b1eb;stroke:#57c4ef;stroke-width:25"
   id="polygon2119"
   points="14466,11371 15815,12138 15791,12178 14423,11400 "
   class="fil1 str0" />
  <g
   id="_1085810320">
   <g
   id="g2125">
    <path
   style="fill:url(#linearGradient2973)"
   id="path2121"
   d="m 19473,10196 v 355 4 0 c -4,201 -328,363 -728,363 -399,0 -724,-162 -727,-363 v 0 -4 -355 c 494,0 961,0 1455,0 z"
   class="fil14" />
    <ellipse
   style="fill:#00ade9"
   id="ellipse2123"
   ry="368"
   rx="728"
   cy="10218"
   cx="18745"
   class="fil15" />
   </g>
   <g
   id="g2131">
    <path
   style="fill:url(#id6)"
   id="path2127"
   d="m 19473,9787 v 355 3 0 c -4,202 -328,364 -728,364 -399,0 -724,-162 -727,-364 v 0 -3 -355 c 494,0 961,0 1455,0 z"
   class="fil16" />
    <ellipse
   style="fill:#00ade9"
   id="ellipse2129"
   ry="368"
   rx="728"
   cy="9808"
   cx="18745"
   class="fil15" />
   </g>
   <g
   id="g2137">
    <path
   style="fill:url(#id5)"
   id="path2133"
   d="m 19473,9376 v 355 4 0 c -4,201 -328,363 -728,363 -399,0 -724,-162 -727,-363 v 0 -4 -355 c 494,0 961,0 1455,0 z"
   class="fil17" />
    <ellipse
   style="fill:#ebecec"
   id="ellipse2135"
   ry="368"
   rx="728"
   cy="9398"
   cx="18745"
   class="fil5" />
   </g>
  </g>
  <g
   id="_1085809104">
   <g
   id="g2144">
    <ellipse
   style="fill:#393185;stroke:#00b1eb;stroke-width:50"
   id="ellipse2140"
   ry="64"
   rx="126"
   cy="12212"
   cx="16060"
   class="fil12 str1" />
    <ellipse
   style="fill:#140694;stroke:#57c4ef;stroke-width:50"
   id="ellipse2142"
   ry="156"
   rx="308"
   cy="12212"
   cx="16060"
   class="fil13 str2" />
   </g>
   <ellipse
   style="fill:#00b1eb;stroke:#00b1eb;stroke-width:50"
   id="ellipse2146"
   ry="64"
   rx="126"
   cy="12212"
   cx="16060"
   class="fil1 str1" />
  </g>
  <polygon
   style="fill:#00b1eb;stroke:#57c4ef;stroke-width:25"
   id="polygon2149"
   points="17589,11520 18396,12013 18349,12039 17541,11546 "
   class="fil1 str0" />
  <polygon
   style="fill:#00b1eb;stroke:#57c4ef;stroke-width:25"
   id="polygon2151"
   points="16260,12348 16903,12711 16880,12751 16217,12377 "
   class="fil1 str0" />
  <polygon
   style="fill:#00b1eb;stroke:#57c4ef;stroke-width:25"
   id="polygon2153"
   points="14703,9827 15507,10318 15460,10343 14660,9856 "
   class="fil1 str0" />
  <polygon
   style="fill:#00b1eb;stroke:#57c4ef;stroke-width:25"
   id="polygon2155"
   points="13017,10536 14069,11139 14015,11161 12975,10565 "
   class="fil1 str0" />
  <polygon
   style="fill:#00b1eb;stroke:#57c4ef;stroke-width:25"
   id="polygon2157"
   points="13017,11958 16883,9695 16930,9721 13062,11984 "
   class="fil1 str0" />
  <polygon
   style="fill:#00b1eb;stroke:#57c4ef;stroke-width:25"
   id="polygon2159"
   points="15908,10563 17190,11303 17145,11331 15850,10583 "
   class="fil1 str0" />
  <g
   id="_1085804784">
   <g
   id="g2165">
    <path
   style="fill:url(#id26)"
   id="path2161"
   d="m 15308,9311 v 354 4 0 c -4,201 -328,364 -727,364 -400,0 -724,-163 -728,-364 v 0 -4 -354 c 494,0 961,0 1455,0 z"
   class="fil18" />
    <ellipse
   style="fill:#00ade9"
   id="ellipse2163"
   ry="368"
   rx="728"
   cy="9332"
   cx="14581"
   class="fil15" />
   </g>
   <g
   id="g2171">
    <path
   style="fill:url(#id27)"
   id="path2167"
   d="m 15308,8901 v 355 4 0 c -4,201 -328,364 -727,364 -400,0 -724,-163 -728,-364 v 0 -4 -355 c 494,0 961,0 1455,0 z"
   class="fil19" />
    <ellipse
   style="fill:#00ade9"
   id="ellipse2169"
   ry="368"
   rx="728"
   cy="8923"
   cx="14581"
   class="fil15" />
   </g>
   <g
   id="g2177">
    <path
   style="fill:url(#id25)"
   id="path2173"
   d="m 15308,8490 v 355 4 0 c -4,201 -328,364 -727,364 -400,0 -724,-163 -728,-364 v 0 -4 -355 c 494,0 961,0 1455,0 z"
   class="fil20" />
    <ellipse
   style="fill:#ebecec"
   id="ellipse2175"
   ry="368"
   rx="728"
   cy="8512"
   cx="14581"
   class="fil5" />
   </g>
  </g>
  <g
   id="_1085802256">
   <g
   id="g2184">
    <path
   style="fill:url(#id32)"
   id="path2180"
   d="m 13451,10094 v 355 4 0 c -4,201 -328,364 -728,364 -399,0 -723,-163 -727,-364 v 0 -4 -355 c 494,0 961,0 1455,0 z"
   class="fil21" />
    <ellipse
   style="fill:#00ade9"
   id="ellipse2182"
   ry="368"
   rx="728"
   cy="10116"
   cx="12723"
   class="fil15" />
   </g>
   <g
   id="g2190">
    <path
   style="fill:url(#id33)"
   id="path2186"
   d="m 13451,9685 v 355 4 0 c -4,201 -328,363 -728,363 -399,0 -723,-162 -727,-363 v 0 -4 -355 c 494,0 961,0 1455,0 z"
   class="fil22" />
    <ellipse
   style="fill:#00ade9"
   id="ellipse2188"
   ry="368"
   rx="728"
   cy="9707"
   cx="12723"
   class="fil15" />
   </g>
   <g
   id="g2196">
    <path
   style="fill:url(#id31)"
   id="path2192"
   d="m 13451,9274 v 355 4 0 c -4,201 -328,364 -728,364 -399,0 -723,-163 -727,-364 v 0 -4 -355 c 494,0 961,0 1455,0 z"
   class="fil23" />
    <ellipse
   style="fill:#ebecec"
   id="ellipse2194"
   ry="368"
   rx="728"
   cy="9296"
   cx="12723"
   class="fil5" />
   </g>
  </g>
  <g
   id="_1085799728">
   <g
   id="g2203">
    <path
   style="fill:url(#id9)"
   id="path2199"
   d="m 19473,11905 v 355 4 0 c -4,201 -328,364 -728,364 -399,0 -723,-163 -727,-364 v 0 -4 -355 c 494,0 961,0 1455,0 z"
   class="fil24" />
    <ellipse
   style="fill:#00ade9"
   id="ellipse2201"
   ry="368"
   rx="728"
   cy="11927"
   cx="18745"
   class="fil15" />
   </g>
   <g
   id="g2209">
    <path
   style="fill:url(#id7)"
   id="path2205"
   d="m 19473,11496 v 355 4 0 c -4,201 -328,364 -728,364 -399,0 -723,-163 -727,-364 v 0 -4 -355 c 494,0 961,0 1455,0 z"
   class="fil25" />
    <ellipse
   style="fill:#00ade9"
   id="ellipse2207"
   ry="368"
   rx="728"
   cy="11518"
   cx="18745"
   class="fil15" />
   </g>
   <g
   id="g2215">
    <path
   style="fill:url(#id8)"
   id="path2211"
   d="m 19473,11085 v 355 4 0 c -4,201 -328,364 -728,364 -399,0 -723,-163 -727,-364 v 0 -4 -355 c 494,0 961,0 1455,0 z"
   class="fil26" />
    <ellipse
   style="fill:#ebecec"
   id="ellipse2213"
   ry="368"
   rx="728"
   cy="11107"
   cx="18745"
   class="fil5" />
   </g>
  </g>
  <g
   id="_1117494976">
   <g
   id="g2222">
    <path
   style="fill:url(#id30)"
   id="path2218"
   d="m 17831,9204 v 355 4 0 c -4,201 -329,363 -728,363 -400,0 -724,-162 -728,-363 v 0 -4 -355 c 494,0 962,0 1456,0 z"
   class="fil27" />
    <ellipse
   style="fill:#00ade9"
   id="ellipse2220"
   ry="368"
   rx="728"
   cy="9226"
   cx="17103"
   class="fil15" />
   </g>
   <g
   id="g2228">
    <path
   style="fill:url(#id29)"
   id="path2224"
   d="m 17831,8795 v 355 3 0 c -4,202 -329,364 -728,364 -400,0 -724,-162 -728,-364 v 0 -3 -355 c 494,0 962,0 1456,0 z"
   class="fil28" />
    <ellipse
   style="fill:#00ade9"
   id="ellipse2226"
   ry="368"
   rx="728"
   cy="8816"
   cx="17103"
   class="fil15" />
   </g>
   <g
   id="g2234">
    <path
   style="fill:url(#id28)"
   id="path2230"
   d="m 17831,8384 v 355 3 0 c -4,202 -329,364 -728,364 -400,0 -724,-162 -728,-364 v 0 -3 -355 c 494,0 962,0 1456,0 z"
   class="fil29" />
    <ellipse
   style="fill:#ebecec"
   id="ellipse2232"
   ry="368"
   rx="728"
   cy="8406"
   cx="17103"
   class="fil5" />
   </g>
  </g>
  <g
   id="_1117492448">
   <g
   id="g2241">
    <path
   style="fill:url(#id21)"
   id="path2237"
   d="m 13451,11839 v 354 4 0 c -4,201 -328,364 -728,364 -399,0 -723,-163 -727,-364 v 0 -4 -354 c 494,0 961,0 1455,0 z"
   class="fil30" />
    <ellipse
   style="fill:#00ade9"
   id="ellipse2239"
   ry="368"
   rx="728"
   cy="11860"
   cx="12723"
   class="fil15" />
   </g>
   <g
   id="g2247">
    <path
   style="fill:url(#id20)"
   id="path2243"
   d="m 13451,11429 v 355 4 0 c -4,201 -328,364 -728,364 -399,0 -723,-163 -727,-364 v 0 -4 -355 c 494,0 961,0 1455,0 z"
   class="fil31" />
    <ellipse
   style="fill:#00ade9"
   id="ellipse2245"
   ry="368"
   rx="728"
   cy="11451"
   cx="12723"
   class="fil15" />
   </g>
   <g
   id="g2253">
    <path
   style="fill:url(#id19)"
   id="path2249"
   d="m 13451,11019 v 354 4 0 c -4,201 -328,364 -728,364 -399,0 -723,-163 -727,-364 v 0 -4 -354 c 494,0 961,0 1455,0 z"
   class="fil32" />
    <ellipse
   style="fill:#ebecec"
   id="ellipse2251"
   ry="368"
   rx="728"
   cy="11040"
   cx="12723"
   class="fil5" />
   </g>
  </g>
  <g
   id="_1117489920">
   <g
   id="g2260">
    <path
   style="fill:url(#id23)"
   id="path2256"
   d="m 15308,12958 v 355 3 0 c -4,202 -328,364 -727,364 -400,0 -724,-162 -728,-364 v 0 -3 -355 c 494,0 961,0 1455,0 z"
   class="fil33" />
    <ellipse
   style="fill:#00ade9"
   id="ellipse2258"
   ry="368"
   rx="728"
   cy="12979"
   cx="14581"
   class="fil15" />
   </g>
   <g
   id="g2266">
    <path
   style="fill:url(#id22)"
   id="path2262"
   d="m 15308,12549 v 355 3 0 c -4,202 -328,364 -727,364 -400,0 -724,-162 -728,-364 v 0 -3 -355 c 494,0 961,0 1455,0 z"
   class="fil34" />
    <ellipse
   style="fill:#00ade9"
   id="ellipse2264"
   ry="368"
   rx="728"
   cy="12570"
   cx="14581"
   class="fil15" />
   </g>
   <g
   id="g2272">
    <path
   style="fill:url(#id24)"
   id="path2268"
   d="m 15308,12138 v 355 3 0 c -4,202 -328,364 -727,364 -400,0 -724,-162 -728,-364 v 0 -3 -355 c 494,0 961,0 1455,0 z"
   class="fil35" />
    <ellipse
   style="fill:#ebecec"
   id="ellipse2270"
   ry="368"
   rx="728"
   cy="12159"
   cx="14581"
   class="fil5" />
   </g>
  </g>
  <g
   id="_1117488704">
   <g
   id="g2279">
    <ellipse
   style="fill:#393185;stroke:#00b1eb;stroke-width:50"
   id="ellipse2275"
   ry="64"
   rx="126"
   cy="11277"
   cx="14234"
   class="fil12 str1" />
    <ellipse
   style="fill:#140694;stroke:#57c4ef;stroke-width:50"
   id="ellipse2277"
   ry="156"
   rx="308"
   cy="11277"
   cx="14234"
   class="fil13 str2" />
   </g>
   <ellipse
   style="fill:#00b1eb;stroke:#00b1eb;stroke-width:50"
   id="ellipse2281"
   ry="64"
   rx="126"
   cy="11277"
   cx="14234"
   class="fil1 str1" />
  </g>
  <g
   id="_1114086048">
   <g
   id="g2288">
    <ellipse
   style="fill:#393185;stroke:#00b1eb;stroke-width:50"
   id="ellipse2284"
   ry="64"
   rx="126"
   cy="10452"
   cx="15670"
   class="fil12 str1" />
    <ellipse
   style="fill:#140694;stroke:#57c4ef;stroke-width:50"
   id="ellipse2286"
   ry="156"
   rx="308"
   cy="10452"
   cx="15670"
   class="fil13 str2" />
   </g>
   <ellipse
   style="fill:#00b1eb;stroke:#00b1eb;stroke-width:50"
   id="ellipse2290"
   ry="64"
   rx="126"
   cy="10452"
   cx="15670"
   class="fil1 str1" />
  </g>
  <g
   id="_1114084832">
   <g
   id="g2297">
    <ellipse
   style="fill:#393185;stroke:#00b1eb;stroke-width:50"
   id="ellipse2293"
   ry="64"
   rx="126"
   cy="11438"
   cx="17302"
   class="fil12 str1" />
    <ellipse
   style="fill:#140694;stroke:#57c4ef;stroke-width:50"
   id="ellipse2295"
   ry="156"
   rx="308"
   cy="11438"
   cx="17302"
   class="fil13 str2" />
   </g>
   <ellipse
   style="fill:#00b1eb;stroke:#00b1eb;stroke-width:50"
   id="ellipse2299"
   ry="64"
   rx="126"
   cy="11438"
   cx="17302"
   class="fil1 str1" />
  </g>
  <g
   id="_1114082304">
   <g
   id="g2306">
    <path
   style="fill:url(#id11)"
   id="path2302"
   d="m 17831,12850 v 355 4 0 c -4,201 -329,364 -728,364 -400,0 -724,-163 -728,-364 v 0 -4 -355 c 494,0 962,0 1456,0 z"
   class="fil36" />
    <ellipse
   style="fill:#00ade9"
   id="ellipse2304"
   ry="368"
   rx="728"
   cy="12872"
   cx="17103"
   class="fil15" />
   </g>
   <g
   id="g2312">
    <path
   style="fill:url(#id12)"
   id="path2308"
   d="m 17831,12441 v 355 4 0 c -4,201 -329,364 -728,364 -400,0 -724,-163 -728,-364 v 0 -4 -355 c 494,0 962,0 1456,0 z"
   class="fil37" />
    <ellipse
   style="fill:#00ade9"
   id="ellipse2310"
   ry="368"
   rx="728"
   cy="12463"
   cx="17103"
   class="fil15" />
   </g>
   <g
   id="g2318">
    <path
   style="fill:url(#id10)"
   id="path2314"
   d="m 17831,12030 v 355 4 0 c -4,201 -329,364 -728,364 -400,0 -724,-163 -728,-364 v 0 -4 -355 c 494,0 962,0 1456,0 z"
   class="fil38" />
    <ellipse
   style="fill:#ebecec"
   id="ellipse2316"
   ry="368"
   rx="728"
   cy="12052"
   cx="17103"
   class="fil5" />
   </g>
  </g>
  <g
   id="_1114081088">
   <g
   id="g2325">
    <ellipse
   style="fill:#393185;stroke:#00b1eb;stroke-width:50"
   id="ellipse2321"
   ry="64"
   rx="126"
   cy="12660"
   cx="13461"
   class="fil12 str1" />
    <ellipse
   style="fill:#140694;stroke:#57c4ef;stroke-width:50"
   id="ellipse2323"
   ry="156"
   rx="308"
   cy="12660"
   cx="13461"
   class="fil13 str2" />
   </g>
   <ellipse
   style="fill:#00b1eb;stroke:#00b1eb;stroke-width:50"
   id="ellipse2327"
   ry="64"
   rx="126"
   cy="12660"
   cx="13461"
   class="fil1 str1" />
  </g>
  
  
  
  
  
  
  
  
  
  
  
  
  
  
  
  
  
  
  
  
  
  
  
  
  
  
  
  
  
  
  
  
  
  <g
   id="_1117441856">
   <polygon
   style="fill:#ebecec;fill-rule:nonzero"
   id="polygon2384"
   points="6956,15183 6956,15115 6880,15074 6880,15104 6723,15022 6723,14828 6880,14910 6880,14942 6956,14983 6956,14913 6956,14903 6927,14859 6918,14854 6685,14731 6679,14728 6647,14743 6647,14749 6647,15019 6647,15025 6679,15075 6685,15078 6918,15201 6927,15206 6956,15193 "
   class="fil42" />
   <polygon
   style="fill:#2396d3;fill-rule:nonzero"
   id="polygon2386"
   points="6773,14680 6773,14749 6849,14790 6849,14760 7005,14844 7005,15038 6849,14954 6849,14922 6773,14881 6773,14951 6773,14961 6801,15005 6811,15010 7043,15135 7049,15138 7082,15123 7082,15118 7082,14847 7082,14842 7049,14791 7043,14788 6811,14663 6801,14658 6773,14671 "
   class="fil43" />
  </g>
  <polygon
   style="fill:#00b1eb;fill-rule:nonzero"
   id="polygon2389"
   points="22463,11495 22515,11466 22246,11438 22223,11313 22171,11343 22201,11487 22056,11409 22014,11434 22301,11589 22344,11565 22260,11520 22252,11473 "
   class="fil8" />
  <path
   style="fill:#00b1eb;fill-rule:nonzero"
   d="m 22653,11392 c 74,-43 58,-110 -22,-154 h -1 c -81,-44 -200,-50 -274,-8 -74,43 -59,110 22,154 h 1 c 81,44 200,50 274,8 z m -46,-26 c -48,28 -128,22 -184,-8 h -1 c -56,-31 -68,-74 -20,-102 48,-28 128,-22 184,8 h 1 c 56,31 68,75 20,102 z"
   class="fil8"
   id="path2391" />
  <polygon
   style="fill:#00b1eb;fill-rule:nonzero"
   points="22874,11180 22814,11062 23020,11174 23063,11149 22775,10994 22730,11020 22793,11136 22583,11105 22538,11131 22826,11286 22867,11262 22662,11151 22872,11180 "
   class="fil8"
   id="polygon2393" />
  <path
   style="fill:#00b1eb;fill-rule:nonzero"
   d="m 23125,11114 42,-25 -92,-50 48,-27 c 53,-31 62,-74 -2,-109 l -1,-1 c -58,-31 -132,-31 -188,1 l -95,55 z m -96,-99 -103,-57 49,-28 c 32,-18 70,-20 103,-2 h 1 c 30,16 31,40 -1,58 z"
   class="fil8"
   id="path2395" />
  <polygon
   style="fill:#00b1eb;fill-rule:nonzero"
   points="23357,10979 23400,10955 23112,10799 23070,10824 "
   class="fil8"
   id="polygon2397" />
  <polygon
   style="fill:#00b1eb;fill-rule:nonzero"
   points="23355,10659 23159,10772 23206,10797 23283,10753 23523,10883 23566,10859 23325,10729 23402,10684 "
   class="fil8"
   id="polygon2399" />
  <polygon
   style="fill:#00b1eb;fill-rule:nonzero"
   points="23607,10698 23728,10628 23683,10604 23562,10674 23487,10633 23624,10554 23579,10530 23400,10633 23687,10789 23868,10685 23823,10660 23685,10740 "
   class="fil8"
   id="polygon2401" />
  <path
   style="fill:#00b1eb;fill-rule:nonzero"
   d="m 24035,10593 c 45,-26 53,-52 47,-84 l -60,-2 c 2,25 -2,43 -32,61 -46,26 -125,21 -182,-10 v 0 c -57,-31 -69,-74 -22,-101 27,-16 62,-20 103,-20 l -10,-36 c -50,-1 -95,5 -139,31 -73,42 -58,108 24,152 h 1 c 82,45 200,50 270,9 z"
   class="fil8"
   id="path2403" />
  <polygon
   style="fill:#00b1eb;fill-rule:nonzero"
   points="24330,10418 24373,10393 24085,10238 24043,10262 24162,10327 24047,10393 23927,10329 23885,10353 24173,10509 24215,10484 24094,10419 24209,10352 "
   class="fil8"
   id="polygon2405" />
  <path
   style="fill:#00b1eb;fill-rule:nonzero"
   d="m 24538,10298 42,-25 -92,-50 48,-27 c 53,-31 63,-74 -2,-109 l -1,-1 c -58,-31 -131,-31 -187,1 l -96,55 z m -96,-99 -103,-56 49,-29 c 32,-18 70,-20 103,-2 h 1 c 30,17 32,40 0,58 z"
   class="fil8"
   id="path2407" />
  <polygon
   style="fill:#00b1eb;fill-rule:nonzero"
   points="24523,9985 24481,10009 24768,10165 24937,10067 24891,10042 24765,10115 "
   class="fil8"
   id="polygon2409" />
  <path
   style="fill:#00b1eb;fill-rule:nonzero"
   d="m 24961,10054 43,-25 -44,-52 114,-66 94,23 44,-26 -395,-95 -40,23 z m -31,-111 -73,-86 156,39 z"
   class="fil8"
   id="path2411" />
  <polygon
   style="fill:#00b1eb;fill-rule:nonzero"
   points="25114,9644 24918,9757 24965,9782 25041,9738 25282,9868 25325,9844 25084,9713 25160,9669 "
   class="fil8"
   id="polygon2413" />
  <polygon
   style="fill:#00b1eb;fill-rule:nonzero"
   points="25447,9591 25325,9661 25247,9618 25384,9539 25338,9514 25158,9618 25446,9773 25488,9749 25371,9686 25493,9615 "
   class="fil8"
   id="polygon2415" />
  <path
   style="fill:#00b1eb;fill-rule:nonzero"
   d="m 25790,9580 c 74,-42 59,-109 -22,-153 l -1,-1 c -81,-43 -200,-50 -274,-7 -74,43 -58,110 23,154 v 0 c 81,44 200,50 274,7 z m -46,-25 c -48,28 -128,22 -184,-8 l -1,-1 c -56,-30 -68,-74 -20,-101 48,-28 128,-23 184,8 h 1 c 56,30 68,74 20,102 z"
   class="fil8"
   id="path2417" />
  <path
   style="fill:#00b1eb;fill-rule:nonzero"
   d="m 25963,9475 42,-24 -100,-55 53,-30 160,20 50,-29 -174,-21 c 22,-26 17,-55 -30,-81 h -1 c -25,-14 -53,-21 -82,-22 -33,-1 -68,7 -98,24 l -108,62 z m -103,-103 -96,-52 61,-36 c 32,-18 67,-19 98,-3 l 1,1 c 29,15 29,37 -2,54 z"
   class="fil8"
   id="path2419" />
  <polygon
   style="fill:#00b1eb;fill-rule:nonzero"
   points="26260,9225 26201,9107 26407,9219 26449,9194 26162,9039 26116,9065 26179,9181 25970,9150 25924,9176 26212,9331 26254,9307 26048,9196 26259,9225 "
   class="fil8"
   id="polygon2421" />
  <g
   id="_1117436992">
   <g
   id="g2431">
    <path
   style="fill:#2155ff;fill-rule:nonzero"
   id="path2423"
   d="m 11235,14081 c -1,-10 -3,-20 -4,-30 -6,-42 -14,-82 -25,-119 l -230,37 c -27,-52 -60,-95 -100,-130 l 65,-265 c -42,-25 -88,-43 -137,-54 l -193,220 c -45,0 -92,5 -141,18 l -106,-186 c -29,13 -57,27 -87,43 -29,16 -59,34 -87,53 l -44,269 c -45,39 -86,82 -124,128 l -222,8 c -40,61 -75,124 -105,189 l 123,161 c -25,70 -42,140 -52,210 l -207,205 c 0,43 3,87 8,129 2,10 3,20 5,30 l 217,-34 c 24,73 60,135 105,183 l -69,279 c 30,20 63,37 97,50 l 186,-212 c 76,15 160,9 249,-18 l 107,188 c 19,-9 38,-19 57,-30 19,-10 37,-21 55,-32 l 44,-271 c 84,-66 158,-149 221,-240 l 214,-8 c 25,-45 49,-92 69,-140 l -129,-170 c 27,-89 43,-180 44,-268 z"
   class="fil44" />
    <path
   style="fill:#140694;fill-rule:nonzero"
   id="path2425"
   d="m 10874,14244 c 39,282 -143,628 -406,773 -262,144 -506,32 -545,-250 -38,-282 144,-628 406,-772 263,-145 507,-33 545,249 z"
   class="fil45" />
    <path
   style="fill:#2155ff;fill-rule:nonzero"
   id="path2427"
   d="m 10795,14288 c 32,235 -119,523 -338,643 -219,121 -422,28 -454,-207 -32,-235 119,-524 338,-644 219,-121 422,-28 454,208 z"
   class="fil44" />
    <path
   style="fill:#140694;fill-rule:nonzero;stroke:#204bd9;stroke-width:7.61999989"
   id="path2429"
   d="m 10676,14353 c 23,165 -83,366 -237,451 -153,84 -295,19 -317,-146 -23,-164 83,-366 236,-450 153,-85 296,-20 318,145 z"
   class="fil45 str3" />
   </g>
   <g
   id="g2441">
    <path
   style="fill:#2155ff;fill-rule:nonzero"
   id="path2433"
   d="m 9934,13806 -165,-44 c -10,-63 -30,-118 -58,-163 l 75,-221 c -27,-26 -57,-48 -90,-66 l -177,151 c -41,-8 -84,-9 -130,-2 l -84,-159 c -23,8 -46,18 -69,29 -22,11 -45,23 -66,36 l -52,226 c -44,36 -84,78 -120,124 l -189,26 c -27,46 -52,95 -72,144 l 105,134 c -19,68 -29,138 -28,205 l -147,198 c 8,39 19,75 33,109 l 187,-58 c 33,47 77,83 127,104 l 4,212 c 34,5 69,7 106,4 l 123,-206 c 30,-8 60,-19 91,-34 30,-15 60,-33 88,-53 l 146,74 c 34,-32 67,-67 98,-104 l -30,-197 c 43,-67 78,-141 101,-216 l 179,-120 c 8,-44 13,-89 14,-133 z"
   class="fil44" />
    <path
   style="fill:#140694;fill-rule:nonzero"
   id="path2435"
   d="m 9653,13860 c 18,218 -129,472 -327,568 -198,97 -373,-1 -391,-219 -18,-217 128,-471 327,-568 198,-96 373,2 391,219 z"
   class="fil45" />
    <path
   style="fill:#2155ff;fill-rule:nonzero"
   id="path2437"
   d="m 9533,13919 c 12,144 -85,314 -218,378 -132,65 -248,-1 -260,-146 -12,-145 85,-314 217,-378 133,-65 249,1 261,146 z"
   class="fil44" />
    <path
   style="fill:#140694;fill-rule:nonzero"
   id="path2439"
   d="m 9413,13977 c 5,73 -43,157 -109,190 -66,32 -125,-1 -131,-73 -6,-73 43,-158 109,-190 66,-32 125,1 131,73 z"
   class="fil45" />
   </g>
   <g
   id="g2453">
    <g
   id="g2449">
     <path
   style="fill:#2155ff;fill-rule:nonzero;stroke:#2155ff;stroke-width:35.27999878"
   id="path2443"
   d="m 10976,12155 c -2,-29 -4,-57 -8,-85 -4,-31 -10,-60 -17,-88 l -172,47 c -9,-28 -21,-54 -34,-78 l 105,-194 c -30,-41 -64,-76 -102,-105 l -156,140 c -22,-13 -46,-24 -70,-32 l 22,-200 c -48,-10 -99,-13 -152,-10 l -99,195 c -28,4 -57,12 -87,22 l -65,-153 c -27,12 -54,25 -81,40 -28,15 -55,32 -81,49 l -17,198 c -27,21 -54,45 -80,70 l -135,-66 c -46,51 -89,106 -128,164 l 70,149 c -19,32 -37,66 -52,99 l -170,40 c -25,64 -46,129 -61,195 l 139,59 c -5,35 -8,69 -10,103 l -159,135 c 1,32 3,62 8,93 3,28 8,55 15,81 l 172,-47 c 10,27 21,53 35,77 l -107,198 c 29,40 63,76 100,105 l 160,-143 c 22,13 45,24 70,32 l -24,206 c 48,10 98,14 150,11 l 103,-202 c 28,-5 57,-12 86,-22 l 68,159 c 26,-12 53,-25 80,-40 27,-14 53,-30 79,-48 l 17,-205 c 28,-22 55,-45 81,-70 l 139,68 c 46,-51 88,-105 126,-162 l -72,-153 c 19,-33 36,-66 52,-100 l 174,-40 c 24,-64 44,-128 59,-193 l -142,-61 c 5,-34 9,-68 10,-102 z"
   class="fil44 str4" />
     <path
   style="fill:#140694;fill-rule:nonzero"
   id="path2445"
   d="m 10683,12227 c 41,301 -153,670 -433,824 -280,154 -540,35 -581,-266 -41,-301 152,-670 433,-824 280,-154 540,-35 581,266 z"
   class="fil45" />
     <path
   style="fill:#2155ff;fill-rule:nonzero"
   id="path2447"
   d="m 10619,12262 c 36,263 -133,586 -378,721 -245,135 -473,30 -509,-233 -36,-263 134,-586 379,-721 245,-135 473,-31 508,233 z"
   class="fil44" />
    </g>
    <path
   style="fill:#140694;fill-rule:nonzero"
   id="path2451"
   d="m 10493,12331 c 25,189 -96,419 -271,515 -175,97 -337,22 -363,-166 -26,-188 95,-419 270,-515 175,-96 338,-22 364,166 z"
   class="fil45" />
   </g>
  </g>
  
  
  
  
  
  
  
  
  
  
  
  
  
  
  
  
  
  
  
  
  
  
  
  
  
  
  
  
  
  
  
  
  
  
  
  
  
  
  
  
  
  
  
  
  
  
  
  
  
  
  
  
  
  
  
  
  
  
  
  
  
  
  
  
  
  
  
  
  
  <path
   style="fill:#23bcee;fill-rule:nonzero"
   id="path2547"
   d="m 6512,15401 68,-197 26,14 73,276 -27,-15 -21,-82 -75,-42 -19,60 z m 51,-68 61,34 -19,-76 c -5,-23 -9,-41 -12,-56 -3,14 -6,27 -10,40 z"
   class="fil11" />
  <path
   style="fill:#23bcee;fill-rule:nonzero"
   d="m 6698,15505 v -236 l 67,38 c 12,7 21,13 27,18 9,6 17,14 23,23 6,9 10,19 14,31 4,11 5,23 5,35 0,20 -5,34 -14,42 -10,9 -27,6 -53,-8 l -45,-26 v 96 z m 24,-110 46,25 c 15,9 26,11 32,7 7,-4 10,-12 10,-26 0,-10 -2,-19 -6,-28 -4,-10 -9,-17 -15,-23 -4,-3 -11,-8 -22,-14 l -45,-26 z"
   class="fil11"
   id="path2549" />
  <path
   style="fill:#23bcee;fill-rule:nonzero"
   d="m 6864,15598 v -236 l 68,38 c 12,7 21,13 27,18 9,6 16,14 22,23 6,9 11,19 14,31 4,11 6,23 6,35 0,20 -5,34 -15,42 -9,9 -27,6 -52,-8 l -46,-26 v 96 z m 24,-110 46,25 c 15,9 26,11 33,7 6,-4 9,-12 9,-26 0,-10 -2,-19 -5,-29 -4,-9 -9,-16 -15,-22 -4,-3 -12,-8 -22,-14 l -46,-26 z"
   class="fil11"
   id="path2551" />
  <path
   style="fill:#23bcee;fill-rule:nonzero"
   d="m 7023,15611 22,10 c 1,12 4,23 8,33 3,10 9,19 18,28 8,10 17,17 27,23 9,5 17,7 24,8 7,0 12,-2 15,-6 4,-5 5,-10 5,-18 0,-7 -1,-14 -5,-22 -3,-7 -8,-15 -16,-22 -4,-6 -15,-15 -31,-30 -17,-14 -28,-25 -35,-34 -9,-10 -15,-21 -19,-32 -4,-11 -6,-22 -6,-33 0,-12 2,-22 7,-29 6,-8 13,-11 23,-11 10,0 21,3 33,10 13,7 25,17 35,28 10,11 18,24 23,38 5,14 8,28 9,42 l -23,-10 c -1,-16 -5,-30 -12,-41 -7,-12 -18,-21 -31,-29 -15,-8 -25,-10 -32,-7 -6,3 -10,10 -10,20 0,8 3,16 7,24 5,8 17,21 36,37 19,17 32,29 40,37 10,12 18,24 23,37 5,12 7,25 7,37 0,13 -3,23 -8,31 -6,8 -13,13 -24,13 -10,0 -21,-3 -34,-10 -16,-9 -30,-20 -41,-32 -10,-12 -19,-26 -25,-42 -6,-16 -10,-32 -10,-48 z"
   class="fil11"
   id="path2553" />
  <g
   id="_1112628816">
   <polygon
   style="fill:#2396d3;fill-rule:nonzero"
   id="polygon2555"
   points="5778,16890 5708,16927 5826,16990 5857,16974 6037,17072 5840,17178 5660,17080 5693,17063 5575,17000 5504,17038 5494,17043 5510,17083 5524,17091 5822,17251 5830,17256 5914,17265 5919,17262 6193,17114 6199,17111 6181,17066 6173,17061 5875,16900 5861,16893 5787,16885 "
   class="fil43" />
   <polygon
   style="fill:#ebecec;fill-rule:nonzero"
   id="polygon2557"
   points="5634,17248 5703,17210 5585,17147 5555,17164 5375,17066 5572,16959 5751,17057 5719,17075 5837,17138 5908,17099 5918,17094 5902,17055 5888,17047 5590,16886 5582,16881 5498,16872 5492,16875 5219,17024 5213,17027 5231,17072 5239,17076 5536,17237 5551,17245 5625,17253 "
   class="fil42" />
  </g>
  <g
   id="_1114134176">
   <g
   id="g2566">
    <path
   style="fill:none"
   id="path2560"
   d="m 20239,7582 123,-71 1292,743 c 161,92 406,102 544,23 l 1332,-766 84,48 c 160,92 178,233 39,313 l -1455,837 c -138,80 -383,69 -544,-23 l -1376,-791 c -160,-92 -178,-233 -39,-313 z"
   class="fil46" />
    <path
   style="fill:url(#id14)"
   id="path2562"
   d="m 20145,7261 h 352 v 327 l 1157,666 c 161,92 406,102 544,23 l 1197,-689 v -327 h 352 v 465 h -1 c 5,55 -26,108 -93,146 l -1455,837 c -138,80 -383,69 -544,-23 l -1376,-791 c -83,-48 -128,-110 -132,-169 h -1 v -8 z"
   class="fil47" />
    <rect
   style="fill:#ebecec"
   y="0"
   x="0"
   id="rect2564"
   ry="1427"
   rx="1427"
   height="9575"
   width="9575"
   transform="matrix(0.204678,-0.117702,0.204678,0.117702,19986.3,7294.88)"
   class="fil5" />
   </g>
   <g
   id="g2572">
    <rect
   style="fill:#00ade9"
   y="0"
   x="0"
   id="rect2568"
   ry="144"
   rx="144"
   height="608"
   width="1305"
   transform="matrix(0.13463,0.0799335,0,0.13463,20298.2,7722.61)"
   class="fil15" />
    <rect
   style="fill:#00ade9"
   y="0"
   x="0"
   id="rect2570"
   ry="144"
   rx="144"
   height="608"
   width="1305"
   transform="matrix(0.13463,0.0799335,0,0.13463,20298.2,7587.12)"
   class="fil15" />
   </g>
   <g
   id="g2578">
    <path
   style="fill:#ebecec"
   id="path2574"
   d="m 20321,7736 139,82 c 7,5 14,18 14,28 v 35 l -138,-82 c -8,-5 -15,-17 -15,-28 z"
   class="fil5" />
    <path
   style="fill:#ebecec"
   id="path2576"
   d="m 20321,7601 139,82 c 7,5 14,17 14,28 v 35 l -138,-82 c -8,-5 -15,-18 -15,-28 z"
   class="fil5" />
   </g>
   <g
   id="g2584">
    <path
   style="fill:#00ade9"
   id="path2580"
   d="m 21430,8269 c 29,0 54,38 56,84 2,47 -20,85 -50,85 h -39 l -1,-28 c -9,-15 -15,-35 -16,-57 -1,-22 4,-42 12,-57 l -2,-27 z"
   class="fil15" />
    <ellipse
   style="fill:#ebecec"
   cy="0"
   cx="0"
   id="ellipse2582"
   ry="302"
   rx="190"
   transform="matrix(0.279655,0,0.0110434,0.279655,21393.8,8353.32)"
   class="fil5" />
   </g>
   <g
   id="g2590">
    <path
   style="fill:#00ade9"
   id="path2586"
   d="m 21236,8155 c 30,0 55,37 57,84 2,47 -21,84 -50,84 h -39 l -1,-27 c -10,-15 -16,-35 -16,-57 -1,-22 3,-42 11,-57 l -1,-27 z"
   class="fil15" />
    <ellipse
   style="fill:#ebecec"
   cy="0"
   cx="0"
   id="ellipse2588"
   ry="302"
   rx="190"
   transform="matrix(0.279655,0,0.0110434,0.279655,21200.5,8239.01)"
   class="fil5" />
   </g>
   <g
   id="g2596">
    <path
   style="fill:#00ade9"
   id="path2592"
   d="m 21637,8378 c 29,0 55,38 57,84 1,47 -21,85 -50,85 h -40 l -1,-28 c -9,-15 -15,-35 -16,-57 -1,-21 4,-41 12,-56 l -1,-28 z"
   class="fil15" />
    <ellipse
   style="fill:#ebecec"
   cy="0"
   cx="0"
   id="ellipse2594"
   ry="302"
   rx="190"
   transform="matrix(0.279655,0,0.0110434,0.279655,21601,8462.49)"
   class="fil5" />
   </g>
   <g
   id="g2610">
    <g
   id="g2602">
     <rect
   style="fill:#00ade9"
   y="0"
   x="0"
   id="rect2598"
   ry="144"
   rx="144"
   height="608"
   width="1305"
   transform="matrix(0.13463,0.0799335,0,0.13463,20523.9,7853.52)"
   class="fil15" />
     <rect
   style="fill:#00ade9"
   y="0"
   x="0"
   id="rect2600"
   ry="144"
   rx="144"
   height="608"
   width="1305"
   transform="matrix(0.13463,0.0799335,0,0.13463,20523.9,7718.02)"
   class="fil15" />
    </g>
    <g
   id="g2608">
     <path
   style="fill:#ebecec"
   id="path2604"
   d="m 20547,7867 138,82 c 8,5 15,18 15,28 v 35 l -139,-82 c -8,-5 -14,-17 -14,-28 z"
   class="fil5" />
     <path
   style="fill:#ebecec"
   id="path2606"
   d="m 20547,7732 138,82 c 8,5 15,17 15,28 v 34 l -139,-82 c -8,-4 -14,-17 -14,-28 z"
   class="fil5" />
    </g>
   </g>
   <g
   id="g2624">
    <g
   id="g2616">
     <rect
   style="fill:#00ade9"
   y="0"
   x="0"
   id="rect2612"
   ry="144"
   rx="144"
   height="608"
   width="1305"
   transform="matrix(0.13463,0.0799335,0,0.13463,20747,7982.95)"
   class="fil15" />
     <rect
   style="fill:#00ade9"
   y="0"
   x="0"
   id="rect2614"
   ry="144"
   rx="144"
   height="608"
   width="1305"
   transform="matrix(0.13463,0.0799335,0,0.13463,20747,7847.45)"
   class="fil15" />
    </g>
    <g
   id="g2622">
     <path
   style="fill:#ebecec"
   id="path2618"
   d="m 20770,7997 138,82 c 8,4 15,17 15,28 v 34 l -139,-82 c -7,-4 -14,-17 -14,-28 z"
   class="fil5" />
     <path
   style="fill:#ebecec"
   id="path2620"
   d="m 20770,7861 138,82 c 8,5 15,18 15,28 v 35 l -139,-82 c -7,-5 -14,-17 -14,-28 z"
   class="fil5" />
    </g>
   </g>
  </g>
  <g
   id="_1114107648">
   <g
   id="g2633">
    <path
   style="fill:none"
   id="path2627"
   d="m 20239,7019 123,-71 1292,743 c 161,92 406,103 544,23 l 1332,-766 84,48 c 160,93 178,234 39,313 l -1455,837 c -138,80 -383,70 -544,-23 l -1376,-791 c -160,-92 -178,-233 -39,-313 z"
   class="fil46" />
    <path
   style="fill:url(#id15)"
   id="path2629"
   d="m 20145,6698 h 352 v 328 l 1157,665 c 161,92 406,103 544,23 l 1197,-688 v -328 h 352 v 465 h -1 c 5,55 -26,108 -93,146 l -1455,837 c -138,80 -383,70 -544,-23 l -1376,-791 c -83,-48 -128,-109 -132,-169 h -1 v -8 z"
   class="fil48" />
    <rect
   style="fill:#ebecec"
   y="0"
   x="0"
   id="rect2631"
   ry="1427"
   rx="1427"
   height="9575"
   width="9575"
   transform="matrix(0.204678,-0.117702,0.204678,0.117702,19986.3,6732.1)"
   class="fil5" />
   </g>
   <g
   id="g2639">
    <rect
   style="fill:#00ade9"
   y="0"
   x="0"
   id="rect2635"
   ry="144"
   rx="144"
   height="608"
   width="1305"
   transform="matrix(0.13463,0.0799335,0,0.13463,20298.2,7159.83)"
   class="fil15" />
    <rect
   style="fill:#00ade9"
   y="0"
   x="0"
   id="rect2637"
   ry="144"
   rx="144"
   height="608"
   width="1305"
   transform="matrix(0.13463,0.0799335,0,0.13463,20298.2,7024.33)"
   class="fil15" />
   </g>
   <g
   id="g2645">
    <path
   style="fill:#ebecec"
   id="path2641"
   d="m 20321,7174 139,82 c 7,4 14,17 14,28 v 34 l -138,-82 c -8,-4 -15,-17 -15,-28 z"
   class="fil5" />
    <path
   style="fill:#ebecec"
   id="path2643"
   d="m 20321,7038 139,82 c 7,5 14,17 14,28 v 35 l -138,-82 c -8,-5 -15,-18 -15,-28 z"
   class="fil5" />
   </g>
   <g
   id="g2651">
    <path
   style="fill:#00ade9"
   id="path2647"
   d="m 21430,7706 c 29,0 54,38 56,85 2,46 -20,84 -50,84 h -39 l -1,-28 c -9,-15 -15,-35 -16,-56 -1,-22 4,-42 12,-57 l -2,-28 z"
   class="fil15" />
    <ellipse
   style="fill:#ebecec"
   cy="0"
   cx="0"
   id="ellipse2649"
   ry="302"
   rx="190"
   transform="matrix(0.279655,0,0.0110434,0.279655,21393.8,7790.54)"
   class="fil5" />
   </g>
   <g
   id="g2657">
    <path
   style="fill:#00ade9"
   id="path2653"
   d="m 21236,7592 c 30,0 55,38 57,84 2,47 -21,85 -50,85 h -39 l -1,-28 c -10,-15 -16,-35 -16,-57 -1,-22 3,-42 11,-57 l -1,-27 z"
   class="fil15" />
    <ellipse
   style="fill:#ebecec"
   cy="0"
   cx="0"
   id="ellipse2655"
   ry="302"
   rx="190"
   transform="matrix(0.279655,0,0.0110434,0.279655,21200.5,7676.23)"
   class="fil5" />
   </g>
   <g
   id="g2663">
    <path
   style="fill:#00ade9"
   id="path2659"
   d="m 21637,7815 c 29,0 55,38 57,85 1,46 -21,84 -50,84 h -40 l -1,-27 c -9,-15 -15,-35 -16,-57 -1,-22 4,-42 12,-57 l -1,-28 z"
   class="fil15" />
    <ellipse
   style="fill:#ebecec"
   cy="0"
   cx="0"
   id="ellipse2661"
   ry="302"
   rx="190"
   transform="matrix(0.279655,0,0.0110434,0.279655,21601,7899.71)"
   class="fil5" />
   </g>
   <g
   id="g2677">
    <g
   id="g2669">
     <rect
   style="fill:#00ade9"
   y="0"
   x="0"
   id="rect2665"
   ry="144"
   rx="144"
   height="608"
   width="1305"
   transform="matrix(0.13463,0.0799335,0,0.13463,20523.9,7290.73)"
   class="fil15" />
     <rect
   style="fill:#00ade9"
   y="0"
   x="0"
   id="rect2667"
   ry="144"
   rx="144"
   height="608"
   width="1305"
   transform="matrix(0.13463,0.0799335,0,0.13463,20523.9,7155.23)"
   class="fil15" />
    </g>
    <g
   id="g2675">
     <path
   style="fill:#ebecec"
   id="path2671"
   d="m 20547,7304 138,83 c 8,4 15,17 15,27 v 35 l -139,-82 c -8,-5 -14,-17 -14,-28 z"
   class="fil5" />
     <path
   style="fill:#ebecec"
   id="path2673"
   d="m 20547,7169 138,82 c 8,5 15,17 15,28 v 35 l -139,-82 c -8,-5 -14,-18 -14,-28 z"
   class="fil5" />
    </g>
   </g>
   <g
   id="g2691">
    <g
   id="g2683">
     <rect
   style="fill:#00ade9"
   y="0"
   x="0"
   id="rect2679"
   ry="144"
   rx="144"
   height="608"
   width="1305"
   transform="matrix(0.13463,0.0799335,0,0.13463,20747,7420.17)"
   class="fil15" />
     <rect
   style="fill:#00ade9"
   y="0"
   x="0"
   id="rect2681"
   ry="144"
   rx="144"
   height="608"
   width="1305"
   transform="matrix(0.13463,0.0799335,0,0.13463,20747,7284.67)"
   class="fil15" />
    </g>
    <g
   id="g2689">
     <path
   style="fill:#ebecec"
   id="path2685"
   d="m 20770,7434 138,82 c 8,5 15,17 15,28 v 35 l -139,-82 c -7,-5 -14,-18 -14,-28 z"
   class="fil5" />
     <path
   style="fill:#ebecec"
   id="path2687"
   d="m 20770,7298 138,82 c 8,5 15,18 15,28 v 35 l -139,-82 c -7,-5 -14,-17 -14,-28 z"
   class="fil5" />
    </g>
   </g>
  </g>
  <g
   id="_1119824720">
   <g
   id="g2700">
    <path
   style="fill:none"
   id="path2694"
   d="m 20239,6431 123,-71 1292,743 c 161,93 406,103 544,23 l 1332,-766 84,48 c 160,93 178,234 39,314 l -1455,836 c -138,80 -383,70 -544,-23 l -1376,-791 c -160,-92 -178,-233 -39,-313 z"
   class="fil46" />
    <path
   style="fill:url(#id16)"
   id="path2696"
   d="m 20145,6110 h 352 v 328 l 1157,665 c 161,93 406,103 544,23 l 1197,-688 v -328 h 352 v 466 h -1 c 5,54 -26,107 -93,146 l -1455,836 c -138,80 -383,70 -544,-23 l -1376,-791 c -83,-48 -128,-109 -132,-168 h -1 v -9 z"
   class="fil49" />
    <rect
   style="fill:#ebecec"
   y="0"
   x="0"
   id="rect2698"
   ry="1427"
   rx="1427"
   height="9575"
   width="9575"
   transform="matrix(0.204678,-0.117702,0.204678,0.117702,19986.3,6144.35)"
   class="fil5" />
   </g>
   <g
   id="g2706">
    <rect
   style="fill:#00ade9"
   y="0"
   x="0"
   id="rect2702"
   ry="144"
   rx="144"
   height="608"
   width="1305"
   transform="matrix(0.13463,0.0799335,0,0.13463,20298.2,6572.08)"
   class="fil15" />
    <rect
   style="fill:#00ade9"
   y="0"
   x="0"
   id="rect2704"
   ry="144"
   rx="144"
   height="608"
   width="1305"
   transform="matrix(0.13463,0.0799335,0,0.13463,20298.2,6436.59)"
   class="fil15" />
   </g>
   <g
   id="g2712">
    <path
   style="fill:#ebecec"
   id="path2708"
   d="m 20321,6586 139,82 c 7,5 14,17 14,28 v 35 l -138,-83 c -8,-4 -15,-17 -15,-27 z"
   class="fil5" />
    <path
   style="fill:#ebecec"
   id="path2710"
   d="m 20321,6450 139,82 c 7,5 14,18 14,28 v 35 l -138,-82 c -8,-5 -15,-17 -15,-28 z"
   class="fil5" />
   </g>
   <g
   id="g2718">
    <path
   style="fill:#00ade9"
   id="path2714"
   d="m 21430,7118 c 29,0 54,38 56,85 2,46 -20,84 -50,84 h -39 l -1,-27 c -9,-15 -15,-35 -16,-57 -1,-22 4,-42 12,-57 l -2,-28 z"
   class="fil15" />
    <ellipse
   style="fill:#ebecec"
   cy="0"
   cx="0"
   id="ellipse2716"
   ry="302"
   rx="190"
   transform="matrix(0.279655,0,0.0110434,0.279655,21393.8,7202.79)"
   class="fil5" />
   </g>
   <g
   id="g2724">
    <path
   style="fill:#00ade9"
   id="path2720"
   d="m 21236,7004 c 30,0 55,38 57,84 2,47 -21,85 -50,85 h -39 l -1,-28 c -10,-15 -16,-35 -16,-57 -1,-21 3,-41 11,-56 l -1,-28 z"
   class="fil15" />
    <ellipse
   style="fill:#ebecec"
   cy="0"
   cx="0"
   id="ellipse2722"
   ry="302"
   rx="190"
   transform="matrix(0.279655,0,0.0110434,0.279655,21200.5,7088.48)"
   class="fil5" />
   </g>
   <g
   id="g2730">
    <path
   style="fill:#00ade9"
   id="path2726"
   d="m 21637,7228 c 29,0 55,37 57,84 1,47 -21,84 -50,84 h -40 l -1,-27 c -9,-15 -15,-35 -16,-57 -1,-22 4,-42 12,-57 l -1,-27 z"
   class="fil15" />
    <ellipse
   style="fill:#ebecec"
   cy="0"
   cx="0"
   id="ellipse2728"
   ry="302"
   rx="190"
   transform="matrix(0.279655,0,0.0110434,0.279655,21601,7311.96)"
   class="fil5" />
   </g>
   <g
   id="g2744">
    <g
   id="g2736">
     <rect
   style="fill:#00ade9"
   y="0"
   x="0"
   id="rect2732"
   ry="144"
   rx="144"
   height="608"
   width="1305"
   transform="matrix(0.13463,0.0799335,0,0.13463,20523.9,6702.99)"
   class="fil15" />
     <rect
   style="fill:#00ade9"
   y="0"
   x="0"
   id="rect2734"
   ry="144"
   rx="144"
   height="608"
   width="1305"
   transform="matrix(0.13463,0.0799335,0,0.13463,20523.9,6567.49)"
   class="fil15" />
    </g>
    <g
   id="g2742">
     <path
   style="fill:#ebecec"
   id="path2738"
   d="m 20547,6717 138,82 c 8,4 15,17 15,28 v 34 l -139,-82 c -8,-4 -14,-17 -14,-28 z"
   class="fil5" />
     <path
   style="fill:#ebecec"
   id="path2740"
   d="m 20547,6581 138,82 c 8,5 15,18 15,28 v 35 l -139,-82 c -8,-5 -14,-17 -14,-28 z"
   class="fil5" />
    </g>
   </g>
   <g
   id="g2758">
    <g
   id="g2750">
     <rect
   style="fill:#00ade9"
   y="0"
   x="0"
   id="rect2746"
   ry="144"
   rx="144"
   height="608"
   width="1305"
   transform="matrix(0.13463,0.0799335,0,0.13463,20747,6832.42)"
   class="fil15" />
     <rect
   style="fill:#00ade9"
   y="0"
   x="0"
   id="rect2748"
   ry="144"
   rx="144"
   height="608"
   width="1305"
   transform="matrix(0.13463,0.0799335,0,0.13463,20747,6696.92)"
   class="fil15" />
    </g>
    <g
   id="g2756">
     <path
   style="fill:#ebecec"
   id="path2752"
   d="m 20770,6846 138,82 c 8,5 15,17 15,28 v 35 l -139,-82 c -7,-5 -14,-17 -14,-28 z"
   class="fil5" />
     <path
   style="fill:#ebecec"
   id="path2754"
   d="m 20770,6711 138,82 c 8,4 15,17 15,28 v 34 l -139,-82 c -7,-4 -14,-17 -14,-28 z"
   class="fil5" />
    </g>
   </g>
  </g>
  <path
   style="fill:none"
   id="path2761"
   d="m 20239,3817 123,-71 1292,743 c 161,93 406,103 544,23 l 1332,-766 84,48 c 160,93 178,234 39,314 l -1455,836 c -138,80 -383,70 -544,-23 l -1376,-791 c -160,-92 -178,-233 -39,-313 z"
   class="fil46" />
  <g
   id="_1119024016">
   <g
   id="g2769">
    <path
   style="fill:none"
   id="path2763"
   d="m 20239,5851 123,-71 1292,743 c 161,92 406,102 544,22 l 1332,-765 84,48 c 160,92 178,233 39,313 l -1455,837 c -138,79 -383,69 -544,-23 l -1376,-791 c -160,-93 -178,-234 -39,-313 z"
   class="fil46" />
    <path
   style="fill:url(#id18)"
   id="path2765"
   d="m 20145,5529 h 352 v 328 l 1157,666 c 161,92 406,102 544,22 l 1197,-688 v -328 h 352 v 466 h -1 c 5,55 -26,107 -93,146 l -1455,837 c -138,79 -383,69 -544,-23 l -1376,-791 c -83,-48 -128,-110 -132,-169 h -1 v -8 z"
   class="fil50" />
    <rect
   style="fill:#ebecec"
   y="0"
   x="0"
   id="rect2767"
   ry="1427"
   rx="1427"
   height="9575"
   width="9575"
   transform="matrix(0.204678,-0.117702,0.204678,0.117702,19986.3,5563.66)"
   class="fil5" />
   </g>
   <g
   id="g2775">
    <rect
   style="fill:#00ade9"
   y="0"
   x="0"
   id="rect2771"
   ry="144"
   rx="144"
   height="608"
   width="1305"
   transform="matrix(0.13463,0.0799335,0,0.13463,20298.2,5991.4)"
   class="fil15" />
    <rect
   style="fill:#00ade9"
   y="0"
   x="0"
   id="rect2773"
   ry="144"
   rx="144"
   height="608"
   width="1305"
   transform="matrix(0.13463,0.0799335,0,0.13463,20298.2,5855.9)"
   class="fil15" />
   </g>
   <g
   id="g2781">
    <path
   style="fill:#ebecec"
   id="path2777"
   d="m 20321,6005 139,82 c 7,5 14,17 14,28 v 35 l -138,-82 c -8,-5 -15,-17 -15,-28 z"
   class="fil5" />
    <path
   style="fill:#ebecec"
   id="path2779"
   d="m 20321,5870 139,82 c 7,4 14,17 14,28 v 34 l -138,-82 c -8,-4 -15,-17 -15,-28 z"
   class="fil5" />
   </g>
   <g
   id="g2787">
    <path
   style="fill:#00ade9"
   id="path2783"
   d="m 21430,6538 c 29,0 54,38 56,84 2,47 -20,84 -50,84 h -39 l -1,-27 c -9,-15 -15,-35 -16,-57 -1,-22 4,-42 12,-57 l -2,-27 z"
   class="fil15" />
    <ellipse
   style="fill:#ebecec"
   cy="0"
   cx="0"
   id="ellipse2785"
   ry="302"
   rx="190"
   transform="matrix(0.279655,0,0.0110434,0.279655,21393.8,6622.1)"
   class="fil5" />
   </g>
   <g
   id="g2793">
    <path
   style="fill:#00ade9"
   id="path2789"
   d="m 21236,6423 c 30,0 55,38 57,85 2,46 -21,84 -50,84 h -39 l -1,-27 c -10,-15 -16,-35 -16,-57 -1,-22 3,-42 11,-57 l -1,-28 z"
   class="fil15" />
    <ellipse
   style="fill:#ebecec"
   cy="0"
   cx="0"
   id="ellipse2791"
   ry="302"
   rx="190"
   transform="matrix(0.279655,0,0.0110434,0.279655,21200.5,6507.79)"
   class="fil5" />
   </g>
   <g
   id="g2799">
    <path
   style="fill:#00ade9"
   id="path2795"
   d="m 21637,6647 c 29,0 55,38 57,84 1,47 -21,85 -50,85 h -40 l -1,-28 c -9,-15 -15,-35 -16,-57 -1,-22 4,-42 12,-57 l -1,-27 z"
   class="fil15" />
    <ellipse
   style="fill:#ebecec"
   cy="0"
   cx="0"
   id="ellipse2797"
   ry="302"
   rx="190"
   transform="matrix(0.279655,0,0.0110434,0.279655,21601,6731.27)"
   class="fil5" />
   </g>
   <g
   id="g2813">
    <g
   id="g2805">
     <rect
   style="fill:#00ade9"
   y="0"
   x="0"
   id="rect2801"
   ry="144"
   rx="144"
   height="608"
   width="1305"
   transform="matrix(0.13463,0.0799335,0,0.13463,20523.9,6122.3)"
   class="fil15" />
     <rect
   style="fill:#00ade9"
   y="0"
   x="0"
   id="rect2803"
   ry="144"
   rx="144"
   height="608"
   width="1305"
   transform="matrix(0.13463,0.0799335,0,0.13463,20523.9,5986.8)"
   class="fil15" />
    </g>
    <g
   id="g2811">
     <path
   style="fill:#ebecec"
   id="path2807"
   d="m 20547,6136 138,82 c 8,5 15,17 15,28 v 35 l -139,-82 c -8,-5 -14,-18 -14,-28 z"
   class="fil5" />
     <path
   style="fill:#ebecec"
   id="path2809"
   d="m 20547,6001 138,82 c 8,4 15,17 15,28 v 34 l -139,-82 c -8,-4 -14,-17 -14,-28 z"
   class="fil5" />
    </g>
   </g>
   <g
   id="g2827">
    <g
   id="g2819">
     <rect
   style="fill:#00ade9"
   y="0"
   x="0"
   id="rect2815"
   ry="144"
   rx="144"
   height="608"
   width="1305"
   transform="matrix(0.13463,0.0799335,0,0.13463,20747,6251.74)"
   class="fil15" />
     <rect
   style="fill:#00ade9"
   y="0"
   x="0"
   id="rect2817"
   ry="144"
   rx="144"
   height="608"
   width="1305"
   transform="matrix(0.13463,0.0799335,0,0.13463,20747,6116.24)"
   class="fil15" />
    </g>
    <g
   id="g2825">
     <path
   style="fill:#ebecec"
   id="path2821"
   d="m 20770,6265 138,83 c 8,4 15,17 15,27 v 35 l -139,-82 c -7,-5 -14,-17 -14,-28 z"
   class="fil5" />
     <path
   style="fill:#ebecec"
   id="path2823"
   d="m 20770,6130 138,82 c 8,5 15,17 15,28 v 35 l -139,-82 c -7,-5 -14,-18 -14,-28 z"
   class="fil5" />
    </g>
   </g>
  </g>
  <path
   id="path2830"
   mask="url(#id2)"
   d="m 23746,5563 c 5,55 -25,108 -93,147 l -1455,836 c -138,80 -383,70 -544,-23 l -1376,-791 c -84,-48 -129,-110 -132,-169 h -1 V 864 h 3603 v 4699 z"
   style="fill:#0040ff"
   class="fil51" />
  <g
   id="_860655712">
   <g
   id="g2838">
    <path
   style="fill:none"
   id="path2832"
   d="m 20239,5288 123,-71 1292,743 c 161,92 406,103 544,23 l 1332,-766 84,48 c 160,92 178,233 39,313 l -1455,837 c -138,80 -383,69 -544,-23 l -1376,-791 c -160,-92 -178,-233 -39,-313 z"
   class="fil46" />
    <path
   style="fill:url(#linearGradient2975)"
   id="path2834"
   d="m 20145,4967 h 352 v 327 l 1157,666 c 161,92 406,103 544,23 l 1197,-689 v -327 h 352 v 465 h -1 c 5,55 -26,108 -93,146 l -1455,837 c -138,80 -383,69 -544,-23 l -1376,-791 c -83,-48 -128,-110 -132,-169 h -1 v -8 z"
   class="fil52" />
    <rect
   style="fill:#ebecec"
   y="0"
   x="0"
   id="rect2836"
   ry="1427"
   rx="1427"
   height="9575"
   width="9575"
   transform="matrix(0.204678,-0.117702,0.204678,0.117702,19986.3,5000.88)"
   class="fil5" />
   </g>
   <g
   id="g2844">
    <rect
   style="fill:#00ade9"
   y="0"
   x="0"
   id="rect2840"
   ry="144"
   rx="144"
   height="608"
   width="1305"
   transform="matrix(0.13463,0.0799335,0,0.13463,20298.2,5428.61)"
   class="fil15" />
    <rect
   style="fill:#00ade9"
   y="0"
   x="0"
   id="rect2842"
   ry="144"
   rx="144"
   height="608"
   width="1305"
   transform="matrix(0.13463,0.0799335,0,0.13463,20298.2,5293.12)"
   class="fil15" />
   </g>
   <g
   id="g2850">
    <path
   style="fill:#ebecec"
   id="path2846"
   d="m 20321,5442 139,82 c 7,5 14,18 14,28 v 35 l -138,-82 c -8,-5 -15,-17 -15,-28 z"
   class="fil5" />
    <path
   style="fill:#ebecec"
   id="path2848"
   d="m 20321,5307 139,82 c 7,5 14,17 14,28 v 35 l -138,-82 c -8,-5 -15,-18 -15,-28 z"
   class="fil5" />
   </g>
   <g
   id="g2856">
    <path
   style="fill:#00ade9"
   id="path2852"
   d="m 21430,5975 c 29,0 54,38 56,84 2,47 -20,85 -50,85 h -39 l -1,-28 c -9,-15 -15,-35 -16,-57 -1,-22 4,-42 12,-57 l -2,-27 z"
   class="fil15" />
    <ellipse
   style="fill:#ebecec"
   cy="0"
   cx="0"
   id="ellipse2854"
   ry="302"
   rx="190"
   transform="matrix(0.279655,0,0.0110434,0.279655,21393.8,6059.32)"
   class="fil5" />
   </g>
   <g
   id="g2862">
    <path
   style="fill:#00ade9"
   id="path2858"
   d="m 21236,5861 c 30,0 55,37 57,84 2,47 -21,84 -50,84 h -39 l -1,-27 c -10,-15 -16,-35 -16,-57 -1,-22 3,-42 11,-57 l -1,-27 z"
   class="fil15" />
    <ellipse
   style="fill:#ebecec"
   cy="0"
   cx="0"
   id="ellipse2860"
   ry="302"
   rx="190"
   transform="matrix(0.279655,0,0.0110434,0.279655,21200.5,5945.01)"
   class="fil5" />
   </g>
   <g
   id="g2868">
    <path
   style="fill:#00ade9"
   id="path2864"
   d="m 21637,6084 c 29,0 55,38 57,84 1,47 -21,85 -50,85 h -40 l -1,-28 c -9,-15 -15,-35 -16,-57 -1,-21 4,-41 12,-56 l -1,-28 z"
   class="fil15" />
    <ellipse
   style="fill:#ebecec"
   cy="0"
   cx="0"
   id="ellipse2866"
   ry="302"
   rx="190"
   transform="matrix(0.279655,0,0.0110434,0.279655,21601,6168.49)"
   class="fil5" />
   </g>
   <g
   id="g2882">
    <g
   id="g2874">
     <rect
   style="fill:#00ade9"
   y="0"
   x="0"
   id="rect2870"
   ry="144"
   rx="144"
   height="608"
   width="1305"
   transform="matrix(0.13463,0.0799335,0,0.13463,20523.9,5559.52)"
   class="fil15" />
     <rect
   style="fill:#00ade9"
   y="0"
   x="0"
   id="rect2872"
   ry="144"
   rx="144"
   height="608"
   width="1305"
   transform="matrix(0.13463,0.0799335,0,0.13463,20523.9,5424.02)"
   class="fil15" />
    </g>
    <g
   id="g2880">
     <path
   style="fill:#ebecec"
   id="path2876"
   d="m 20547,5573 138,82 c 8,5 15,18 15,28 v 35 l -139,-82 c -8,-5 -14,-17 -14,-28 z"
   class="fil5" />
     <path
   style="fill:#ebecec"
   id="path2878"
   d="m 20547,5438 138,82 c 8,5 15,17 15,28 v 34 l -139,-82 c -8,-4 -14,-17 -14,-28 z"
   class="fil5" />
    </g>
   </g>
   <g
   id="g2896">
    <g
   id="g2888">
     <rect
   style="fill:#00ade9"
   y="0"
   x="0"
   id="rect2884"
   ry="144"
   rx="144"
   height="608"
   width="1305"
   transform="matrix(0.13463,0.0799335,0,0.13463,20747,5688.95)"
   class="fil15" />
     <rect
   style="fill:#00ade9"
   y="0"
   x="0"
   id="rect2886"
   ry="144"
   rx="144"
   height="608"
   width="1305"
   transform="matrix(0.13463,0.0799335,0,0.13463,20747,5553.45)"
   class="fil15" />
    </g>
    <g
   id="g2894">
     <path
   style="fill:#ebecec"
   id="path2890"
   d="m 20770,5703 138,82 c 8,4 15,17 15,28 v 34 l -139,-82 c -7,-4 -14,-17 -14,-28 z"
   class="fil5" />
     <path
   style="fill:#ebecec"
   id="path2892"
   d="m 20770,5567 138,82 c 8,5 15,18 15,28 v 35 l -139,-82 c -7,-5 -14,-17 -14,-28 z"
   class="fil5" />
    </g>
   </g>
  </g>
  <g
   id="_869739952">
   <g
   id="g2905">
    <path
   style="fill:none"
   id="path2899"
   d="m 20239,4700 123,-71 1292,743 c 161,92 406,103 544,23 l 1332,-766 84,48 c 160,93 178,234 39,313 l -1455,837 c -138,80 -383,70 -544,-23 l -1376,-791 c -160,-92 -178,-233 -39,-313 z"
   class="fil46" />
    <path
   style="fill:url(#id17)"
   id="path2901"
   d="m 20145,4379 h 352 v 328 l 1157,665 c 161,92 406,103 544,23 l 1197,-688 v -328 h 352 v 465 h -1 c 5,55 -26,108 -93,146 l -1455,837 c -138,80 -383,70 -544,-23 l -1376,-791 c -83,-48 -128,-109 -132,-169 h -1 v -8 z"
   class="fil53" />
    <rect
   style="fill:#ebecec"
   y="0"
   x="0"
   id="rect2903"
   ry="1427"
   rx="1427"
   height="9575"
   width="9575"
   transform="matrix(0.204678,-0.117702,0.204678,0.117702,19986.3,4413.13)"
   class="fil5" />
   </g>
   <g
   id="g2911">
    <rect
   style="fill:#00ade9"
   y="0"
   x="0"
   id="rect2907"
   ry="144"
   rx="144"
   height="608"
   width="1305"
   transform="matrix(0.13463,0.0799335,0,0.13463,20298.2,4840.87)"
   class="fil15" />
    <rect
   style="fill:#00ade9"
   y="0"
   x="0"
   id="rect2909"
   ry="144"
   rx="144"
   height="608"
   width="1305"
   transform="matrix(0.13463,0.0799335,0,0.13463,20298.2,4705.37)"
   class="fil15" />
   </g>
   <g
   id="g2917">
    <path
   style="fill:#ebecec"
   id="path2913"
   d="m 20321,4855 139,82 c 7,4 14,17 14,28 v 34 l -138,-82 c -8,-4 -15,-17 -15,-28 z"
   class="fil5" />
    <path
   style="fill:#ebecec"
   id="path2915"
   d="m 20321,4719 139,82 c 7,5 14,17 14,28 v 35 l -138,-82 c -8,-5 -15,-17 -15,-28 z"
   class="fil5" />
   </g>
   <g
   id="g2923">
    <path
   style="fill:#00ade9"
   id="path2919"
   d="m 21430,5387 c 29,0 54,38 56,85 2,46 -20,84 -50,84 h -39 l -1,-28 c -9,-15 -15,-35 -16,-56 -1,-22 4,-42 12,-57 l -2,-28 z"
   class="fil15" />
    <ellipse
   style="fill:#ebecec"
   cy="0"
   cx="0"
   id="ellipse2921"
   ry="302"
   rx="190"
   transform="matrix(0.279655,0,0.0110434,0.279655,21393.8,5471.57)"
   class="fil5" />
   </g>
   <g
   id="g2929">
    <path
   style="fill:#00ade9"
   id="path2925"
   d="m 21236,5273 c 30,0 55,38 57,84 2,47 -21,85 -50,85 h -39 l -1,-28 c -10,-15 -16,-35 -16,-57 -1,-22 3,-42 11,-57 l -1,-27 z"
   class="fil15" />
    <ellipse
   style="fill:#ebecec"
   cy="0"
   cx="0"
   id="ellipse2927"
   ry="302"
   rx="190"
   transform="matrix(0.279655,0,0.0110434,0.279655,21200.5,5357.26)"
   class="fil5" />
   </g>
   <g
   id="g2935">
    <path
   style="fill:#00ade9"
   id="path2931"
   d="m 21637,5496 c 29,0 55,38 57,85 1,46 -21,84 -50,84 h -40 l -1,-27 c -9,-15 -15,-35 -16,-57 -1,-22 4,-42 12,-57 l -1,-28 z"
   class="fil15" />
    <ellipse
   style="fill:#ebecec"
   cy="0"
   cx="0"
   id="ellipse2933"
   ry="302"
   rx="190"
   transform="matrix(0.279655,0,0.0110434,0.279655,21601,5580.75)"
   class="fil5" />
   </g>
   <g
   id="g2949">
    <g
   id="g2941">
     <rect
   style="fill:#00ade9"
   y="0"
   x="0"
   id="rect2937"
   ry="144"
   rx="144"
   height="608"
   width="1305"
   transform="matrix(0.13463,0.0799335,0,0.13463,20523.9,4971.77)"
   class="fil15" />
     <rect
   style="fill:#00ade9"
   y="0"
   x="0"
   id="rect2939"
   ry="144"
   rx="144"
   height="608"
   width="1305"
   transform="matrix(0.13463,0.0799335,0,0.13463,20523.9,4836.27)"
   class="fil15" />
    </g>
    <g
   id="g2947">
     <path
   style="fill:#ebecec"
   id="path2943"
   d="m 20547,4986 138,82 c 8,4 15,17 15,27 v 35 l -139,-82 c -8,-5 -14,-17 -14,-28 z"
   class="fil5" />
     <path
   style="fill:#ebecec"
   id="path2945"
   d="m 20547,4850 138,82 c 8,5 15,17 15,28 v 35 l -139,-82 c -8,-5 -14,-18 -14,-28 z"
   class="fil5" />
    </g>
   </g>
   <g
   id="g2963">
    <g
   id="g2955">
     <rect
   style="fill:#00ade9"
   y="0"
   x="0"
   id="rect2951"
   ry="144"
   rx="144"
   height="608"
   width="1305"
   transform="matrix(0.13463,0.0799335,0,0.13463,20747,5101.21)"
   class="fil15" />
     <rect
   style="fill:#00ade9"
   y="0"
   x="0"
   id="rect2953"
   ry="144"
   rx="144"
   height="608"
   width="1305"
   transform="matrix(0.13463,0.0799335,0,0.13463,20747,4965.71)"
   class="fil15" />
    </g>
    <g
   id="g2961">
     <path
   style="fill:#ebecec"
   id="path2957"
   d="m 20770,5115 138,82 c 8,5 15,17 15,28 v 35 l -139,-82 c -7,-5 -14,-18 -14,-28 z"
   class="fil5" />
     <path
   style="fill:#ebecec"
   id="path2959"
   d="m 20770,4979 138,83 c 8,4 15,17 15,27 v 35 l -139,-82 c -7,-5 -14,-17 -14,-28 z"
   class="fil5" />
    </g>
   </g>
  </g>
 </g>
</svg>