<svg xmlns="http://www.w3.org/2000/svg" viewBox="0 0 48.36 48.38"><defs><style>.cls-1{fill:#20d6f5;}.cls-2{fill:none;stroke:#20d6f5;stroke-miterlimit:10;stroke-width:2px;fill-rule:evenodd;}</style></defs><title>Asset 1</title><g id="Layer_2" data-name="Layer 2"><g id="_5-footer" data-name="5-footer"><path class="cls-1" d="M35.32,11.06H12.81A1.89,1.89,0,0,0,10.94,13V35.42a1.88,1.88,0,0,0,1.87,1.89H35.32a1.88,1.88,0,0,0,1.87-1.89V13A1.89,1.89,0,0,0,35.32,11.06ZM18.87,33.56H15V21h3.9V33.56ZM16.93,19.32a2.26,2.26,0,1,1,2.25-2.25A2.26,2.26,0,0,1,16.93,19.32ZM33.46,33.56H29.57V27.47c0-1.45,0-3.32-2-3.32s-2.34,1.58-2.34,3.21v6.2H21.32V21h3.73v1.71h.05a4.1,4.1,0,0,1,3.69-2c3.94,0,4.67,2.59,4.67,6Z"/><path class="cls-2" d="M24.18,1A23.19,23.19,0,1,0,47.36,24.19,23.18,23.18,0,0,0,24.18,1Z"/></g></g></svg>