<svg xmlns="http://www.w3.org/2000/svg" viewBox="0 0 48.36 48.38"><defs><style>.cls-1{fill:#20d6f5;}.cls-2{fill:none;stroke:#20d6f5;stroke-miterlimit:10;stroke-width:2px;fill-rule:evenodd;}</style></defs><title>Asset 2</title><g id="Layer_2" data-name="Layer 2"><g id="_5-footer" data-name="5-footer"><path class="cls-1" d="M35.6,20.33c0,.23,0,.46,0,.7A15.32,15.32,0,0,1,12.05,33.92a11.09,11.09,0,0,0,1.3.07A10.79,10.79,0,0,0,20,31.69,5.38,5.38,0,0,1,15,28,6.66,6.66,0,0,0,16,28a5.53,5.53,0,0,0,1.42-.19,5.37,5.37,0,0,1-4.32-5.27v-.07a5.39,5.39,0,0,0,2.44.68,5.36,5.36,0,0,1-2.4-4.48A5.28,5.28,0,0,1,13.88,16,15.34,15.34,0,0,0,25,21.63a6.36,6.36,0,0,1-.13-1.24,5.38,5.38,0,0,1,9.31-3.68,10.49,10.49,0,0,0,3.42-1.3,5.38,5.38,0,0,1-2.37,3,11.18,11.18,0,0,0,3.1-.83A11.68,11.68,0,0,1,35.6,20.33Z"/><path class="cls-2" d="M24.18,1A23.19,23.19,0,1,0,47.36,24.19,23.18,23.18,0,0,0,24.18,1Z"/></g></g></svg>