<?xml version="1.0" encoding="iso-8859-1"?>
<!-- Generator: Adobe Illustrator 19.0.0, SVG Export Plug-In . SVG Version: 6.00 Build 0)  -->
<svg version="1.1" id="Capa_1" xmlns="http://www.w3.org/2000/svg" xmlns:xlink="http://www.w3.org/1999/xlink" x="0px" y="0px"
	 viewBox="0 0 512 512" style="enable-background:new 0 0 512 512;" xml:space="preserve">
<g>
	<g>
		<path d="M480.682,330.971v-58.652H369.381v-66.931c0-28.449-23.145-51.594-51.594-51.594H194.213
			c-28.449,0-51.594,23.145-51.594,51.594v66.931H31.318v58.652l63.656,6.741c3.001,9.601,6.858,18.905,11.537,27.826
			l-40.252,49.786l61.735,61.735l49.787-40.253c8.921,4.679,18.227,8.536,27.826,11.537l6.74,63.657h87.307l6.741-63.657
			c9.601-3.001,18.905-6.858,27.826-11.536l49.787,40.253l61.735-61.735l-40.252-49.786c4.678-8.92,8.536-18.227,11.537-27.826
			L480.682,330.971z M172.619,205.388c0-11.907,9.687-21.594,21.594-21.594h123.574c11.907,0,21.594,9.687,21.594,21.594v66.93
			H172.619V205.388z M309.587,302.318c-6.566,23.424-28.095,40.657-53.587,40.657s-47.021-17.233-53.587-40.657H309.587z
			 M405.443,413.197l-23.564,23.563l-44.931-36.326l-9.017,5.481c-12.108,7.361-25.208,12.792-38.936,16.142l-10.25,2.5L272.662,482
			h-33.324l-6.083-57.442l-10.251-2.501c-13.725-3.347-26.824-8.777-38.935-16.141l-9.017-5.481l-44.931,36.326l-23.564-23.563
			l36.327-44.931l-5.482-9.017c-7.362-12.109-12.793-25.21-16.142-38.937l-2.5-10.251l-57.442-6.082v-1.662h110.367
			c7.116,40.1,42.203,70.657,84.315,70.657s77.199-30.557,84.315-70.657h110.367v1.662l-57.442,6.082l-2.5,10.251
			c-3.348,13.727-8.779,26.826-16.141,38.937l-5.481,9.017L405.443,413.197z"/>
	</g>
</g>
<g>
	<g>
		<path d="M256,0c-36.135,0-65.533,29.398-65.533,65.533c0,36.135,29.398,65.532,65.533,65.532s65.533-29.397,65.533-65.532
			C321.533,29.398,292.135,0,256,0z M256,101.065c-19.593,0-35.533-15.939-35.533-35.532C220.467,45.94,236.407,30,256,30
			s35.533,15.94,35.533,35.533C291.533,85.126,275.593,101.065,256,101.065z"/>
	</g>
</g>
</svg>
