<svg width="24" height="24" xmlns="http://www.w3.org/2000/svg">

 <g>
  <title>background</title>
  <rect fill="none" id="canvas_background" height="26" width="26" y="-1" x="-1"/>
 </g>
 <g>
  <title>Layer 1</title>
  <path stroke="#20D6F5" stroke-opacity="0" fill="#20D6F5" id="svg_1" d="m12,2c5.514,0 10,4.486 10,10s-4.486,10 -10,10s-10,-4.486 -10,-10s4.486,-10 10,-10zm0,-2c-6.627,0 -12,5.373 -12,12s5.373,12 12,12s12,-5.373 12,-12s-5.373,-12 -12,-12zm6.5,8.778c-0.441,0.196 -0.916,0.328 -1.414,0.388c0.509,-0.305 0.898,-0.787 1.083,-1.362c-0.476,0.282 -1.003,0.487 -1.564,0.597c-0.448,-0.479 -1.089,-0.778 -1.796,-0.778c-1.59,0 -2.758,1.483 -2.399,3.023c-2.045,-0.103 -3.86,-1.083 -5.074,-2.572c-0.645,1.106 -0.334,2.554 0.762,3.287c-0.403,-0.013 -0.782,-0.124 -1.114,-0.308c-0.027,1.14 0.791,2.207 1.975,2.445c-0.346,0.094 -0.726,0.116 -1.112,0.042c0.313,0.978 1.224,1.689 2.3,1.709c-1.037,0.812 -2.34,1.175 -3.647,1.021c1.09,0.699 2.383,1.106 3.773,1.106c4.572,0 7.154,-3.861 6.998,-7.324c0.482,-0.346 0.899,-0.78 1.229,-1.274z"/>
 </g>
</svg>
