
<svg xmlns="http://www.w3.org/2000/svg" viewBox="-80 0 496 496">
  <path d="M328 0H8C3.574 0 0 3.586 0 8v160c0 4.414 3.574 8 8 8h58.832a8.008 8.008 0 0 0 7.488-5.168A8.017 8.017 0 0 0 72.13 162 24.003 24.003 0 0 1 64 144c0-13.23 10.77-24 24-24s24 10.77 24 24c0 6.879-2.96 13.45-8.129 18a8 8 0 0 0 5.297 14H328c4.426 0 8-3.586 8-8V8c0-4.414-3.574-8-8-8zM165.168 101.68a8.004 8.004 0 0 0-5.168 7.488V160h-35.344A40.051 40.051 0 0 0 128 144c0-22.055-17.945-40-40-40s-40 17.945-40 40a40.051 40.051 0 0 0 3.344 16H16V16h144v50.832a8.012 8.012 0 0 0 5.168 7.488A8.014 8.014 0 0 0 174 72.13 24.003 24.003 0 0 1 192 64c13.23 0 24 10.77 24 24s-10.77 24-24 24c-6.879 0-13.45-2.96-18-8.129-2.2-2.504-5.734-3.36-8.832-2.191zM320 160H176v-35.336A40.044 40.044 0 0 0 192 128c22.055 0 40-17.945 40-40s-17.945-40-40-40a40.044 40.044 0 0 0-16 3.336V16h144zm0 0M216 256v-16c0-26.473-21.527-48-48-48s-48 21.527-48 48v16c0 26.473 21.527 48 48 48s48-21.527 48-48zm-80 0v-16c0-17.648 14.352-32 32-32s32 14.352 32 32v16c0 17.648-14.352 32-32 32s-32-14.352-32-32zm0 0"/>
  <path d="M272 224h-32c-4.426 0-8 3.586-8 8v88H104v-88c0-4.414-3.574-8-8-8H64c-4.426 0-8 3.586-8 8v128c0 4.414 3.574 8 8 8h48v128h16v-32h32v32h16v-32h32v32h16V368h48c4.426 0 8-3.586 8-8V232c0-4.414-3.574-8-8-8zm-8 128h-48c-4.426 0-8 3.586-8 8v88h-80v-88c0-4.414-3.574-8-8-8H72V240h16v88c0 4.414 3.574 8 8 8h144c4.426 0 8-3.586 8-8v-88h16zm0 0"/>
</svg>
