<svg height="512pt" viewBox="-7 0 511 512" width="512pt" xmlns="http://www.w3.org/2000/svg"><path d="m498.054688 450.074219-34.769532-34.769531 3.96875-3.964844-.417968-20.523438-51.964844-51.960937h-33.140625v-40.246094h-15v53.894531l-22.664063 22.738282v-19.039063l-26.1875-4.332031c-.988281-2.890625-2.160156-5.71875-3.511718-8.464844l15.457031-21.582031-27.042969-27.042969-21.585938 15.453125c-2.746093-1.347656-5.570312-2.519531-8.464843-3.507813l-1.847657-11.1875h5.289063l2.894531-21.171874 14.082032 13.6875 38.453124-37.382813h68.375l34.308594 34.304687v66.398438h15v-72.609375l-43.09375-43.09375h-91.472656v-48.046875l24.863281-24.863281v-72.457031c0-49.792969-40.511719-90.304688-90.304687-90.304688-49.792969 0-90.304688 40.511719-90.304688 90.304688v72.457031l24.863282 24.859375v48.050781h-91.472657l-43.09375 43.09375v72.609375h15v-66.398438l34.308594-34.304687h68.367187l38.457032 37.382813 14.078125-13.6875 2.898437 21.171874h5.292969l-1.851563 11.1875c-2.890624.988282-5.71875 2.160157-8.464843 3.507813l-21.582031-15.457031-27.046876 27.046875 15.457032 21.582031c-1.347656 2.746094-2.519532 5.574219-3.507813 8.464844l-26.1875 4.332031v19.035156l-22.667969-22.734375v-53.894531h-15v40.246094h-33.136718l-51.960938 51.960937-.421875 20.523438 3.96875 3.964844-34.769531 34.769531 15.402344 15.402343-6.988282 6.988282 26.011719 26.011718 6.988281-6.988281 15.402344 15.402344 9.84375-9.84375 14.949219 14.949219 87.613281-87.613282-1.652344-27.6875 12.605469 2.085938c.988281 2.894531 2.160157 5.71875 3.507813 8.464844l-15.453125 21.582031 27.042969 27.046875 10.734374-7.6875-2.402343 25.859375 35.359375 22.953125h-107.640625v-12.824219h-15v27.824219h264.910156v-27.824219h-15v12.824219h-107.644531l35.355468-22.953125-2.402343-25.863281 10.738281 7.691406 27.046875-27.042969-15.457031-21.585937c1.347656-2.742188 2.523437-5.570313 3.511718-8.460938l12.605469-2.085937-1.65625 27.683593 87.617188 87.617188 14.949219-14.949219 9.84375 9.84375 15.402343-15.40625 6.988281 6.988281 26.007813-26.007812-6.988281-6.988281zm-204.90625-182.941407-16.589844-16.128906-.34375-.332031h33.867187zm-119.175782-176.828124c0-41.523438 33.785156-75.304688 75.304688-75.304688 41.523437 0 75.304687 33.78125 75.304687 75.304688v66.242187l-47.605469 47.605469h-55.398437l-47.601563-47.605469v-66.242187zm24.863282 112.316406 16.53125 16.53125h67.824218l16.527344-16.53125v33.050781h-100.882812zm-10.371094 48.050781h33.871094c-6.359376 6.179687-13.277344 12.902344-16.9375 16.460937zm55.390625 0h10.839843l11.015626 10.703125-2.625 19.164062h-27.621094l-2.621094-19.160156c1.011719-.988281 9.691406-9.425781 11.011719-10.707031zm-161.746094 240.113281-4.34375-4.34375 27.125-27.128906-10.605469-10.605469c-7.835937 7.835938-31.800781 31.800781-36.96875 36.96875l-4.796875-4.792969 36.96875-36.972656-10.605469-10.605468c-14.511718 14.507812-31.515624 31.515624-43.957031 43.957031l-4.796875-4.792969c6.714844-6.714844 40.84375-40.847656 43.957032-43.957031l-10.609376-10.609375-36.96875 36.96875-4.796874-4.796875 29.46875-29.464844 22.414062-22.417969h17.574219l16.285156-16.285156-10.605469-10.605469-11.890625 11.890625h-17.574219l-20.929687 20.929688.140625-6.960938 43.304688-43.304687h22.089843l40.949219 41.074219 1.410156 23.617187zm167.167969-5.296875-29.398438-19.085937 2.21875-23.863282c1.226563.496094 2.46875.960938 3.722656 1.390626l4.332032 26.1875h38.25l4.332031-26.1875c1.25-.429688 2.492187-.890626 3.71875-1.386719l2.214844 23.863281zm79.789062-103.757812-23 3.804687-1.25 4.671875c-1.292968 4.847657-3.226562 9.511719-5.746094 13.863281l-2.421874 4.191407 13.574218 18.957031-9.050781 9.054688-18.960937-13.578126-4.1875 2.425782c-4.355469 2.519531-9.019532 4.453125-13.867188 5.746094l-4.671875 1.25-3.804687 23h-12.804688l-3.804688-23-4.671874-1.25c-4.847657-1.292969-9.511719-3.226563-13.867188-5.746094l-4.1875-2.425782-18.957031 13.578126-9.054688-9.054688 13.574219-18.957031-2.421875-4.191407c-2.519531-4.351562-4.453125-9.015624-5.746094-13.863281l-1.25-4.671875-23-3.804687v-12.804688l23-3.804687 1.25-4.671875c1.292969-4.847657 3.226563-9.511719 5.746094-13.863281l2.421875-4.191407-13.574219-18.957031 9.054688-9.054688 18.957031 13.578126 4.1875-2.425782c4.355469-2.519531 9.019531-4.453125 13.863281-5.746094l4.675781-1.25 3.804688-23h12.804688l3.804687 23 4.675781 1.25c4.847656 1.292969 9.511719 3.226563 13.863282 5.746094l4.1875 2.425782 18.960937-13.578126 9.050781 9.054688-13.574218 18.957031 2.421874 4.191407c2.519532 4.351562 4.453126 9.015624 5.746094 13.863281l1.25 4.671875 23 3.804687zm134.566406 95.53125c-12.746093-12.746094-30.433593-30.433594-43.957031-43.957031l-10.605469 10.605468 36.96875 36.96875-4.796874 4.796875c-7.304688-7.304687-27.832032-27.832031-36.96875-36.96875l-10.609376 10.605469 27.128907 27.125-4.34375 4.34375-72.242188-72.238281 1.414063-23.613281 40.949218-41.074219h22.089844l43.304688 43.300781.140625 6.964844-20.929688-20.929688h-17.574219l-11.894531-11.890625-10.605469 10.605469 16.285157 16.285156h17.574219l51.882812 51.882813-4.796875 4.796875-36.96875-36.96875-10.605469 10.605468c3.105469 3.105469 37.246094 37.25 43.957032 43.957032zm0 0"/><path d="m249.277344 339.367188c-19.828125 0-35.960938 16.132812-35.960938 35.960937s16.132813 35.960937 35.960938 35.960937 35.960937-16.132812 35.960937-35.960937-16.132812-35.960937-35.960937-35.960937zm0 56.921874c-11.558594 0-20.960938-9.402343-20.960938-20.960937s9.402344-20.960937 20.960938-20.960937 20.960937 9.402343 20.960937 20.960937-9.402343 20.960937-20.960937 20.960937zm0 0"/><path d="m299.542969 88.289062c-.34375-8.722656-2.980469-17.242187-7.617188-24.636718l12.703125-7.972656c6.03125 9.605468 9.453125 20.679687 9.902344 32.019531zm-12.859375-31.578124c-2.917969-3.246094-6.242188-6.105469-9.882813-8.496094l8.230469-12.539063c4.71875 3.097657 9.027344 6.800781 12.804688 11.003907zm-17.535156-12.617188c-3.988282-1.726562-8.195313-2.921875-12.5-3.554688l2.1875-14.839843c5.601562.824219 11.070312 2.378906 16.265624 4.625zm0 0"/></svg>