<?xml version="1.0" encoding="UTF-8" standalone="no"?>
<svg
   xmlns:dc="http://purl.org/dc/elements/1.1/"
   xmlns:cc="http://creativecommons.org/ns#"
   xmlns:rdf="http://www.w3.org/1999/02/22-rdf-syntax-ns#"
   xmlns:svg="http://www.w3.org/2000/svg"
   xmlns="http://www.w3.org/2000/svg"
   id="svg1967"
   xml:space="preserve"
   width="478.20801"
   viewBox="0 0 478.20801 512"
   version="1.1"
   height="512"
   enable-background="new 0 0 32 32"><metadata
     id="metadata1973"><rdf:RDF><cc:Work
         rdf:about=""><dc:format>image/svg+xml</dc:format><dc:type
           rdf:resource="http://purl.org/dc/dcmitype/StillImage" /><dc:title></dc:title></cc:Work></rdf:RDF></metadata><defs
     id="defs1971" /><g
     style="stroke-width:0.05859375"
     transform="matrix(17.066667,0,0,17.066667,-34.133334,-17.066667)"
     id="digital_contract"><g
       style="stroke-width:0.05859375"
       id="g1906"><g
         style="stroke-width:0.05859375"
         id="g1884"><g
           style="stroke-width:0.05859375"
           id="g1882"><path
             style="fill:#123456;stroke-width:0.70312499;stroke-miterlimit:4;stroke-dasharray:none;fill-opacity:1"
             id="path1880"
             d="M 28.5,31 H 7.5 C 6.673,31 6,30.327 6,29.5 v -1 C 6,28.224 6.224,28 6.5,28 6.776,28 7,28.224 7,28.5 v 1 C 7,29.775 7.224,30 7.5,30 h 21 C 28.776,30 29,29.775 29,29.5 V 8.707 L 22.293,2 H 7.5 C 7.224,2 7,2.225 7,2.5 v 5 C 7,7.776 6.776,8 6.5,8 6.224,8 6,7.776 6,7.5 v -5 C 6,1.673 6.673,1 7.5,1 h 15 c 0.133,0 0.26,0.053 0.354,0.146 l 7,7 C 29.947,8.24 30,8.367 30,8.5 v 21 c 0,0.827 -0.673,1.5 -1.5,1.5 z" /></g></g><g
         style="stroke-width:0.05859375"
         id="g1890"><g
           style="stroke-width:0.05859375"
           id="g1888"><path
             style="fill:#123456;stroke-width:0.05859375;stroke:#123456;stroke-opacity:1;fill-opacity:1"
             id="path1886"
             d="M 6.5,15.969 C 6.224,15.969 6,15.745 6,15.469 V 11.5 C 6,11.224 6.224,11 6.5,11 6.776,11 7,11.224 7,11.5 v 3.969 c 0,0.276 -0.224,0.5 -0.5,0.5 z" /></g></g><g
         style="stroke-width:0.05859375"
         id="g1896"><g
           style="stroke-width:0.05859375"
           id="g1894"><path
             style="fill:#123456;stroke-width:0.05859375;fill-opacity:1"
             id="path1892"
             d="M 29.52,9 C 29.513,9 29.506,8.999 29.5,9 h -6 C 22.673,9 22,8.327 22,7.5 v -6 c 0,-0.202 0.122,-0.385 0.309,-0.462 0.187,-0.075 0.402,-0.034 0.545,0.108 l 6.926,6.926 c 0.144,0.088 0.24,0.247 0.24,0.428 0,0.276 -0.224,0.5 -0.5,0.5 z M 23,2.707 V 7.5 C 23,7.775 23.224,8 23.5,8 h 4.793 z" /></g></g><path
         style="fill:#123456;stroke-width:0.05859375;stroke:#123456;stroke-opacity:1;fill-opacity:1"
         id="path1898"
         d="M 7.5,9 C 5.019,9 3,11.019 3,13.5 V 18 H 4 V 13.5 C 4,11.57 5.57,10 7.5,10 9.43,10 11,11.57 11,13.5 V 18 h 1 V 13.5 C 12,11.019 9.981,9 7.5,9 Z" /><g
         style="stroke-width:0.05859375"
         id="g1904"><g
           style="stroke-width:0.05859375"
           id="g1902"><path
             style="fill:#123456;stroke-width:0.05859375;stroke:#123456;stroke-opacity:1;fill-opacity:1"
             id="path1900"
             d="m 9.5,27 h -4 C 3.57,27 2,25.43 2,23.5 v -6 C 2,17.224 2.224,17 2.5,17 h 5 C 7.776,17 8,17.224 8,17.5 8,17.776 7.776,18 7.5,18 H 3 v 5.5 C 3,24.879 4.121,26 5.5,26 h 4 C 10.879,26 12,24.879 12,23.5 V 18 H 9.5 C 9.224,18 9,17.776 9,17.5 9,17.224 9.224,17 9.5,17 h 3 c 0.276,0 0.5,0.224 0.5,0.5 v 6 C 13,25.43 11.43,27 9.5,27 Z" /></g></g></g><g
       style="stroke-width:0.05859375"
       id="g1914"><g
         style="stroke-width:0.05859375"
         id="g1912"><g
           style="stroke-width:0.05859375"
           id="g1910"><circle
             style="fill:#123456;stroke-width:0.05859375;stroke:#123456;stroke-opacity:1;fill-opacity:1"
             id="circle1908"
             r="1"
             cy="21.5"
             cx="7.5" /></g></g></g><g
       style="stroke-width:0.05859375"
       id="g1920"><g
         style="stroke-width:0.05859375"
         id="g1918"><path
           style="fill:#123456;stroke-width:0.05859375;fill-opacity:1"
           id="path1916"
           d="m 24.5,28.5 c -1.654,0 -3,-1.346 -3,-3 0,-1.654 1.346,-3 3,-3 1.654,0 3,1.346 3,3 0,1.654 -1.346,3 -3,3 z m 0,-5 c -1.103,0 -2,0.897 -2,2 0,1.103 0.897,2 2,2 1.103,0 2,-0.897 2,-2 0,-1.103 -0.897,-2 -2,-2 z" /></g></g><g
       style="stroke-width:0.05859375"
       id="g1928"><g
         style="stroke-width:0.05859375"
         id="g1926"><g
           style="stroke-width:0.05859375"
           id="g1924"><path
             style="fill:#123456;stroke-width:0.05859375;stroke:#123456;stroke-opacity:1;fill-opacity:1"
             id="path1922"
             d="m 7.5,24 v 0 C 7.224,24 7,23.776 7,23.5 V 21 h 1 v 2.5 C 8,23.776 7.776,24 7.5,24 Z" /></g></g></g><g
       style="stroke-width:0.05859375"
       id="g1934"><g
         style="stroke-width:0.05859375"
         id="g1932"><path
           style="fill:#123456;stroke-width:0.05859375;fill-opacity:1"
           id="path1930"
           d="m 19.5,26 h -5 C 14.224,26 14,25.776 14,25.5 14,25.224 14.224,25 14.5,25 h 5 c 0.276,0 0.5,0.224 0.5,0.5 0,0.276 -0.224,0.5 -0.5,0.5 z" /></g></g><g
       style="stroke-width:0.05859375"
       id="g1940"><g
         style="stroke-width:0.05859375"
         id="g1938"><path
           style="fill:#123456;stroke-width:0.05859375;fill-opacity:1"
           id="path1936"
           d="m 19.5,24 h -5 C 14.224,24 14,23.776 14,23.5 14,23.224 14.224,23 14.5,23 h 5 c 0.276,0 0.5,0.224 0.5,0.5 0,0.276 -0.224,0.5 -0.5,0.5 z" /></g></g><g
       style="stroke-width:0.05859375"
       id="g1946"><g
         style="stroke-width:0.05859375"
         id="g1944"><path
           style="fill:#123456;stroke-width:0.05859375;fill-opacity:1"
           id="path1942"
           d="M 20,17 H 14.5 C 14.224,17 14,16.776 14,16.5 14,16.224 14.224,16 14.5,16 H 20 c 0.276,0 0.5,0.224 0.5,0.5 0,0.276 -0.224,0.5 -0.5,0.5 z" /></g></g><g
       style="stroke-width:0.05859375"
       id="g1952"><g
         style="stroke-width:0.05859375"
         id="g1950"><path
           style="fill:#123456;stroke-width:0.05859375;fill-opacity:1"
           id="path1948"
           d="m 24.5,15 h -10 C 14.224,15 14,14.776 14,14.5 14,14.224 14.224,14 14.5,14 h 10 c 0.276,0 0.5,0.224 0.5,0.5 0,0.276 -0.224,0.5 -0.5,0.5 z" /></g></g><g
       style="stroke-width:0.05859375"
       id="g1958"><g
         style="stroke-width:0.05859375"
         id="g1956"><path
           style="fill:#123456;stroke-width:0.05859375;fill-opacity:1"
           id="path1954"
           d="m 24.5,13 h -10 C 14.224,13 14,12.776 14,12.5 14,12.224 14.224,12 14.5,12 h 10 c 0.276,0 0.5,0.224 0.5,0.5 0,0.276 -0.224,0.5 -0.5,0.5 z" /></g></g><g
       style="stroke-width:0.05859375"
       id="g1964"><g
         style="stroke-width:0.05859375"
         id="g1962"><path
           style="fill:#123456;stroke-width:0.05859375;fill-opacity:1"
           id="path1960"
           d="M 20.5,7 H 11 C 10.724,7 10.5,6.776 10.5,6.5 10.5,6.224 10.724,6 11,6 h 9.5 C 20.776,6 21,6.224 21,6.5 21,6.776 20.776,7 20.5,7 Z" /></g></g></g></svg>