<?xml version="1.0" encoding="UTF-8" standalone="no"?>
<svg
   xmlns:dc="http://purl.org/dc/elements/1.1/"
   xmlns:cc="http://creativecommons.org/ns#"
   xmlns:rdf="http://www.w3.org/1999/02/22-rdf-syntax-ns#"
   xmlns:svg="http://www.w3.org/2000/svg"
   xmlns="http://www.w3.org/2000/svg"
   xmlns:xlink="http://www.w3.org/1999/xlink"
   id="svg8"
   version="1.1"
   viewBox="0 0 114.47749 16.360001"
   height="16.360001mm"
   width="114.47749mm">
  <defs
     id="defs2">
    <color-profile
       id="color-profile936"
       xlink:href="/System/Library/ColorSync/Profiles/Generic CMYK Profile.icc"
       name="Generic-CMYK-Profile" />
    <style
       id="style10"
       type="text/css">
   <![CDATA[
    .fil1 {fill:#20D7F5;fill-rule:nonzero}
    .fil0 {fill:#808285;fill-rule:nonzero}
   ]]>
  </style>
  </defs>
  <metadata
     id="metadata5">
    <rdf:RDF>
      <cc:Work
         rdf:about="">
        <dc:format>image/svg+xml</dc:format>
        <dc:type
           rdf:resource="http://purl.org/dc/dcmitype/StillImage" />
        <dc:title></dc:title>
      </cc:Work>
    </rdf:RDF>
  </metadata>
  <g
     transform="translate(76.89351,-140.65333)"
     id="layer1">
    <g
       transform="matrix(0.01,0,0,0.01,-80.89351,136.65333)"
       id="g974"
       style="clip-rule:evenodd;fill-rule:evenodd;image-rendering:optimizeQuality;shape-rendering:geometricPrecision;text-rendering:geometricPrecision">
      <g
         transform="translate(-8933.2503,-8220)"
         id="Vrstva_x0020_1">
  <metadata
   id="CorelCorpID_0Corel-Layer" />

  <path
   style="fill:#808285;fill-rule:nonzero"
   id="path15"
   d="m 9462.2503,10255 c 355.9999,0 711.0007,0 1067.0027,0 h 18 l 112,-111 v -18 -228 h -260.001 v 98 c -269.001,0 -538.0021,0 -807.0017,0 v -660 c 268.9996,0 538.0007,0 807.0017,0 v 98 h 260.001 v -227 -19 l -112,-111 h -18 c -356.002,0 -711.0028,0 -1067.0027,0 h -18 l -111,111 v 19 919 18 l 111,111 z"
   class="fil0" />

  <path
   style="fill:#20d7f5;fill-rule:nonzero"
   id="path17"
   d="m 11075.253,8620 c -355,0 -711.001,0 -1066.003,0 h -18.9997 l -111.0004,111 v 19 227 h 259.0011 v -98 c 269.001,0 538.002,0 807.002,0 v 660 c -269,0 -538.001,0 -807.002,0 v -98 h -259.0011 v 228 18 l 111.0004,111 h 18.9997 c 355.002,0 711.003,0 1066.003,0 h 19 l 111,-111 v -18 -919 -19 l -111,-111 z"
   class="fil1" />

  <polygon
   style="fill:#20d7f5;fill-rule:nonzero"
   id="polygon19"
   points="12331,8620 12582,8620 12137,9065 12582,9511 12331,9511 11974,9154 11692,9154 11692,9511 11514,9511 11514,8620 11692,8620 11692,8976 11974,8976 "
   class="fil1" />

  <path
   style="fill:#20d7f5;fill-rule:nonzero"
   id="path21"
   d="m 13651,9511 h -1009 v -891 h 1009 z m -178,-713 h -653 v 534 h 653 z"
   class="fil1" />

  <polygon
   style="fill:#20d7f5;fill-opacity:1;fill-rule:nonzero"
   id="polygon23"
   points="13955,8620 14304,8969 14653,8620 14838,8620 14838,9511 14660,9511 14660,8865 14304,9221 13948,8865 13948,9511 13770,9511 13770,8620 "
   class="fil1" />

  <path
   style="fill:#20d7f5;fill-rule:nonzero"
   id="path25"
   d="m 15966,8620 v 534 h -831 v 357 h -178 v -891 z m -178,178 h -653 v 178 h 653 z"
   class="fil1" />

  <polygon
   style="fill:#20d7f5;fill-rule:nonzero"
   id="polygon27"
   points="16263,9511 16085,9511 16085,8620 16263,8620 "
   class="fil1" />

  <polygon
   style="fill:#808285;fill-rule:nonzero"
   id="polygon29"
   points="16797,9511 16797,8798 16382,8798 16382,8620 17391,8620 17391,8798 16975,8798 16975,9511 "
   class="fil0" />

  <path
   style="fill:#808285;fill-rule:nonzero"
   id="path31"
   d="m 18519,9511 h -1010 v -179 h 1010 z m 0,-357 h -1010 v -178 h 1010 z m 0,-356 h -1010 v -178 h 1010 z"
   class="fil0" />

  <polygon
   style="fill:#808285;fill-rule:nonzero"
   id="polygon33"
   points="19646,9332 19646,9511 18637,9511 18637,8620 19646,8620 19646,8798 18815,8798 18815,9332 "
   class="fil0" />

  <polygon
   style="fill:#808285;fill-rule:nonzero"
   id="polygon35"
   points="19943,8976 20596,8976 20596,8620 20774,8620 20774,9511 20596,9511 20596,9154 19943,9154 19943,9511 19765,9511 19765,8620 19943,8620 "
   class="fil0" />

  <polygon
   style="fill:#808285;fill-rule:nonzero"
   id="polygon37"
   points="11767,10198 11767,10140 11495,10140 11495,9965 11826,9965 11826,10023 11554,10023 11554,10081 11826,10081 11826,10256 11495,10256 11495,10198 "
   class="fil0" />

  <polygon
   style="fill:#808285;fill-rule:nonzero"
   id="polygon39"
   points="11908,9965 11966,9965 11966,10176 12083,10060 12199,10176 12199,9965 12257,9965 12257,10256 12197,10256 12083,10142 11968,10256 11908,10256 "
   class="fil0" />

  <polygon
   style="fill:#808285;fill-rule:nonzero"
   id="polygon41"
   points="12398,10256 12340,10256 12340,9965 12398,9965 "
   class="fil0" />

  <polygon
   style="fill:#808285;fill-rule:nonzero"
   id="polygon43"
   points="12752,10198 12752,10140 12480,10140 12480,9965 12810,9965 12810,10023 12539,10023 12539,10081 12810,10081 12810,10256 12480,10256 12480,10198 "
   class="fil0" />

  <polygon
   style="fill:#808285;fill-rule:nonzero"
   id="polygon45"
   points="13165,10198 13165,10140 12893,10140 12893,9965 13223,9965 13223,10023 12951,10023 12951,10081 13223,10081 13223,10256 12893,10256 12893,10198 "
   class="fil0" />

  <polygon
   style="fill:#808285;fill-rule:nonzero"
   id="polygon47"
   points="13694,10256 13694,10023 13558,10023 13558,9965 13888,9965 13888,10023 13752,10023 13752,10256 "
   class="fil0" />

  <path
   style="fill:#808285;fill-rule:nonzero"
   id="path49"
   d="m 14300,10256 h -330 v -58 h 330 z m 0,-116 h -330 v -59 h 330 z m 0,-117 h -330 v -58 h 330 z"
   class="fil0" />

  <polygon
   style="fill:#808285;fill-rule:nonzero"
   id="polygon51"
   points="14713,10198 14713,10256 14383,10256 14383,9965 14713,9965 14713,10023 14441,10023 14441,10198 "
   class="fil0" />

  <polygon
   style="fill:#808285;fill-rule:nonzero"
   id="polygon53"
   points="14853,10081 15067,10081 15067,9965 15125,9965 15125,10256 15067,10256 15067,10140 14853,10140 14853,10256 14795,10256 14795,9965 14853,9965 "
   class="fil0" />

  <polygon
   style="fill:#808285;fill-rule:nonzero"
   id="polygon55"
   points="15480,10176 15480,9965 15538,9965 15538,10256 15477,10256 15266,10045 15266,10256 15208,10256 15208,9965 15268,9965 "
   class="fil0" />

  <path
   style="fill:#808285;fill-rule:nonzero"
   id="path57"
   d="m 15950,10256 h -330 v -291 h 330 z m -58,-233 h -214 v 175 h 214 z"
   class="fil0" />

  <polygon
   style="fill:#808285;fill-rule:nonzero"
   id="polygon59"
   points="16304,10120 16363,10120 16363,10256 16032,10256 16032,9965 16091,9965 16091,10198 16304,10198 "
   class="fil0" />

  <path
   style="fill:#808285;fill-rule:nonzero"
   id="path61"
   d="m 16775,10256 h -330 v -291 h 330 z m -58,-233 h -214 v 175 h 214 z"
   class="fil0" />

  <polygon
   style="fill:#808285;fill-rule:nonzero"
   id="polygon63"
   points="17188,10081 17188,10256 16857,10256 16857,9965 17188,9965 17188,10023 16916,10023 16916,10198 17129,10198 17129,10140 16993,10140 16993,10081 "
   class="fil0" />

  <polygon
   style="fill:#808285;fill-rule:nonzero"
   id="polygon65"
   points="17406,10256 17406,10122 17248,9965 17330,9965 17435,10069 17539,9965 17622,9965 17464,10122 17464,10256 "
   class="fil0" />

  <polygon
   style="fill:#808285;fill-rule:nonzero"
   id="polygon67"
   points="18265,10198 18265,10256 17935,10256 17935,9965 18265,9965 18265,10023 17993,10023 17993,10198 "
   class="fil0" />

  <path
   style="fill:#808285;fill-rule:nonzero"
   id="path69"
   d="m 18677,10256 h -330 v -291 h 330 z m -58,-233 h -213 v 175 h 213 z"
   class="fil0" />

  <polygon
   style="fill:#808285;fill-rule:nonzero"
   id="polygon71"
   points="18820,9965 18935,10079 19049,9965 19109,9965 19109,10256 19051,10256 19051,10045 18935,10161 18818,10045 18818,10256 18760,10256 18760,9965 "
   class="fil0" />

  <path
   style="fill:#808285;fill-rule:nonzero"
   id="path73"
   d="m 19522,9965 v 175 h -272 v 116 h -58 v -291 z m -58,58 h -214 v 58 h 214 z"
   class="fil0" />

  <path
   style="fill:#808285;fill-rule:nonzero"
   id="path75"
   d="m 19934,9965 v 291 h -58 v -116 h -214 v 116 h -58 v -291 z m -58,58 h -214 v 58 h 214 z"
   class="fil0" />

  <polygon
   style="fill:#808285;fill-rule:nonzero"
   id="polygon77"
   points="20288,10176 20288,9965 20347,9965 20347,10256 20286,10256 20075,10045 20075,10256 20017,10256 20017,9965 20077,9965 "
   class="fil0" />

  <polygon
   style="fill:#808285;fill-rule:nonzero"
   id="polygon79"
   points="20565,10256 20565,10122 20407,9965 20490,9965 20594,10069 20699,9965 20781,9965 20623,10122 20623,10256 "
   class="fil0" />

 </g>
    </g>
  </g>
</svg>
