<?xml version="1.0" encoding="UTF-8" standalone="no"?>
<svg
   xmlns:dc="http://purl.org/dc/elements/1.1/"
   xmlns:cc="http://creativecommons.org/ns#"
   xmlns:rdf="http://www.w3.org/1999/02/22-rdf-syntax-ns#"
   xmlns:svg="http://www.w3.org/2000/svg"
   xmlns="http://www.w3.org/2000/svg"
   xml:space="preserve"
   viewBox="0 0 268.83249 184.99976"
   height="184.99976"
   width="268.83249"
   y="0px"
   x="0px"
   id="Capa_1"
   version="1.1"><metadata
   id="metadata2720"><rdf:RDF><cc:Work
       rdf:about=""><dc:format>image/svg+xml</dc:format><dc:type
         rdf:resource="http://purl.org/dc/dcmitype/StillImage" /><dc:title></dc:title></cc:Work></rdf:RDF></metadata><defs
   id="defs2718" />
<g
   transform="translate(0,-41.91625)"
   style="fill:#031457;fill-opacity:1"
   id="g2683">
	<path
   style="fill:#031457;fill-opacity:1"
   id="path2681"
   d="m 265.171,125.577 -80,-80 c -4.881,-4.881 -12.797,-4.881 -17.678,0 -4.882,4.882 -4.882,12.796 0,17.678 l 58.661,58.661 H 12.5 c -6.903,0 -12.5,5.597 -12.5,12.5 0,6.902 5.597,12.5 12.5,12.5 h 213.654 l -58.659,58.661 c -4.882,4.882 -4.882,12.796 0,17.678 2.44,2.439 5.64,3.661 8.839,3.661 3.199,0 6.398,-1.222 8.839,-3.661 l 79.998,-80 c 4.882,-4.882 4.882,-12.796 0,-17.678 z" />
</g>
<g
   transform="translate(0,-41.91625)"
   id="g2685">
</g>
<g
   transform="translate(0,-41.91625)"
   id="g2687">
</g>
<g
   transform="translate(0,-41.91625)"
   id="g2689">
</g>
<g
   transform="translate(0,-41.91625)"
   id="g2691">
</g>
<g
   transform="translate(0,-41.91625)"
   id="g2693">
</g>
<g
   transform="translate(0,-41.91625)"
   id="g2695">
</g>
<g
   transform="translate(0,-41.91625)"
   id="g2697">
</g>
<g
   transform="translate(0,-41.91625)"
   id="g2699">
</g>
<g
   transform="translate(0,-41.91625)"
   id="g2701">
</g>
<g
   transform="translate(0,-41.91625)"
   id="g2703">
</g>
<g
   transform="translate(0,-41.91625)"
   id="g2705">
</g>
<g
   transform="translate(0,-41.91625)"
   id="g2707">
</g>
<g
   transform="translate(0,-41.91625)"
   id="g2709">
</g>
<g
   transform="translate(0,-41.91625)"
   id="g2711">
</g>
<g
   transform="translate(0,-41.91625)"
   id="g2713">
</g>
</svg>