<?xml version="1.0" encoding="UTF-8" standalone="no"?>
<svg
   xmlns:dc="http://purl.org/dc/elements/1.1/"
   xmlns:cc="http://creativecommons.org/ns#"
   xmlns:rdf="http://www.w3.org/1999/02/22-rdf-syntax-ns#"
   xmlns:svg="http://www.w3.org/2000/svg"
   xmlns="http://www.w3.org/2000/svg"
   id="svg1196"
   version="1.1"
   width="558.22827"
   viewBox="0 0 558.22827 512"
   height="512">
  <metadata
     id="metadata1202">
    <rdf:RDF>
      <cc:Work
         rdf:about="">
        <dc:format>image/svg+xml</dc:format>
        <dc:type
           rdf:resource="http://purl.org/dc/dcmitype/StillImage" />
        <dc:title></dc:title>
      </cc:Work>
    </rdf:RDF>
  </metadata>
  <defs
     id="defs1200" />
  <path
     style="opacity:1;fill:#123356;fill-opacity:1;stroke-width:1"
     id="path1194"
     d="m 260.50653,255.8546 q 0,-30.8188 -21.80579,-52.6246 -21.80579,-21.8058 -52.62464,-21.8058 -30.81886,0 -52.62465,21.8058 -21.80579,21.8058 -21.80579,52.6246 0,30.8189 21.80579,52.6247 21.80579,21.8058 52.62465,21.8058 30.81885,0 52.62464,-21.8058 21.80579,-21.8058 21.80579,-52.6247 z m 223.29132,148.8609 q 0,-15.1187 -11.04827,-26.1669 -11.04827,-11.0483 -26.16695,-11.0483 -15.11868,0 -26.16695,11.0483 -11.04827,11.0482 -11.04827,26.1669 0,15.4094 10.9029,26.3123 10.90289,10.9029 26.31232,10.9029 15.40943,0 26.31232,-10.9029 10.9029,-10.9029 10.9029,-26.3123 z m 0,-297.7217 q 0,-15.1187 -11.04827,-26.167 -11.04827,-11.0483 -26.16695,-11.0483 -15.11868,0 -26.16695,11.0483 -11.04827,11.0483 -11.04827,26.167 0,15.4094 10.9029,26.3123 10.90289,10.9029 26.31232,10.9029 15.40943,0 26.31232,-10.9029 10.9029,-10.9029 10.9029,-26.3123 z M 372.15219,229.3969 v 53.7877 q 0,2.9074 -2.03521,5.6695 -2.0352,2.762 -4.6519,3.0528 l -45.0653,6.9778 q -3.19819,10.1761 -9.30381,22.0966 9.8853,13.9557 26.16695,33.4355 2.03521,2.9075 2.03521,5.8149 0,3.4889 -2.03521,5.5241 -6.68711,8.7223 -23.98637,26.0216 -17.29926,17.2993 -22.82339,17.2993 -3.19819,0 -6.10563,-2.0352 l -33.43554,-26.167 q -10.75753,5.5241 -22.38728,9.0131 -3.19819,31.4003 -6.68711,45.0653 -2.03521,6.9778 -8.72232,6.9778 h -54.07837 q -3.19818,0 -5.81487,-2.1806 -2.6167,-2.1805 -2.90744,-5.088 l -6.68711,-44.4838 q -9.8853,-2.9074 -21.8058,-9.013 l -34.307776,25.8762 q -2.035207,2.0352 -5.814878,2.0352 -3.198183,0 -6.105622,-2.326 -41.867122,-38.6689 -41.867122,-46.519 0,-2.6167 2.035208,-5.5241 2.907439,-4.0705 11.9205,-15.4095 9.01306,-11.339 13.664963,-17.7353 -6.68711,-12.7928 -10.176037,-23.841 L 6.9778536,290.7439 Q 4.0704146,290.4532 2.0352073,287.9818 0,285.5105 0,282.3123 v -53.7876 q 0,-2.9074 2.0352073,-5.6695 2.0352073,-2.7621 4.6519024,-3.0528 l 45.0653043,-6.9779 q 3.198183,-10.176 9.303805,-22.0965 -9.885293,-13.9557 -26.166951,-33.4356 -2.035207,-3.1981 -2.035207,-5.8148 0,-3.489 2.035207,-5.8149 6.396366,-8.7223 23.841,-25.8762 17.444634,-17.1539 22.968768,-17.1539 3.198183,0 6.105622,2.0352 l 33.435552,26.167 q 9.88529,-5.2334 22.38728,-9.3038 3.19818,-31.4004 6.68711,-44.7746 2.0352,-6.9779 8.72231,-6.9779 h 54.07837 q 3.19818,0 5.81488,2.1806 2.61669,2.1806 2.90744,5.088 l 6.68711,44.4839 q 9.88529,2.9074 21.80579,9.013 l 34.30778,-25.8762 q 2.32595,-2.0352 5.81488,-2.0352 3.19818,0 6.10562,2.3259 41.86712,38.669 41.86712,46.5191 0,2.6167 -2.03521,5.5241 -3.48892,4.6519 -12.21124,15.7002 -8.72232,11.0482 -13.08348,17.4446 6.68711,13.9557 9.8853,23.841 l 44.19307,6.6871 q 2.90744,0.5815 4.94264,3.0528 2.03521,2.4714 2.03521,5.6695 z m 186.0761,154.9665 v 40.7042 q 0,4.6519 -43.32084,9.013 -3.48893,7.8501 -8.72232,15.1187 14.82794,32.8541 14.82794,40.1227 0,1.163 -1.16298,2.0352 Q 484.37934,512 483.79785,512 q -2.32595,0 -13.37422,-13.665 -11.04827,-13.6649 -15.11868,-19.7705 -5.81488,0.5814 -8.72232,0.5814 -2.90744,0 -8.72232,-0.5814 -4.07041,6.1056 -15.11868,19.7705 Q 411.69336,512 409.36741,512 q -0.58149,0 -36.05224,-20.6428 -1.16298,-0.8722 -1.16298,-2.0352 0,-7.2686 14.82794,-40.1227 -5.23339,-7.2686 -8.72232,-15.1187 -43.32084,-4.3611 -43.32084,-9.013 v -40.7042 q 0,-4.6519 43.32084,-9.013 3.77967,-8.4316 8.72232,-15.1187 -14.82794,-32.8541 -14.82794,-40.1227 0,-1.1629 1.16298,-2.0352 1.16297,-0.5815 10.17603,-5.8149 9.01306,-5.2333 17.15389,-9.8852 8.14083,-4.6519 8.72232,-4.6519 2.32595,0 13.37422,13.5195 11.04827,13.5196 15.11868,19.6253 5.81488,-0.5815 8.72232,-0.5815 2.90744,0 8.72232,0.5815 14.82794,-20.6429 26.74844,-32.5634 l 1.74446,-0.5814 q 1.16298,0 36.05224,20.352 1.16298,0.8723 1.16298,2.0352 0,7.2686 -14.82794,40.1227 4.94265,6.6871 8.72232,15.1187 43.32084,4.3611 43.32084,9.013 z m 0,-297.7217 v 40.7041 q 0,4.6519 -43.32084,9.0131 -3.48893,7.8501 -8.72232,15.1187 14.82794,32.854 14.82794,40.1226 0,1.163 -1.16298,2.0352 -35.47075,20.6429 -36.05224,20.6429 -2.32595,0 -13.37422,-13.665 -11.04827,-13.665 -15.11868,-19.7706 -5.81488,0.5815 -8.72232,0.5815 -2.90744,0 -8.72232,-0.5815 -4.07041,6.1056 -15.11868,19.7706 -11.04827,13.665 -13.37422,13.665 -0.58149,0 -36.05224,-20.6429 -1.16298,-0.8722 -1.16298,-2.0352 0,-7.2686 14.82794,-40.1226 -5.23339,-7.2686 -8.72232,-15.1187 -43.32084,-4.3612 -43.32084,-9.0131 V 86.6417 q 0,-4.6519 43.32084,-9.0131 3.77967,-8.4316 8.72232,-15.1187 -14.82794,-32.854 -14.82794,-40.1226 0,-1.163 1.16298,-2.0352 1.16297,-0.5815 10.17603,-5.8149 9.01306,-5.2334 17.15389,-9.8853 Q 408.78592,0 409.36741,0 q 2.32595,0 13.37422,13.5196 11.04827,13.5196 15.11868,19.6252 5.81488,-0.5815 8.72232,-0.5815 2.90744,0 8.72232,0.5815 Q 470.13289,12.502 482.05339,0.5815 L 483.79785,0 q 1.16298,0 36.05224,20.3521 1.16298,0.8722 1.16298,2.0352 0,7.2686 -14.82794,40.1226 4.94265,6.6871 8.72232,15.1187 43.32084,4.3612 43.32084,9.0131 z" />
</svg>
