<svg viewBox="-72 -21 682 682.6653" xmlns="http://www.w3.org/2000/svg"><path d="m526.273438 319.339844-32.753907-32.753906c-17.992187-17.992188-27.898437-41.914063-27.898437-67.359376 0-63.222656-27.855469-122.6875-76.421875-163.164062-21.664063-18.050781-46.097657-32.070312-72.621094-41.660156-26.445313-9.554688-54.109375-14.402344-82.234375-14.402344h-5.542969c-54.125 0-106.574219 19.398438-147.671875 54.628906-53.519531 45.875-84.214844 112.613282-84.214844 183.101563 0 39.085937 9.644532 78.015625 27.890626 112.582031l52.433593 99.316406c17.421875 33 26.625 70.167969 26.625 107.488282v70.253906c0 6.972656 5.65625 12.628906 12.628907 12.628906 6.972656 0 12.625-5.65625 12.625-12.628906v-70.253906c0-41.410157-10.21875-82.65625-29.550782-119.277344l-52.425781-99.316406c-16.339844-30.945313-24.976563-65.800782-24.976563-100.792969 0-63.113281 27.484376-122.859375 75.402344-163.925781 36.523438-31.308594 83.128906-48.550782 131.234375-48.550782h5.542969c25.1875 0 49.964844 4.339844 73.652344 12.898438 23.753906 8.589844 45.632812 21.140625 65.039062 37.3125 42.792969 35.65625 67.332032 88.058594 67.332032 143.761718 0 32.1875 12.535156 62.453126 35.296874 85.214844l32.753907 32.753906c.277343.28125 1.011719 1.011719.464843 2.335938-.546874 1.316406-1.582031 1.316406-1.976562 1.316406h-33.914062c-6.972657 0-12.625 5.65625-12.625 12.628906v125.429688c0 10.5-4.09375 20.378906-11.519532 27.804688-7.425781 7.429687-17.304687 11.519531-27.804687 11.519531h-15.976563c-30.398437 0-55.128906 24.726562-55.128906 55.121093v54.019532c0 6.972656 5.65625 12.628906 12.628906 12.628906s12.625-5.65625 12.625-12.628906v-54.019532c0-16.46875 13.398438-29.871093 29.875-29.871093h15.976563c17.246093 0 33.464843-6.714844 45.660156-18.910157 12.199219-12.199218 18.914063-28.417968 18.914063-45.664062v-112.804688h21.289062c11.117188 0 21.046875-6.640624 25.304688-16.90625 4.257812-10.273437 1.925781-21.992187-5.9375-29.855468zm0 0"/><path d="m387.726562 257.988281c-2.394531-3.003906-6.046874-4.757812-9.882812-4.757812h-.351562c-10.394532 0-18.847657-8.457031-18.847657-18.851563v-.644531c0-10.390625 8.453125-18.847656 18.847657-18.847656h1.347656c3.738281 0 7.308594-1.667969 9.707031-4.546875 2.398437-2.875 3.402344-6.683594 2.734375-10.363282-.015625-.089843-.035156-.175781-.050781-.265624-6.644531-32.59375-23.078125-61.894532-47.523438-84.746094-.101562-.09375-.203125-.183594-.308593-.277344-2.800782-2.453125-6.5625-3.550781-10.238282-2.984375-3.699218.566406-6.972656 2.753906-8.910156 5.953125-3.75 6.199219-10.835938 9.734375-18.050781 8.980469-2.628907-.269531-5.136719-1.089844-7.457031-2.429688l-.585938-.335937c-4.355469-2.519532-7.476562-6.582032-8.773438-11.445313-1.304687-4.863281-.636718-9.9375 1.882813-14.296875.042969-.074218.089844-.152344.132813-.230468 1.761718-3.203126 2.050781-7.023438.789062-10.457032-1.257812-3.429687-3.957031-6.15625-7.371094-7.457031-.191406-.074219-.382812-.140625-.570312-.203125-16.027344-5.234375-32.75-7.890625-49.714844-7.890625-15.632812 0-31.113281 2.265625-46.003906 6.730469-3.570313 1.070312-6.496094 3.679687-7.972656 7.097656-1.472657 3.40625-1.367188 7.308594.277343 10.632812 4.394531 8.863282 1.113281 19.683594-7.464843 24.640626l-.597657.339843c-8.8125 5.089844-19.949219 2.320313-25.351562-6.304687-1.949219-3.109375-5.175781-5.234375-8.808594-5.785156-3.714844-.570313-7.507813.550781-10.316406 3.050781-24.367188 21.671875-41.328125 49.777343-49.054688 81.226562-.890625 3.574219-.175781 7.382813 1.960938 10.386719 2.136719 3.007812 5.496093 4.941406 9.167969 5.273438.054687.003906.113281.007812.171874.015624 9.726563.75 17.347657 8.992188 17.347657 18.757813v.6875c0 10.25-8.023438 18.511719-18.261719 18.808594-3.652344.109375-7.097656 1.792969-9.421875 4.625-2.382813 2.910156-3.351563 6.742187-2.632813 10.433593 6.234376 32.0625 21.976563 61.105469 45.523438 83.984376.15625.15625.316406.304687.480469.449218 2.734375 2.394532 6.394531 3.496094 9.996093 3.019532 3.605469-.480469 6.839844-2.496094 8.859376-5.523438.039062-.058594.078124-.117188.117187-.179688 5.433594-8.460937 16.523437-11.148437 25.246094-6.109374l.574219.332031c4.359374 2.519531 7.480468 6.582031 8.78125 11.445312 1.304687 4.863281.632812 9.941407-1.867188 14.277344l-.203125.34375c-.046875.082031-.097656.167969-.140625.253906-1.742188 3.167969-2.046875 6.953125-.824219 10.355469 1.214844 3.40625 3.851563 6.136719 7.207031 7.484375.175782.070313.351563.132813.53125.195313 16.917969 5.902343 34.648438 8.898437 52.6875 8.898437 15.027344 0 29.921876-2.089844 44.230469-6.207031 3.699219-1.054688 6.726563-3.75 8.203125-7.296875 1.476563-3.546875 1.261719-7.589844-.59375-10.960938-.039062-.066406-.078125-.140625-.117187-.210937-5.171875-8.984375-2.070313-20.507813 6.902343-25.691406l.578126-.332032c4.359374-2.519531 9.4375-3.1875 14.300781-1.886718 4.867187 1.304687 8.929687 4.425781 11.449219 8.785156l.757812 1.3125c.054688.089844.101562.183594.15625.269531 1.945312 3.179687 5.207031 5.34375 8.882812 5.910156 3.667969.558594 7.417969-.527343 10.21875-2.964843 25.410157-22.125 42.921876-51.058594 50.667969-83.785157.851563-3.738281-.050781-7.683593-2.449219-10.6875zm-55.3125 66.335938c-5.054687-4.480469-11.117187-7.761719-17.832031-9.558594-11.382812-3.050781-23.265625-1.488281-33.46875 4.402344l-.574219.332031c-16.128906 9.3125-24.152343 27.371094-21.542968 44.765625-8.039063 1.476563-16.222656 2.222656-24.464844 2.222656-10.910156 0-21.683594-1.296875-32.160156-3.871093 1.136718-6.308594.878906-12.847657-.832032-19.222657-3.050781-11.378906-10.347656-20.890625-20.550781-26.785156l-.578125-.324219c-15.707031-9.074218-34.695312-7.4375-48.421875 2.832032-12.34375-14.460938-21.410156-31.226563-26.722656-49.429688 16.429687-6.410156 27.875-22.308594 27.875-41.039062v-.691407c0-17.636719-10.613281-33.148437-25.925781-40.136719 6.164062-17.890624 16.007812-34.199218 28.988281-48.027343 13.757813 10.8125 33.125 12.691406 49.199219 3.410156l.589844-.34375c15.507812-8.953125 23.617187-26.113281 21.757812-43.046875 18.492188-3.730469 37.925781-3.527344 56.300781.582031-1.007812 6.109375-.714843 12.414063.9375 18.570313 3.046875 11.382812 10.34375 20.886718 20.546875 26.777344l.578125.335937c5.421875 3.128906 11.300781 5.039063 17.492188 5.679687 11.523437 1.1875 22.914062-2.28125 31.765625-9.210937 12.78125 14.390625 22.234375 31.164063 27.863281 49.453125-17.34375 5.945312-29.84375 22.410156-29.84375 41.738281v.644531c0 18.839844 11.875 34.957032 28.53125 41.261719-6.222656 18.164063-16.226563 34.671875-29.507813 48.679688zm0 0"/><path d="m235.757812 151.773438c-.199218 0-.410156 0-.609374 0-6.972657.050781-12.582032 5.746093-12.53125 12.71875.054687 6.941406 5.695312 12.535156 12.625 12.535156h.097656c14.191406-.117188 27.5625 5.320312 37.527344 15.285156 20.410156 20.40625 20.410156 53.613281 0 74.023438-20.410157 20.40625-53.617188 20.40625-74.023438 0-9.785156-9.785157-15.230469-22.785157-15.332031-36.621094-.046875-6.9375-5.691407-12.527344-12.621094-12.527344-.035156 0-.0625 0-.097656 0-6.972657.046875-12.582031 5.746094-12.53125 12.71875.152343 20.503906 8.222656 39.785156 22.726562 54.289062 15.125 15.125 34.996094 22.6875 54.867188 22.683594 19.867187 0 39.742187-7.5625 54.867187-22.683594 30.253906-30.261718 30.253906-79.484374 0-109.738281-14.640625-14.644531-34.140625-22.683593-54.964844-22.683593zm0 0"/><path d="m190.507812 198.503906c.566407 0 1.140626-.039062 1.714844-.117187l.464844-.058594c6.914062-.941406 11.753906-7.304687 10.816406-14.210937-.945312-6.910157-7.3125-11.738282-14.214844-10.8125l-.464843.0625c-6.910157.9375-11.746094 7.300781-10.808594 14.210937.863281 6.332031 6.277344 10.925781 12.492187 10.925781zm0 0"/></svg>
