<?xml version="1.0" encoding="UTF-8" standalone="no"?>
<svg
   xmlns:dc="http://purl.org/dc/elements/1.1/"
   xmlns:cc="http://creativecommons.org/ns#"
   xmlns:rdf="http://www.w3.org/1999/02/22-rdf-syntax-ns#"
   xmlns:svg="http://www.w3.org/2000/svg"
   xmlns="http://www.w3.org/2000/svg"
   height="566.10126"
   width="214.01833"
   xml:space="preserve"
   viewBox="0 0 214.01833 566.10127"
   y="0px"
   x="0px"
   id="Capa_1"
   version="1.1"><metadata
   id="metadata941"><rdf:RDF><cc:Work
       rdf:about=""><dc:format>image/svg+xml</dc:format><dc:type
         rdf:resource="http://purl.org/dc/dcmitype/StillImage" /><dc:title></dc:title></cc:Work></rdf:RDF></metadata><defs
   id="defs939" />
<g
   transform="rotate(-45.074011,224.43117,424.17261)"
   id="g904">
	<g
   id="g902">
		<path
   id="path898"
   d="m 255.2,209.3 c -5.3,5.3 -5.3,13.8 0,19.1 21.9,21.9 21.9,57.5 0,79.4 l -115,115 c -21.9,21.9 -57.5,21.9 -79.4,0 L 43.5,405.5 C 21.6,383.6 21.6,348 43.5,326.1 l 115,-115 c 5.3,-5.3 5.3,-13.8 0,-19.1 -5.3,-5.3 -13.8,-5.3 -19.1,0 L 24.4,307 C 8.7,322.7 0,343.6 0,365.8 0,388 8.6,408.9 24.4,424.6 l 17.3,17.3 c 16.2,16.2 37.5,24.3 58.8,24.3 21.3,0 42.6,-8.1 58.8,-24.3 l 115,-115 c 32.4,-32.4 32.4,-85.2 0,-117.6 -5.2,-5.3 -13.8,-5.3 -19.1,0 z" />
		<path
   id="path900"
   d="M 458.5,58.2 441.2,40.9 C 408.8,8.5 356,8.5 323.6,40.9 l -115,115 c -32.4,32.4 -32.4,85.2 0,117.6 5.3,5.3 13.8,5.3 19.1,0 5.3,-5.3 5.3,-13.8 0,-19.1 -21.9,-21.9 -21.9,-57.5 0,-79.4 l 115,-115 c 21.9,-21.9 57.5,-21.9 79.4,0 l 17.3,17.3 c 21.9,21.9 21.9,57.5 0,79.4 l -115,115 c -5.3,5.3 -5.3,13.8 0,19.1 2.6,2.6 6.1,4 9.5,4 3.4,0 6.9,-1.3 9.5,-4 l 115,-115 c 15.7,-15.7 24.4,-36.6 24.4,-58.8 0,-22.2 -8.6,-43.1 -24.3,-58.8 z" />
	</g>
</g>
<g
   transform="translate(-134.39216,41.685643)"
   id="g906">
</g>
<g
   transform="translate(-134.39216,41.685643)"
   id="g908">
</g>
<g
   transform="translate(-134.39216,41.685643)"
   id="g910">
</g>
<g
   transform="translate(-134.39216,41.685643)"
   id="g912">
</g>
<g
   transform="translate(-134.39216,41.685643)"
   id="g914">
</g>
<g
   transform="translate(-134.39216,41.685643)"
   id="g916">
</g>
<g
   transform="translate(-134.39216,41.685643)"
   id="g918">
</g>
<g
   transform="translate(-134.39216,41.685643)"
   id="g920">
</g>
<g
   transform="translate(-134.39216,41.685643)"
   id="g922">
</g>
<g
   transform="translate(-134.39216,41.685643)"
   id="g924">
</g>
<g
   transform="translate(-134.39216,41.685643)"
   id="g926">
</g>
<g
   transform="translate(-134.39216,41.685643)"
   id="g928">
</g>
<g
   transform="translate(-134.39216,41.685643)"
   id="g930">
</g>
<g
   transform="translate(-134.39216,41.685643)"
   id="g932">
</g>
<g
   transform="translate(-134.39216,41.685643)"
   id="g934">
</g>
</svg>