<svg viewBox="-12 0 511 511.988" xmlns="http://www.w3.org/2000/svg"><path d="M365.61 162.121c0-66.41-53.837-120.242-120.247-120.242-66.406 0-120.242 53.832-120.242 120.242s53.836 120.242 120.242 120.242c66.38-.074 120.168-53.863 120.246-120.242zm-223.423 0c0-56.984 46.196-103.176 103.176-103.176 56.985 0 103.18 46.192 103.18 103.176s-46.195 103.176-103.18 103.176c-56.965-.043-103.133-46.211-103.176-103.176zm0 0"/><path d="M251.664 231.488l55.832-24.812a15.525 15.525 0 0 0 9.2-14.184v-65.281a8.33 8.33 0 0 0-.598-2.969 7.177 7.177 0 0 0-.368-.785 8.012 8.012 0 0 0-1.226-1.828 6.854 6.854 0 0 0-.524-.594 8.428 8.428 0 0 0-2.343-1.582l-.137-.058-59.82-26.641a15.461 15.461 0 0 0-12.614 0l-59.808 26.59-.164.11c-.867.401-1.66.948-2.344 1.612-.2.18-.344.395-.523.59a8.605 8.605 0 0 0-1.227 1.828c-.14.254-.262.52-.367.793a8.384 8.384 0 0 0-.598 2.953v65.278a15.53 15.53 0 0 0 9.207 14.183l55.844 24.817a15.421 15.421 0 0 0 12.61 0zm2.234-19.625V160.68l45.73-20.336v51.14zm-8.535-103.238l41.817 18.586-41.817 18.586-41.812-18.586zm-54.27 31.719l45.739 20.336v51.148l-45.766-20.344zm0 0"/><path d="M43.484 355.094L2.61 466.027a34.14 34.14 0 0 0 4 31.325 34.135 34.135 0 0 0 27.98 14.636h419.673a34.134 34.134 0 0 0 31.504-47.351l-39.016-92.5-7.762-18.418a34.018 34.018 0 0 0-31.406-20.93h-84.437l18.468-36.957a28.737 28.737 0 0 1 7.399-9.023c52.457-43.61 72.008-115.391 48.906-179.579C374.816 43.043 314.008.18 245.789 0S116.54 42.363 93.098 106.43c-23.438 64.066-4.266 135.949 47.964 179.836a32.98 32.98 0 0 1 8.422 10.296l18.098 36.227H75.465a34.134 34.134 0 0 0-31.98 22.305zm16.024 5.855a17.014 17.014 0 0 1 15.957-11.094h14.96l-19.628 54.118a8.533 8.533 0 0 1-8.047 5.617H41.59zm165.972 57.172a52.86 52.86 0 0 0 39.766 0h182.36l7.203 17.067H162.687a25.606 25.606 0 0 0-23.476 15.359l-19.285 44.375h-21.95l26.797-61.442a25.597 25.597 0 0 1 23.473-15.359zm243.032 69.121a16.832 16.832 0 0 1-14.25 7.68H138.527l16.36-37.547a8.53 8.53 0 0 1 7.824-5.121H462.02l8.011 19.012a16.752 16.752 0 0 1-1.52 15.976zM423.285 360.31l2.774 6.578h-23.34a8.642 8.642 0 0 1-8.114-5.836l-3.714-11.196h16.691c6.871 0 13.059 4.141 15.688 10.489zm-50.363-10.454l5.512 16.665a25.711 25.711 0 0 0 24.285 17.468h30.515l7.196 17.067H287.793a54.676 54.676 0 0 0 5.633-8.774l21.195-42.426zM152.043 273.2c-46.738-39.261-63.898-103.582-42.926-160.91 20.969-57.328 75.582-95.394 136.621-95.23 61.043.164 115.453 38.52 136.117 95.957 20.665 57.437 3.165 121.664-43.785 160.68a45.232 45.232 0 0 0-11.75 14.507l-48.187 96.426a36.568 36.568 0 0 1-17.688 17.066c-.136.051-.25.11-.379.172a36.862 36.862 0 0 1-29.457 0c-.125-.062-.238-.12-.375-.172a36.586 36.586 0 0 1-17.687-17.066l-47.79-95.738a49.813 49.813 0 0 0-12.714-15.692zm45.227 119.09a54.633 54.633 0 0 0 5.667 8.766h-54.69a42.67 42.67 0 0 0-39.118 25.601l-29.781 68.266H34.59a17.076 17.076 0 0 1-13.977-7.332 17.074 17.074 0 0 1-1.988-15.656l16.684-45.278H62.75a25.675 25.675 0 0 0 24.059-16.863l21.765-59.938h67.535zm0 0"/></svg>