<svg width="24" height="24" xmlns="http://www.w3.org/2000/svg">

 <g>
  <title>background</title>
  <rect fill="none" id="canvas_background" height="402" width="582" y="-1" x="-1"/>
 </g>
 <g>
  <title>Layer 1</title>
  <path stroke="#20D6F5" stroke-opacity="0" fill="#20D6F5" id="svg_1" d="m12,2c5.514,0 10,4.486 10,10s-4.486,10 -10,10s-10,-4.486 -10,-10s4.486,-10 10,-10zm0,-2c-6.627,0 -12,5.373 -12,12s5.373,12 12,12s12,-5.373 12,-12s-5.373,-12 -12,-12zm-2,8c0,0.557 -0.447,1.008 -1,1.008s-1,-0.45 -1,-1.008c0,-0.557 0.447,-1.008 1,-1.008s1,0.452 1,1.008zm0,2l-2,0l0,6l2,0l0,-6zm3,0l-2,0l0,6l2,0l0,-2.861c0,-1.722 2.002,-1.881 2.002,0l0,2.861l1.998,0l0,-3.359c0,-3.284 -3.128,-3.164 -4,-1.548l0,-1.093z"/>
 </g>
</svg>
