<!DOCTYPE svg PUBLIC "-//W3C//DTD SVG 1.1//EN" "http://www.w3.org/Graphics/SVG/1.1/DTD/svg11.dtd">
<svg xmlns="http://www.w3.org/2000/svg" xmlns:xlink="http://www.w3.org/1999/xlink" version="1.1" id="planet-sytem" x="0px" y="0px" viewBox="0 0 321.181 321.181" style="enable-background:new 0 0 321.181 321.181;" xml:space="preserve">
<g>
	<g>
		<path d="M0,160.59c0,88.547,72.04,160.591,160.59,160.591c88.557,0,160.59-72.044,160.59-160.591    C321.181,72.041,249.138,0,160.591,0c-33.843,0-65.258,10.551-91.177,28.5c-2.359-2.11-5.446-3.433-8.848-3.433    c-7.36,0-13.347,5.986-13.347,13.346c0,2.473,0.719,4.764,1.897,6.746C18.862,74.385,0,115.313,0,160.59z M315.784,157.903    h-43.653H240.55h-51.193c-0.057-0.478-0.198-0.919-0.277-1.387c-0.109-0.758-0.263-1.501-0.452-2.236    c-0.221-0.897-0.499-1.763-0.813-2.625c-0.252-0.698-0.52-1.385-0.818-2.058c-0.378-0.83-0.83-1.612-1.303-2.395    c-0.366-0.622-0.74-1.246-1.158-1.836c-0.541-0.74-1.135-1.425-1.738-2.107c-0.482-0.533-0.935-1.079-1.448-1.57    c-0.673-0.643-1.418-1.204-2.158-1.779c-0.562-0.422-1.065-0.874-1.664-1.257c-0.813-0.533-1.696-0.961-2.572-1.401    c-0.589-0.297-1.155-0.641-1.763-0.893c-1.01-0.415-2.085-0.695-3.14-0.979c-0.558-0.144-1.072-0.36-1.644-0.473    c-1.665-0.328-3.365-0.517-5.118-0.517V80.637V49.056V5.402C246.733,6.827,314.346,74.45,315.784,157.903z M268.697,172.911    c-0.221,1.896-0.556,3.758-0.861,5.622c-0.283,1.69-0.535,3.392-0.887,5.062c-0.399,1.836-0.914,3.631-1.401,5.433    c-0.441,1.626-0.845,3.27-1.366,4.866c-0.571,1.774-1.254,3.49-1.914,5.233c-0.584,1.553-1.141,3.124-1.802,4.641    c-0.746,1.706-1.59,3.35-2.421,5.007c-0.725,1.465-1.41,2.955-2.199,4.384c-0.907,1.628-1.904,3.187-2.896,4.763    c-0.852,1.368-1.669,2.766-2.578,4.093c-1.05,1.539-2.215,2.986-3.345,4.469c-0.977,1.275-1.898,2.587-2.933,3.81    c-1.213,1.429-2.495,2.771-3.765,4.147c-1.076,1.166-2.132,2.374-3.244,3.48c-1.334,1.322-2.766,2.545-4.163,3.789    c-1.181,1.057-2.324,2.152-3.542,3.166c-1.47,1.196-3.025,2.289-4.567,3.412c-1.26,0.924-2.478,1.9-3.781,2.778    c-1.605,1.075-3.296,2.025-4.966,3.027c-1.321,0.782-2.607,1.634-3.963,2.353c-1.737,0.934-3.553,1.738-5.35,2.571    c-1.368,0.642-2.708,1.355-4.108,1.948c-1.875,0.792-3.827,1.423-5.76,2.116c-1.396,0.504-2.761,1.07-4.179,1.501    c-2.025,0.629-4.131,1.091-6.204,1.605c-1.396,0.342-2.739,0.773-4.142,1.046c-2.348,0.478-4.747,0.771-7.134,1.091    c-1.192,0.163-2.348,0.415-3.539,0.53c-1.343-11.271-10.86-20.059-22.483-20.059c-10.002,0-18.425,6.536-21.461,15.534    C83.745,250.361,51.76,209.142,51.76,160.581c0-3.729,0.194-7.403,0.559-11.037c0.124-1.21,0.379-2.376,0.539-3.573    c0.323-2.393,0.62-4.8,1.092-7.144c0.283-1.404,0.708-2.758,1.046-4.139c0.513-2.082,0.974-4.184,1.601-6.215    c0.441-1.42,1.011-2.78,1.507-4.176c0.682-1.929,1.322-3.882,2.113-5.758c0.591-1.401,1.299-2.736,1.95-4.111    c0.845-1.79,1.646-3.611,2.58-5.349c0.732-1.359,1.58-2.641,2.365-3.961c0.995-1.666,1.947-3.359,3.021-4.968    c0.872-1.3,1.851-2.521,2.774-3.78c1.124-1.53,2.215-3.089,3.415-4.562c0.997-1.226,2.1-2.364,3.155-3.548    c1.252-1.402,2.467-2.832,3.791-4.166c1.118-1.128,2.325-2.171,3.493-3.251c1.37-1.271,2.709-2.564,4.14-3.764    c1.231-1.026,2.536-1.961,3.811-2.935c1.478-1.128,2.929-2.289,4.468-3.344c1.325-0.914,2.724-1.725,4.094-2.58    c1.575-0.985,3.133-1.995,4.764-2.898c1.431-0.791,2.919-1.478,4.381-2.202c1.661-0.824,3.304-1.677,5.01-2.42    c1.515-0.656,3.09-1.21,4.638-1.801c1.738-0.661,3.457-1.348,5.237-1.918c1.596-0.517,3.236-0.919,4.863-1.359    c1.806-0.491,3.597-1.005,5.437-1.405c1.666-0.36,3.364-0.606,5.058-0.887c1.866-0.312,3.724-0.646,5.622-0.861    c1.719-0.191,3.467-0.273,5.209-0.386c1.467-0.098,2.93-0.189,4.423-0.226v26.108c-1.016,0.031-2.01,0.179-3.026,0.247    c-1.307,0.092-2.623,0.174-3.918,0.323c-1.446,0.167-2.863,0.414-4.284,0.656c-1.268,0.215-2.543,0.419-3.79,0.693    c-1.409,0.307-2.78,0.695-4.155,1.071c-1.215,0.333-2.441,0.651-3.635,1.036c-1.36,0.44-2.679,0.964-4.007,1.468    c-1.164,0.446-2.333,0.871-3.467,1.367c-1.302,0.566-2.559,1.208-3.822,1.842c-1.103,0.548-2.215,1.082-3.291,1.678    c-1.237,0.687-2.423,1.451-3.623,2.205c-1.031,0.643-2.082,1.268-3.081,1.955c-1.166,0.806-2.279,1.683-3.402,2.549    c-0.958,0.735-1.935,1.441-2.855,2.22c-1.084,0.914-2.11,1.898-3.15,2.864c-0.882,0.819-1.779,1.606-2.622,2.462    c-1,1.016-1.929,2.097-2.877,3.16c-0.795,0.893-1.617,1.758-2.375,2.687c-0.908,1.114-1.729,2.287-2.58,3.447    c-0.704,0.962-1.441,1.892-2.103,2.881c-0.806,1.21-1.52,2.479-2.268,3.724c-0.601,1.017-1.247,2-1.805,3.042    c-0.704,1.307-1.302,2.667-1.935,4.016c-0.496,1.056-1.04,2.082-1.491,3.155c-0.596,1.42-1.074,2.887-1.59,4.344    c-0.375,1.066-0.807,2.102-1.14,3.181c-0.477,1.549-0.834,3.147-1.22,4.732c-0.252,1.042-0.569,2.058-0.785,3.118    c-0.307,1.494-0.478,3.032-0.698,4.557c-5.842,0.851-10.365,5.846-10.365,11.92c0,6.073,4.522,11.081,10.37,11.915    c5.812,39.942,40.177,70.731,81.684,70.731c2.819,0,5.606-0.147,8.361-0.426c0.925-0.104,1.828-0.294,2.763-0.415    c1.8-0.241,3.605-0.462,5.354-0.813c1.062-0.21,2.085-0.54,3.118-0.787c1.586-0.389,3.191-0.745,4.734-1.229    c1.083-0.337,2.127-0.766,3.187-1.134c1.454-0.525,2.924-1.008,4.353-1.595c1.064-0.457,2.105-0.998,3.149-1.491    c1.344-0.625,2.709-1.233,4.021-1.927c1.035-0.562,2.027-1.213,3.035-1.807c1.249-0.751,2.524-1.454,3.717-2.268    c0.997-0.662,1.921-1.402,2.888-2.105c1.153-0.85,2.335-1.679,3.448-2.577c0.928-0.761,1.795-1.579,2.688-2.368    c1.055-0.955,2.136-1.883,3.161-2.875c0.854-0.841,1.652-1.75,2.462-2.62c0.977-1.039,1.94-2.074,2.864-3.149    c0.771-0.93,1.48-1.906,2.216-2.856c0.861-1.123,1.742-2.236,2.552-3.402c0.688-1.001,1.312-2.052,1.953-3.08    c0.756-1.202,1.512-2.384,2.205-3.623c0.598-1.075,1.122-2.188,1.68-3.29c0.634-1.255,1.275-2.52,1.847-3.822    c0.494-1.133,0.925-2.304,1.366-3.47c0.514-1.327,1.023-2.646,1.464-4.005c0.383-1.202,0.702-2.415,1.034-3.638    c0.377-1.376,0.767-2.761,1.07-4.153c0.272-1.243,0.473-2.519,0.693-3.791c0.241-1.432,0.482-2.839,0.651-4.282    c0.146-1.296,0.231-2.598,0.33-3.921c0.067-1.008,0.216-2.006,0.247-3.023h26.099c-0.031,1.47-0.119,2.95-0.221,4.409    C268.97,169.441,268.887,171.194,268.697,172.911z M237.589,165.94c-0.094,1.265-0.174,2.524-0.325,3.773    c-0.147,1.302-0.368,2.595-0.589,3.875c-0.205,1.229-0.408,2.467-0.67,3.675c-0.285,1.259-0.626,2.487-0.967,3.727    c-0.337,1.197-0.651,2.389-1.024,3.558c-0.388,1.21-0.855,2.384-1.307,3.561c-0.441,1.145-0.865,2.299-1.354,3.417    c-0.504,1.146-1.067,2.252-1.628,3.371c-0.556,1.096-1.075,2.204-1.681,3.27c-0.598,1.07-1.27,2.111-1.911,3.16    c-0.649,1.039-1.285,2.094-1.979,3.102c-0.698,1.004-1.454,1.97-2.199,2.939c-0.746,0.974-1.46,1.96-2.257,2.898    c-0.787,0.935-1.639,1.822-2.473,2.719c-0.829,0.898-1.644,1.812-2.504,2.667c-0.882,0.867-1.827,1.664-2.75,2.488    c-0.903,0.804-1.786,1.644-2.721,2.399c-0.977,0.781-1.995,1.501-3.002,2.246c-0.967,0.714-1.911,1.454-2.919,2.121    c-1.05,0.704-2.162,1.329-3.255,1.984c-1.007,0.61-2.005,1.249-3.054,1.812c-1.155,0.623-2.358,1.148-3.55,1.716    c-1.044,0.494-2.067,1.029-3.14,1.48c-1.265,0.525-2.571,0.954-3.862,1.416c-1.056,0.379-2.09,0.787-3.171,1.135    c-1.386,0.431-2.819,0.74-4.253,1.091c-1.019,0.257-2.025,0.558-3.064,0.778c-1.628,0.325-3.271,0.525-4.924,0.756    c-0.894,0.12-1.759,0.314-2.662,0.393c-2.566,0.258-5.171,0.399-7.806,0.399c-38.704,0-70.752-28.625-76.327-65.79    c4.887-1.555,8.462-6.09,8.462-11.48c0-5.392-3.575-9.917-8.462-11.476c0.195-1.307,0.339-2.629,0.599-3.914    c0.209-1.044,0.52-2.049,0.774-3.076c0.349-1.424,0.667-2.858,1.095-4.251c0.333-1.074,0.758-2.108,1.136-3.161    c0.462-1.297,0.888-2.601,1.417-3.867c0.447-1.067,0.984-2.089,1.478-3.139c0.567-1.192,1.092-2.396,1.716-3.551    c0.559-1.05,1.205-2.04,1.812-3.06c0.656-1.09,1.278-2.202,1.984-3.258c0.667-1.005,1.406-1.95,2.123-2.918    c0.74-1.006,1.457-2.027,2.241-2.993c0.762-0.943,1.597-1.824,2.402-2.727c0.822-0.919,1.625-1.861,2.488-2.74    c0.855-0.872,1.77-1.677,2.667-2.507c0.897-0.832,1.78-1.683,2.719-2.472c0.938-0.791,1.927-1.515,2.898-2.257    c0.974-0.74,1.932-1.5,2.942-2.2c1.01-0.698,2.063-1.326,3.1-1.977c1.045-0.651,2.082-1.317,3.161-1.918    c1.066-0.599,2.173-1.129,3.271-1.672c1.118-0.553,2.226-1.123,3.37-1.63c1.118-0.488,2.273-0.919,3.417-1.354    c1.178-0.452,2.354-0.909,3.559-1.308c1.165-0.38,2.365-0.698,3.559-1.026c1.236-0.339,2.467-0.683,3.724-0.961    c1.21-0.27,2.446-0.47,3.677-0.677c1.284-0.221,2.57-0.44,3.877-0.593c1.247-0.144,2.509-0.231,3.772-0.318    c0.882-0.057,1.769-0.1,2.661-0.134v51.61c-0.425,0.092-0.821,0.262-1.242,0.378c-0.714,0.186-1.419,0.386-2.102,0.627    c-0.795,0.281-1.554,0.601-2.305,0.953c-0.646,0.293-1.275,0.596-1.887,0.944c-0.732,0.415-1.416,0.876-2.097,1.354    c-0.56,0.394-1.118,0.775-1.646,1.21c-0.656,0.538-1.251,1.128-1.848,1.729c-0.467,0.47-0.952,0.922-1.383,1.426    c-0.564,0.656-1.053,1.37-1.552,2.081c-0.373,0.525-0.763,1.031-1.091,1.585c-0.467,0.785-0.84,1.617-1.222,2.452    c-0.252,0.548-0.548,1.074-0.763,1.643c-0.36,0.953-0.601,1.958-0.848,2.958c-0.126,0.499-0.307,0.979-0.404,1.489    c-0.281,1.532-0.441,3.106-0.441,4.714c0,14.452,11.756,26.205,26.206,26.205c1.753,0,3.464-0.184,5.118-0.514    c0.562-0.111,1.075-0.332,1.639-0.479c1.064-0.283,2.135-0.562,3.138-0.976c0.615-0.263,1.182-0.59,1.765-0.894    c0.881-0.441,1.764-0.87,2.577-1.412c0.589-0.372,1.104-0.824,1.664-1.244c0.751-0.572,1.476-1.133,2.158-1.784    c0.514-0.494,0.971-1.034,1.443-1.564c0.608-0.683,1.213-1.365,1.743-2.121c0.424-0.576,0.781-1.218,1.158-1.836    c0.468-0.789,0.92-1.565,1.304-2.395c0.309-0.672,0.566-1.36,0.818-2.059c0.319-0.86,0.6-1.712,0.818-2.613    c0.179-0.745,0.326-1.475,0.451-2.236c0.075-0.478,0.221-0.908,0.273-1.396h48.38C237.704,164.171,237.657,165.057,237.589,165.94    z M157.903,46.395c-1.569,0.039-3.092,0.241-4.643,0.338c-1.862,0.118-3.722,0.2-5.555,0.41c-1.968,0.221-3.886,0.57-5.821,0.892    c-1.801,0.301-3.612,0.559-5.386,0.94c-1.903,0.409-3.753,0.948-5.617,1.446c-1.743,0.472-3.501,0.897-5.209,1.451    c-1.822,0.585-3.586,1.292-5.365,1.968c-1.677,0.633-3.371,1.226-5.008,1.94c-1.732,0.753-3.399,1.617-5.086,2.452    c-1.602,0.79-3.226,1.539-4.785,2.404c-1.639,0.908-3.197,1.93-4.789,2.913c-1.511,0.94-3.054,1.833-4.521,2.838    c-1.536,1.057-2.993,2.221-4.478,3.349c-1.407,1.074-2.853,2.102-4.207,3.236c-1.431,1.192-2.765,2.494-4.134,3.756    c-1.301,1.2-2.64,2.354-3.881,3.611c-1.312,1.329-2.515,2.754-3.762,4.14c-1.179,1.312-2.404,2.58-3.517,3.954    c-1.187,1.456-2.262,3.002-3.38,4.519c-1.042,1.415-2.134,2.78-3.113,4.242c-1.058,1.585-1.995,3.251-2.971,4.893    c-0.897,1.493-1.85,2.945-2.677,4.477c-0.931,1.719-1.717,3.52-2.554,5.295c-0.732,1.543-1.532,3.046-2.199,4.627    c-0.785,1.871-1.417,3.821-2.107,5.743c-0.559,1.562-1.197,3.089-1.693,4.68c-0.638,2.071-1.107,4.21-1.627,6.329    c-0.378,1.514-0.84,2.992-1.149,4.536c-0.496,2.431-0.798,4.929-1.137,7.412c-0.175,1.286-0.445,2.539-0.579,3.84    c-0.386,3.812-0.586,7.673-0.586,11.583c0,51.167,33.812,94.578,80.266,109.071c-0.055,0.636-0.194,1.246-0.194,1.896    c0,12.535,10.202,22.741,22.743,22.741c11.618,0,21.125-8.782,22.488-20.043c0.164-0.011,0.338-0.011,0.515-0.031    c1.293-0.125,2.562-0.399,3.838-0.577c2.482-0.337,4.981-0.641,7.412-1.134c1.539-0.314,3.029-0.777,4.541-1.155    c2.12-0.515,4.262-0.998,6.331-1.627c1.596-0.504,3.117-1.124,4.683-1.69c1.909-0.688,3.873-1.316,5.731-2.11    c1.58-0.66,3.088-1.465,4.631-2.194c1.773-0.84,3.568-1.627,5.29-2.566c1.529-0.813,2.994-1.784,4.474-2.678    c1.647-0.981,3.302-1.905,4.888-2.971c1.454-0.992,2.828-2.073,4.241-3.113c1.517-1.117,3.06-2.189,4.529-3.381    c1.365-1.117,2.63-2.351,3.942-3.512c1.386-1.238,2.809-2.441,4.142-3.753c1.255-1.244,2.41-2.583,3.612-3.896    c1.265-1.37,2.567-2.703,3.753-4.137c1.14-1.363,2.168-2.797,3.25-4.204c1.128-1.48,2.294-2.935,3.349-4.478    c1.008-1.459,1.9-3.015,2.835-4.525c0.987-1.596,2.005-3.161,2.909-4.798c0.865-1.555,1.615-3.181,2.397-4.782    c0.835-1.686,1.706-3.355,2.451-5.086c0.709-1.639,1.303-3.329,1.942-5.009c0.672-1.779,1.381-3.543,1.963-5.365    c0.553-1.711,0.982-3.464,1.455-5.207c0.503-1.875,1.035-3.716,1.454-5.617c0.373-1.773,0.641-3.591,0.944-5.386    c0.32-1.938,0.662-3.854,0.894-5.827c0.2-1.826,0.288-3.701,0.397-5.553c0.106-1.55,0.312-3.072,0.338-4.641h40.997    c-1.449,84.358-70.517,152.537-155.204,152.537c-85.587,0-155.215-69.628-155.215-155.215c0-43.696,18.179-83.201,47.337-111.432    c2.208,1.618,4.908,2.606,7.853,2.606c7.36,0,13.347-5.986,13.347-13.346c0-2.021-0.483-3.919-1.297-5.638    C96.952,15.982,126.292,5.94,157.903,5.396V46.395z" fill="#FFFFFF"/>
		<path d="M253.988,113.057c10.104,0,18.314-8.215,18.314-18.315c0-10.095-8.21-18.31-18.314-18.31    c-10.1,0-18.315,8.214-18.315,18.31C235.673,104.841,243.889,113.057,253.988,113.057z" fill="#FFFFFF"/>
		<path d="M197.547,118.258c7.417,0,13.438-6.025,13.438-13.438c0-7.413-6.021-13.438-13.438-13.438    c-7.412,0-13.438,6.025-13.438,13.438C184.108,112.233,190.135,118.258,197.547,118.258z" fill="#FFFFFF"/>
	</g>
</g>
</svg>
