<!DOCTYPE svg PUBLIC "-//W3C//DTD SVG 1.1//EN" "http://www.w3.org/Graphics/SVG/1.1/DTD/svg11.dtd">
<svg version="1.1" id="planet-systems" xmlns="http://www.w3.org/2000/svg" xmlns:xlink="http://www.w3.org/1999/xlink" x="0px" y="0px"
	 viewBox="0 0 59.75 59.75" style="enable-background:new 0 0 59.75 59.75;" xml:space="preserve">
<g>
	<g>
		<path d="M0,29.875C0,46.348,13.402,59.75,29.875,59.75c16.475,0,29.875-13.402,29.875-29.875C59.75,13.402,46.348,0,29.875,0
			c-6.296,0-12.14,1.963-16.962,5.302c-0.439-0.393-1.013-0.639-1.646-0.639c-1.369,0-2.483,1.114-2.483,2.483
			c0,0.46,0.134,0.886,0.353,1.255C3.509,13.838,0,21.452,0,29.875z M58.746,29.375h-8.121H44.75h-9.523
			c-0.011-0.089-0.037-0.171-0.052-0.258c-0.021-0.141-0.049-0.279-0.084-0.416c-0.041-0.167-0.093-0.328-0.151-0.488
			c-0.047-0.13-0.097-0.258-0.151-0.383c-0.07-0.154-0.154-0.3-0.242-0.445c-0.067-0.116-0.138-0.232-0.216-0.342
			c-0.102-0.138-0.211-0.265-0.323-0.392c-0.09-0.099-0.174-0.201-0.271-0.292c-0.125-0.12-0.264-0.224-0.4-0.331
			c-0.104-0.079-0.197-0.163-0.311-0.234c-0.15-0.099-0.314-0.179-0.479-0.261c-0.109-0.055-0.215-0.119-0.328-0.166
			c-0.188-0.077-0.388-0.129-0.584-0.182c-0.104-0.027-0.199-0.067-0.306-0.088c-0.31-0.061-0.626-0.096-0.952-0.096v-10V9.126
			V1.005C45.9,1.27,58.479,13.85,58.746,29.375z M49.986,32.167c-0.041,0.353-0.104,0.699-0.16,1.046
			c-0.053,0.314-0.1,0.631-0.165,0.941c-0.074,0.342-0.17,0.676-0.261,1.011c-0.082,0.303-0.157,0.608-0.254,0.905
			c-0.106,0.33-0.233,0.648-0.356,0.974c-0.108,0.289-0.212,0.581-0.335,0.863c-0.139,0.317-0.296,0.623-0.45,0.932
			c-0.135,0.272-0.263,0.55-0.409,0.815c-0.169,0.303-0.354,0.593-0.539,0.886c-0.158,0.255-0.311,0.515-0.479,0.762
			c-0.195,0.286-0.412,0.556-0.622,0.831c-0.183,0.237-0.354,0.481-0.546,0.709c-0.227,0.266-0.465,0.516-0.7,0.771
			c-0.2,0.217-0.396,0.441-0.604,0.646c-0.248,0.246-0.515,0.475-0.773,0.705c-0.221,0.196-0.434,0.4-0.659,0.59
			c-0.272,0.223-0.563,0.426-0.85,0.635c-0.234,0.172-0.462,0.354-0.703,0.517c-0.3,0.2-0.613,0.377-0.925,0.563
			c-0.245,0.146-0.484,0.304-0.736,0.438c-0.322,0.174-0.661,0.323-0.995,0.479c-0.255,0.119-0.504,0.252-0.765,0.362
			c-0.35,0.147-0.713,0.265-1.071,0.394c-0.26,0.095-0.513,0.199-0.776,0.279c-0.377,0.117-0.77,0.203-1.154,0.299
			c-0.26,0.063-0.51,0.145-0.771,0.194c-0.437,0.089-0.883,0.144-1.326,0.203c-0.223,0.03-0.438,0.077-0.658,0.099
			c-0.25-2.097-2.021-3.73-4.184-3.73c-1.861,0-3.428,1.216-3.993,2.89c-8.186-2.6-14.136-10.268-14.136-19.302
			c0-0.693,0.036-1.377,0.104-2.053c0.023-0.225,0.07-0.442,0.1-0.665c0.06-0.445,0.115-0.893,0.203-1.329
			c0.053-0.261,0.132-0.513,0.195-0.77c0.095-0.387,0.181-0.778,0.298-1.156c0.082-0.264,0.188-0.517,0.28-0.777
			c0.127-0.359,0.246-0.722,0.393-1.071c0.11-0.261,0.242-0.509,0.363-0.765c0.157-0.333,0.306-0.672,0.48-0.995
			c0.136-0.253,0.294-0.491,0.44-0.737c0.185-0.31,0.362-0.625,0.562-0.924c0.162-0.242,0.344-0.469,0.516-0.703
			c0.209-0.285,0.412-0.575,0.635-0.849c0.186-0.228,0.391-0.44,0.587-0.66c0.233-0.261,0.459-0.527,0.705-0.775
			c0.208-0.21,0.433-0.404,0.65-0.605c0.255-0.236,0.504-0.477,0.77-0.7c0.229-0.191,0.472-0.365,0.709-0.546
			c0.275-0.21,0.545-0.426,0.831-0.622c0.247-0.17,0.507-0.321,0.762-0.48c0.293-0.183,0.583-0.371,0.886-0.539
			c0.266-0.147,0.543-0.275,0.815-0.41c0.309-0.153,0.615-0.312,0.932-0.45c0.282-0.122,0.575-0.225,0.863-0.335
			c0.323-0.123,0.643-0.251,0.974-0.357c0.297-0.096,0.602-0.171,0.905-0.253c0.336-0.091,0.669-0.187,1.011-0.261
			c0.31-0.067,0.626-0.113,0.941-0.165c0.347-0.058,0.693-0.12,1.046-0.16c0.32-0.036,0.645-0.051,0.969-0.072
			c0.273-0.018,0.545-0.035,0.823-0.042v4.857c-0.189,0.006-0.374,0.033-0.563,0.046c-0.243,0.017-0.488,0.032-0.729,0.06
			c-0.269,0.031-0.533,0.077-0.797,0.122c-0.236,0.04-0.473,0.078-0.705,0.129c-0.262,0.057-0.517,0.129-0.773,0.199
			c-0.226,0.062-0.454,0.121-0.676,0.193c-0.253,0.082-0.499,0.179-0.746,0.273c-0.216,0.083-0.434,0.162-0.645,0.254
			c-0.242,0.104-0.476,0.225-0.711,0.343c-0.205,0.102-0.412,0.201-0.612,0.312c-0.23,0.128-0.451,0.27-0.674,0.41
			c-0.192,0.12-0.387,0.236-0.573,0.364c-0.217,0.15-0.424,0.313-0.633,0.474c-0.178,0.137-0.36,0.268-0.531,0.413
			c-0.202,0.17-0.393,0.353-0.586,0.533c-0.164,0.152-0.331,0.299-0.488,0.458c-0.186,0.189-0.359,0.39-0.535,0.588
			c-0.148,0.166-0.301,0.327-0.442,0.5c-0.169,0.207-0.322,0.425-0.48,0.641c-0.131,0.179-0.268,0.352-0.391,0.536
			c-0.15,0.225-0.283,0.461-0.422,0.693c-0.112,0.189-0.232,0.372-0.336,0.566c-0.131,0.243-0.242,0.496-0.36,0.747
			c-0.092,0.196-0.193,0.387-0.277,0.587c-0.111,0.264-0.2,0.537-0.296,0.808c-0.07,0.198-0.15,0.391-0.212,0.592
			c-0.089,0.288-0.155,0.585-0.227,0.88c-0.047,0.194-0.106,0.383-0.146,0.58c-0.057,0.278-0.089,0.564-0.13,0.848
			c-1.087,0.158-1.928,1.087-1.928,2.217s0.841,2.062,1.929,2.217c1.081,7.431,7.474,13.158,15.196,13.158
			c0.524,0,1.043-0.027,1.556-0.079c0.172-0.02,0.34-0.055,0.515-0.077c0.335-0.045,0.671-0.086,0.995-0.151
			c0.197-0.039,0.389-0.101,0.58-0.146c0.295-0.072,0.595-0.14,0.881-0.229c0.201-0.062,0.396-0.143,0.594-0.211
			c0.271-0.098,0.544-0.188,0.811-0.297c0.197-0.085,0.392-0.186,0.586-0.277c0.25-0.115,0.504-0.229,0.748-0.357
			c0.191-0.104,0.377-0.227,0.563-0.336c0.231-0.141,0.47-0.271,0.69-0.422c0.187-0.123,0.357-0.262,0.537-0.393
			c0.215-0.158,0.436-0.312,0.643-0.479c0.173-0.143,0.334-0.294,0.5-0.439c0.195-0.179,0.396-0.352,0.588-0.535
			c0.159-0.156,0.309-0.325,0.458-0.487c0.183-0.193,0.36-0.386,0.532-0.586c0.145-0.173,0.275-0.354,0.412-0.531
			c0.16-0.209,0.324-0.416,0.476-0.633c0.128-0.187,0.244-0.382,0.362-0.573c0.142-0.224,0.281-0.443,0.41-0.674
			c0.111-0.2,0.209-0.407,0.313-0.611c0.118-0.234,0.237-0.47,0.345-0.712c0.092-0.211,0.172-0.429,0.254-0.646
			c0.096-0.247,0.189-0.492,0.271-0.745c0.07-0.224,0.131-0.449,0.191-0.677c0.07-0.256,0.144-0.515,0.199-0.772
			c0.051-0.231,0.088-0.469,0.129-0.705c0.045-0.267,0.09-0.528,0.121-0.797c0.027-0.241,0.043-0.483,0.062-0.729
			c0.013-0.188,0.04-0.373,0.046-0.562h4.854c-0.006,0.273-0.021,0.549-0.041,0.82C50.037,31.521,50.021,31.848,49.986,32.167z
			 M24.531,50.418c1.711,0.445,3.495,0.707,5.343,0.707c0.354,0,0.703-0.035,1.056-0.053c-0.266,1.518-1.583,2.678-3.178,2.678
			c-1.782,0-3.231-1.449-3.231-3.23C24.521,50.484,24.53,50.452,24.531,50.418z M29.875,50.125c-1.783,0-3.505-0.255-5.153-0.689
			c0.448-1.248,1.631-2.146,3.031-2.146c1.628,0,2.966,1.216,3.187,2.785C30.585,50.09,30.234,50.125,29.875,50.125z M31.126,26.076
			c0.082,0.016,0.158,0.047,0.237,0.068c0.156,0.042,0.313,0.084,0.464,0.144c0.09,0.037,0.174,0.086,0.26,0.129
			c0.129,0.064,0.259,0.128,0.379,0.205c0.086,0.055,0.164,0.12,0.246,0.182c0.108,0.083,0.215,0.167,0.313,0.26
			c0.076,0.072,0.146,0.15,0.217,0.228c0.09,0.099,0.176,0.201,0.256,0.31c0.062,0.086,0.119,0.175,0.175,0.266
			c0.07,0.114,0.136,0.231,0.192,0.353c0.046,0.097,0.088,0.195,0.126,0.296c0.048,0.127,0.087,0.258,0.122,0.391
			c0.025,0.105,0.053,0.21,0.07,0.318c0.01,0.049,0.01,0.1,0.017,0.149h-3.824v-3.375C30.632,26,30.882,26.028,31.126,26.076z
			 M44.199,30.87c-0.018,0.235-0.032,0.47-0.061,0.702c-0.027,0.242-0.068,0.482-0.109,0.721c-0.038,0.229-0.076,0.459-0.125,0.684
			c-0.053,0.234-0.116,0.463-0.18,0.693c-0.063,0.223-0.121,0.444-0.19,0.662c-0.072,0.225-0.159,0.443-0.243,0.662
			c-0.082,0.213-0.161,0.428-0.252,0.636c-0.094,0.213-0.198,0.419-0.303,0.627c-0.104,0.204-0.2,0.41-0.313,0.608
			c-0.11,0.199-0.235,0.393-0.354,0.588c-0.121,0.193-0.239,0.39-0.368,0.577c-0.13,0.187-0.271,0.366-0.409,0.547
			s-0.271,0.364-0.42,0.539c-0.146,0.174-0.305,0.339-0.46,0.506c-0.154,0.167-0.306,0.337-0.466,0.496
			c-0.164,0.161-0.34,0.31-0.512,0.463c-0.168,0.149-0.332,0.306-0.507,0.446c-0.182,0.146-0.37,0.279-0.559,0.418
			c-0.181,0.133-0.354,0.271-0.543,0.395c-0.195,0.131-0.402,0.247-0.604,0.369c-0.188,0.113-0.373,0.232-0.568,0.337
			c-0.215,0.116-0.438,0.214-0.66,0.319c-0.194,0.092-0.385,0.191-0.584,0.275c-0.235,0.098-0.479,0.178-0.719,0.264
			c-0.196,0.07-0.39,0.146-0.59,0.211c-0.259,0.08-0.524,0.138-0.791,0.203c-0.189,0.048-0.377,0.104-0.57,0.145
			c-0.303,0.061-0.608,0.098-0.916,0.141c-0.166,0.022-0.327,0.06-0.495,0.073c-0.478,0.048-0.962,0.074-1.452,0.074
			c-7.2,0-13.162-5.325-14.199-12.239c0.909-0.289,1.574-1.133,1.574-2.136s-0.665-1.845-1.574-2.135
			c0.036-0.243,0.063-0.489,0.111-0.728c0.039-0.194,0.097-0.381,0.144-0.572c0.065-0.265,0.124-0.532,0.204-0.791
			c0.062-0.2,0.141-0.392,0.211-0.588c0.086-0.241,0.165-0.484,0.264-0.719c0.083-0.199,0.183-0.389,0.275-0.584
			c0.105-0.222,0.203-0.446,0.319-0.661c0.104-0.195,0.224-0.379,0.337-0.569c0.122-0.203,0.238-0.41,0.369-0.606
			c0.124-0.187,0.262-0.363,0.395-0.543c0.138-0.187,0.271-0.377,0.417-0.557c0.142-0.175,0.297-0.339,0.447-0.507
			c0.153-0.171,0.302-0.346,0.463-0.51c0.159-0.162,0.329-0.312,0.496-0.466c0.167-0.155,0.331-0.313,0.506-0.46
			c0.174-0.147,0.358-0.282,0.539-0.42c0.181-0.138,0.359-0.279,0.547-0.409c0.188-0.13,0.384-0.247,0.577-0.368
			c0.194-0.121,0.387-0.245,0.588-0.357c0.198-0.111,0.404-0.21,0.608-0.311c0.208-0.103,0.414-0.209,0.627-0.303
			c0.208-0.091,0.423-0.171,0.636-0.252c0.219-0.084,0.438-0.169,0.662-0.243c0.217-0.071,0.44-0.13,0.662-0.191
			c0.23-0.063,0.459-0.127,0.693-0.179c0.225-0.05,0.455-0.087,0.684-0.126c0.239-0.041,0.478-0.082,0.721-0.11
			c0.232-0.027,0.467-0.043,0.702-0.059c0.164-0.011,0.329-0.019,0.495-0.025v9.601c-0.079,0.017-0.153,0.049-0.231,0.07
			c-0.133,0.035-0.264,0.072-0.391,0.117c-0.148,0.052-0.289,0.112-0.429,0.177c-0.12,0.055-0.237,0.111-0.351,0.176
			c-0.136,0.077-0.263,0.163-0.39,0.252c-0.104,0.073-0.208,0.144-0.306,0.225c-0.122,0.1-0.233,0.21-0.344,0.322
			c-0.087,0.087-0.177,0.171-0.257,0.265c-0.105,0.122-0.196,0.255-0.289,0.387c-0.069,0.098-0.142,0.192-0.203,0.295
			c-0.087,0.146-0.156,0.301-0.227,0.456c-0.047,0.102-0.102,0.2-0.142,0.306c-0.067,0.177-0.112,0.364-0.158,0.55
			c-0.023,0.093-0.057,0.182-0.075,0.277C25.53,29.288,25.5,29.581,25.5,29.88c0,2.688,2.187,4.875,4.875,4.875
			c0.326,0,0.645-0.034,0.952-0.096c0.104-0.021,0.2-0.062,0.305-0.089c0.198-0.053,0.397-0.104,0.584-0.182
			c0.114-0.05,0.22-0.109,0.328-0.166c0.164-0.082,0.328-0.162,0.479-0.264c0.108-0.068,0.205-0.152,0.31-0.23
			c0.14-0.106,0.274-0.211,0.401-0.332c0.096-0.092,0.181-0.192,0.269-0.291c0.113-0.127,0.226-0.254,0.324-0.396
			c0.079-0.106,0.146-0.228,0.216-0.342c0.087-0.146,0.171-0.291,0.242-0.445c0.058-0.125,0.105-0.253,0.152-0.383
			c0.06-0.16,0.11-0.317,0.151-0.485c0.033-0.14,0.062-0.274,0.084-0.416c0.015-0.09,0.041-0.17,0.052-0.261h9
			C44.221,30.541,44.212,30.706,44.199,30.87z M15.5,29.875c0-0.373,0.028-0.739,0.056-1.105c0.407,0.206,0.694,0.619,0.694,1.105
			s-0.287,0.898-0.694,1.105C15.528,30.614,15.5,30.248,15.5,29.875z M14.5,29.875c0,0.393,0.03,0.775,0.059,1.161
			c-0.471-0.179-0.809-0.628-0.809-1.161s0.338-0.981,0.808-1.161C14.529,29.1,14.5,29.482,14.5,29.875z M34.186,30.523
			c-0.021,0.106-0.045,0.215-0.072,0.317c-0.034,0.136-0.073,0.267-0.121,0.394c-0.038,0.102-0.08,0.199-0.126,0.297
			c-0.06,0.119-0.122,0.238-0.191,0.353c-0.056,0.093-0.112,0.181-0.176,0.267c-0.079,0.107-0.166,0.211-0.256,0.312
			c-0.07,0.078-0.14,0.156-0.218,0.229c-0.099,0.096-0.207,0.179-0.313,0.262c-0.08,0.062-0.16,0.127-0.246,0.182
			c-0.118,0.078-0.248,0.143-0.377,0.205c-0.088,0.043-0.171,0.094-0.261,0.129c-0.148,0.063-0.307,0.104-0.465,0.146
			c-0.078,0.021-0.154,0.052-0.236,0.064c-0.243,0.049-0.493,0.076-0.751,0.076c-2.137,0-3.875-1.736-3.875-3.875
			c0-0.232,0.024-0.462,0.064-0.684c0.013-0.074,0.038-0.146,0.056-0.216c0.035-0.146,0.072-0.291,0.124-0.43
			c0.03-0.081,0.07-0.158,0.105-0.236c0.055-0.123,0.112-0.245,0.18-0.361c0.046-0.078,0.097-0.151,0.148-0.226
			c0.073-0.107,0.149-0.212,0.233-0.312c0.059-0.07,0.121-0.136,0.184-0.201c0.09-0.093,0.185-0.182,0.285-0.266
			c0.069-0.058,0.14-0.115,0.213-0.168c0.107-0.078,0.22-0.149,0.336-0.217c0.076-0.044,0.152-0.089,0.232-0.128
			c0.126-0.062,0.259-0.113,0.393-0.162c0.078-0.028,0.155-0.06,0.236-0.084c0.028-0.008,0.059-0.011,0.086-0.018v3.71
			c0,0.276,0.225,0.5,0.5,0.5H34.2C34.193,30.424,34.193,30.475,34.186,30.523z M29.375,8.631c-0.292,0.007-0.575,0.045-0.864,0.063
			c-0.346,0.022-0.692,0.037-1.033,0.076c-0.366,0.041-0.723,0.106-1.083,0.166c-0.335,0.056-0.672,0.104-1.002,0.175
			c-0.354,0.076-0.698,0.176-1.045,0.269c-0.324,0.088-0.651,0.167-0.969,0.27c-0.339,0.109-0.667,0.24-0.998,0.366
			c-0.312,0.118-0.627,0.228-0.932,0.361c-0.322,0.14-0.632,0.301-0.946,0.456c-0.298,0.147-0.6,0.286-0.89,0.447
			c-0.305,0.169-0.595,0.359-0.891,0.542c-0.281,0.175-0.568,0.341-0.841,0.528c-0.286,0.197-0.557,0.413-0.833,0.623
			c-0.262,0.2-0.531,0.391-0.783,0.602c-0.266,0.222-0.514,0.464-0.769,0.699c-0.242,0.223-0.491,0.438-0.722,0.672
			c-0.244,0.247-0.468,0.512-0.7,0.77c-0.219,0.244-0.447,0.48-0.654,0.735c-0.221,0.271-0.421,0.559-0.629,0.841
			c-0.194,0.263-0.397,0.517-0.579,0.789c-0.197,0.295-0.371,0.605-0.553,0.91c-0.167,0.278-0.344,0.548-0.498,0.833
			c-0.173,0.32-0.319,0.655-0.475,0.985c-0.136,0.287-0.285,0.567-0.409,0.861c-0.146,0.348-0.264,0.711-0.392,1.068
			c-0.104,0.291-0.223,0.575-0.315,0.871c-0.119,0.385-0.206,0.783-0.303,1.177c-0.07,0.282-0.156,0.557-0.214,0.844
			c-0.092,0.452-0.148,0.917-0.211,1.379c-0.033,0.239-0.083,0.472-0.108,0.714c-0.072,0.709-0.109,1.427-0.109,2.155
			c0,9.519,6.29,17.595,14.932,20.291c-0.01,0.118-0.036,0.231-0.036,0.353c0,2.332,1.898,4.23,4.231,4.23
			c2.161,0,3.93-1.634,4.184-3.729c0.03-0.002,0.063-0.002,0.097-0.006c0.239-0.023,0.477-0.074,0.714-0.107
			c0.462-0.062,0.927-0.119,1.379-0.211c0.286-0.059,0.562-0.145,0.846-0.215c0.395-0.096,0.793-0.187,1.178-0.303
			c0.297-0.095,0.58-0.209,0.871-0.314c0.354-0.128,0.721-0.245,1.065-0.393c0.294-0.123,0.574-0.272,0.86-0.408
			c0.33-0.156,0.664-0.303,0.984-0.479c0.284-0.15,0.557-0.332,0.832-0.498c0.307-0.183,0.614-0.354,0.909-0.553
			c0.271-0.186,0.526-0.387,0.789-0.579c0.282-0.208,0.569-0.407,0.843-0.629c0.254-0.208,0.489-0.438,0.733-0.653
			c0.258-0.229,0.522-0.453,0.771-0.697c0.233-0.231,0.448-0.48,0.672-0.726c0.235-0.255,0.479-0.503,0.699-0.771
			c0.211-0.254,0.402-0.521,0.604-0.781c0.21-0.275,0.427-0.546,0.623-0.833c0.188-0.271,0.354-0.562,0.527-0.843
			c0.184-0.297,0.373-0.588,0.541-0.893c0.16-0.289,0.301-0.592,0.445-0.89c0.155-0.313,0.316-0.624,0.456-0.946
			c0.132-0.305,0.242-0.619,0.36-0.932c0.125-0.331,0.258-0.659,0.365-0.998c0.104-0.318,0.184-0.645,0.271-0.969
			c0.094-0.35,0.191-0.691,0.271-1.045c0.068-0.33,0.119-0.668,0.176-1.002c0.06-0.36,0.123-0.718,0.166-1.084
			c0.037-0.341,0.054-0.688,0.074-1.033c0.02-0.288,0.058-0.571,0.062-0.863h7.627C58.479,46.066,45.63,58.75,29.875,58.75
			C13.953,58.75,1,45.797,1,29.875c0-8.129,3.382-15.478,8.806-20.73c0.411,0.301,0.913,0.485,1.461,0.485
			c1.369,0,2.483-1.114,2.483-2.483c0-0.376-0.09-0.729-0.241-1.049c4.527-3.125,9.985-4.993,15.866-5.094V8.631z M12.675,6.703
			c0.044,0.141,0.075,0.288,0.075,0.443c0,0.818-0.665,1.483-1.483,1.483c-0.259,0-0.498-0.072-0.71-0.189
			C11.234,7.829,11.941,7.249,12.675,6.703z M9.783,7.146c0-0.818,0.665-1.483,1.483-1.483c0.296,0,0.571,0.089,0.802,0.239
			c-0.755,0.562-1.481,1.16-2.179,1.789C9.823,7.522,9.783,7.339,9.783,7.146z"/>
		<path d="M47.25,21.032c1.88,0,3.407-1.528,3.407-3.407c0-1.878-1.527-3.406-3.407-3.406c-1.879,0-3.407,1.528-3.407,3.406
			C43.843,19.504,45.371,21.032,47.25,21.032z M47.25,15.219c1.327,0,2.407,1.079,2.407,2.406s-1.08,2.407-2.407,2.407
			s-2.407-1.08-2.407-2.407S45.923,15.219,47.25,15.219z"/>
		<path d="M36.75,22c1.38,0,2.5-1.121,2.5-2.5s-1.12-2.5-2.5-2.5c-1.379,0-2.5,1.121-2.5,2.5S35.371,22,36.75,22z M36.75,18
			c0.827,0,1.5,0.673,1.5,1.5s-0.673,1.5-1.5,1.5s-1.5-0.673-1.5-1.5S35.923,18,36.75,18z"/>
	</g>
</g>
</svg>
