<svg height="512pt" viewBox="0 -96 512.001 512" width="512pt" xmlns="http://www.w3.org/2000/svg"><path d="m471.5 91.558594h-96.667969c-4.140625 0-7.5 3.355468-7.5 7.5 0 4.144531 3.359375 7.5 7.5 7.5h96.667969c4.144531 0 7.5-3.355469 7.5-7.5 0-4.144532-3.355469-7.5-7.5-7.5zm0 0"/><path d="m471.5 126.890625h-47.097656c-4.144532 0-7.5 3.359375-7.5 7.5 0 4.144531 3.355468 7.5 7.5 7.5h47.097656c4.144531 0 7.5-3.355469 7.5-7.5 0-4.140625-3.355469-7.5-7.5-7.5zm0 0"/><path d="m389.507812 126.890625h-14.675781c-4.140625 0-7.5 3.359375-7.5 7.5 0 4.144531 3.359375 7.5 7.5 7.5h14.675781c4.140626 0 7.5-3.355469 7.5-7.5 0-4.140625-3.359374-7.5-7.5-7.5zm0 0"/><path d="m233.871094 169.578125c17.617187 0 31.953125-14.332031 31.953125-31.953125 0-17.617188-14.335938-31.949219-31.953125-31.949219-17.617188 0-31.949219 14.332031-31.949219 31.949219 0 17.621094 14.332031 31.953125 31.949219 31.953125zm0-48.902344c9.347656 0 16.953125 7.601563 16.953125 16.949219s-7.605469 16.953125-16.953125 16.953125-16.949219-7.605469-16.949219-16.953125c0-9.34375 7.601563-16.949219 16.949219-16.949219zm0 0"/><path d="m173.210938 157.808594h3.367187c.726563 2.058594 1.566406 4.089844 2.511719 6.0625l-2.382813 2.378906c-2.558593 2.558594-3.96875 5.960938-3.96875 9.578125 0 3.621094 1.410157 7.019531 3.96875 9.578125l9.386719 9.386719c5.28125 5.277343 13.875 5.277343 19.152344 0l2.382812-2.382813c1.972656.941406 4.003906 1.785156 6.0625 2.511719v3.367187c0 7.46875 6.078125 13.542969 13.546875 13.542969h13.269531c7.46875 0 13.546876-6.074219 13.546876-13.542969v-3.367187c2.058593-.726563 4.089843-1.570313 6.058593-2.511719l2.382813 2.382813c5.28125 5.277343 13.875 5.277343 19.15625 0l9.386718-9.386719c5.277344-5.28125 5.277344-13.871094-.003906-19.15625l-2.378906-2.378906c.941406-1.972656 1.785156-4.003906 2.507812-6.0625h3.371094c7.46875 0 13.542969-6.078125 13.542969-13.546875v-13.269531c0-7.46875-6.074219-13.546876-13.542969-13.546876h-3.371094c-.722656-2.0625-1.566406-4.09375-2.507812-6.0625l2.382812-2.382812c5.277344-5.28125 5.277344-13.875 0-19.152344l-9.386718-9.386718c-5.285156-5.28125-13.875-5.277344-19.15625 0l-2.382813 2.382812c-1.96875-.941406-4-1.785156-6.058593-2.511719v-3.367187c0-7.46875-6.078126-13.546875-13.546876-13.546875h-13.269531c-7.46875 0-13.546875 6.078125-13.546875 13.546875v3.367187c-2.058594.726563-4.089844 1.566407-6.0625 2.511719l-2.382812-2.382812c-5.277344-5.277344-13.871094-5.277344-19.152344 0l-9.382812 9.382812c-2.5625 2.5625-3.972657 5.960938-3.972657 9.582031 0 3.617188 1.410157 7.019531 3.96875 9.578125l2.382813 2.378906c-.945313 1.972657-1.785156 4.003907-2.511719 6.0625h-3.367187c-7.46875 0-13.546876 6.078126-13.546876 13.546876v13.269531c0 7.46875 6.078126 13.546875 13.546876 13.546875zm1.453124-25.363282h2.957032c5.839844 0 11.007812-3.734374 12.859375-9.292968.675781-2.035156 1.507812-4.042969 2.46875-5.96875 2.625-5.242188 1.613281-11.539063-2.515625-15.667969l-2.089844-2.089844 7.324219-7.328125 2.089843 2.089844c4.132813 4.128906 10.425782 5.140625 15.671876 2.519531 1.921874-.960937 3.929687-1.792969 5.96875-2.472656 5.558593-1.851563 9.292968-7.019531 9.292968-12.855469v-2.957031h10.359375v2.957031c0 5.835938 3.734375 11.003906 9.292969 12.855469 2.039062.679687 4.046875 1.511719 5.972656 2.472656 5.246094 2.621094 11.539063 1.609375 15.667969-2.519531l2.089844-2.089844 7.328125 7.328125-2.09375 2.089844c-4.128906 4.128906-5.140625 10.425781-2.515625 15.667969.960937 1.921875 1.792969 3.929687 2.472656 5.96875 1.847656 5.558594 7.015625 9.292968 12.855469 9.292968h2.957031v10.363282h-2.957031c-5.839844 0-11.007813 3.734375-12.855469 9.289062-.679687 2.042969-1.511719 4.050782-2.472656 5.96875-2.625 5.246094-1.613281 11.542969 2.515625 15.671875l2.09375 2.089844-7.328125 7.328125-2.089844-2.089844c-4.128906-4.128906-10.425781-5.140625-15.671875-2.519531-1.921875.960937-3.929688 1.792969-5.96875 2.472656-5.558594 1.851563-9.292969 7.019531-9.292969 12.855469v2.957031h-10.359375v-2.957031c0-5.839844-3.734375-11.003906-9.292968-12.855469-2.039063-.679687-4.046876-1.511719-5.96875-2.472656-5.246094-2.625-11.542969-1.613281-15.671876 2.519531l-2.089843 2.089844-7.324219-7.328125 2.089844-2.089844c4.128906-4.128906 5.140625-10.425781 2.515625-15.667969-.960938-1.921874-1.792969-3.929687-2.46875-5.972656-1.851563-5.554687-7.019531-9.289062-12.859375-9.289062h-2.957032zm0 0"/><path d="m487.441406 58.808594h-42.371094v-34.898438c0-13.183594-10.726562-23.910156-23.910156-23.910156h-374.578125c-13.183593 0-23.90625 10.726562-23.90625 23.910156v238.664063h-5.21875c-9.625 0-17.457031 7.832031-17.457031 17.457031 0 22.019531 17.914062 39.933594 39.933594 39.933594h387.957031c22.019531 0 39.933594-17.914063 39.933594-39.933594 0-9.625-7.832031-17.457031-17.457031-17.457031h-5.296876v-82.832031h42.375c13.539063 0 24.554688-11.015626 24.554688-24.554688v-71.820312c0-13.542969-11.015625-24.558594-24.558594-24.558594zm-449.765625-34.898438c0-4.914062 3.996094-8.910156 8.90625-8.910156h374.578125c4.914063 0 8.910156 3.996094 8.910156 8.910156v34.898438h-12.4375v-22.878906c0-5.476563-4.460937-9.9375-9.941406-9.9375h-347.640625c-5.480469 0-9.9375 4.460937-9.9375 9.9375v85.410156c0 4.140625 3.355469 7.5 7.5 7.5 4.140625 0 7.5-3.359375 7.5-7.5v-80.347656h337.519531v17.816406h-47.292968c-13.539063 0-24.554688 11.015625-24.554688 24.554687v71.820313c0 12.9375 10.050782 23.566406 22.753906 24.492187l-8.578124 29.742188c-1.078126 3.738281.367187 7.707031 3.597656 9.875 1.515625 1.015625 3.246094 1.523437 4.96875 1.523437 1.960937 0 3.910156-.648437 5.53125-1.933594l43.574218-34.492187v51.070313h-337.523437v-79.226563c0-4.144531-3.355469-7.5-7.5-7.5-4.140625 0-7.5 3.355469-7.5 7.5v84.289063c0 5.480468 4.460937 9.9375 9.941406 9.9375h347.640625c5.480469 0 9.941406-4.457032 9.941406-9.9375v-60.78125h12.4375v82.832031h-392.394531zm152.800781 281.050782c1.835938-4.183594 6.019532-7.113282 10.875-7.113282h65.121094c4.855469 0 9.039063 2.933594 10.878906 7.113282zm259.890626-27.386719c1.355468 0 2.457031 1.101562 2.457031 2.457031 0 13.746094-11.1875 24.933594-24.933594 24.933594h-134.964844c-2.253906-12.554688-13.257812-22.113282-26.453125-22.113282h-65.121094c-13.195312 0-24.199218 9.558594-26.449218 22.113282h-134.96875c-13.75-.003906-24.933594-11.1875-24.933594-24.933594 0-1.355469 1.101562-2.457031 2.457031-2.457031zm46.632812-122.386719c0 5.269531-4.285156 9.554688-9.558594 9.554688h-80.488281c-2.363281 0-4.683594.808593-6.535156 2.273437l-35.785157 28.324219 4.945313-17.148438c.925781-3.210937.304687-6.582031-1.703125-9.25-2.007812-2.667968-5.074219-4.199218-8.414062-4.199218h-4.121094c-5.269532 0-9.554688-4.285157-9.554688-9.558594v-71.816406c0-5.273438 4.285156-9.558594 9.554688-9.558594h132.105468c5.269532 0 9.554688 4.285156 9.554688 9.558594zm0 0"/></svg>